SplineFontDB: 3.1
FontName: Banneux
FullName: Banneux
FamilyName: Banneux
Weight: Regular
Copyright: Copyright (c) 2018, James Hudson\nThis font is licensed under the SIL Open Font License version 1.1\nhttps://scripts.sil.org/OFL
UComments: "2018-9-21: Created with FontForge (http://fontforge.org)"
Version: 001.000
ItalicAngle: 0
UnderlinePosition: -102
UnderlineWidth: 51
Ascent: 774
Descent: 250
InvalidEm: 0
LayerCount: 2
Layer: 0 0 "Back" 1
Layer: 1 0 "Fore" 0
XUID: [1021 221 1603365728 5284029]
StyleMap: 0x0000
FSType: 0
OS2Version: 0
OS2_WeightWidthSlopeOnly: 0
OS2_UseTypoMetrics: 1
CreationTime: 1537556816
ModificationTime: 1538331068
OS2TypoAscent: 0
OS2TypoAOffset: 1
OS2TypoDescent: 0
OS2TypoDOffset: 1
OS2TypoLinegap: 92
OS2WinAscent: 0
OS2WinAOffset: 1
OS2WinDescent: 0
OS2WinDOffset: 1
HheadAscent: 0
HheadAOffset: 1
HheadDescent: 0
HheadDOffset: 1
OS2Vendor: 'PfEd'
MarkAttachClasses: 1
DEI: 91125
Encoding: win
UnicodeInterp: none
NameList: AGL For New Fonts
DisplaySize: -48
AntiAlias: 1
FitToEm: 0
WidthSeparation: 50
WinInfo: 36 12 9
BeginPrivate: 0
EndPrivate
BeginChars: 256 67

StartChar: A
Encoding: 65 65 0
Width: 806
VWidth: 0
Flags: HW
LayerCount: 2
UndoRedoHistory
Layer: 1
Undoes
UndoOperation
Index: 0
Type: 7
WasModified: 1
WasOrder2: 0
Layer: 2
Width: 800
EndUndoOperation
UndoOperation
Index: 1
Type: 3
WasModified: 0
WasOrder2: 0
Layer: 2
EndUndoOperation
UndoOperation
Index: 2
Type: 1
WasModified: 1
WasOrder2: 0
Layer: 2
Width: 775
VWidth: 0
LBearingChange: 0
UnicodeEnc: 0
InstructionsLength: 0
SplineSet
363.84375 794 m 4
 416.783203125 793.916992188 459.510742188 754.779296875 465.267578125 731.794921875 c 4
 471.306640625 707.6796875 702.06640625 45.3046875 702.06640625 45.3046875 c 6
 716.97265625 8.84375 742.102539062 41.8369140625 756.35546875 45.861328125 c 5
 740.200195312 13.859375 699.282226562 -16.591796875 665.64453125 -18.880859375 c 4
 638.59375 -20.72265625 602.42578125 16.0341796875 581.435546875 -15.73828125 c 5
 575.372070312 18.2177734375 612.818359375 30.2939453125 630.919921875 39.8046875 c 5
 548.04296875 241.0546875 l 5
 249.412109375 241.0546875 l 5
 197.974609375 83.94921875 l 5
 228.065429688 69.5146484375 277.356445312 60.830078125 300.056640625 38.40625 c 5
 288.064453125 9.5224609375 268.815429688 -5.84375 261.7265625 -22.37109375 c 5
 212.962890625 -5.818359375 187.018554688 8.82421875 144.69921875 18.22265625 c 4
 77.0400390625 28.482421875 28.875 3.986328125 0 -21.421875 c 5
 3.923828125 20.154296875 134.208984375 88.3037109375 169.248046875 89.81640625 c 5
 373.529296875 689.400390625 l 5
 414.956054688 752.974609375 231.100585938 742.224609375 210.705078125 659.62109375 c 5
 203.13671875 718.446289062 299.434570312 789.638671875 355.962890625 793.72265625 c 4
 358.612304688 793.9140625 361.240234375 794.00390625 363.84375 794 c 4
402.373046875 696.755859375 m 5
 360.719726562 592.733398438 309.979492188 455.676757812 277.24609375 340.955078125 c 5
 521.333984375 340.955078125 l 5
 498.134765625 440.479492188 402.373046875 696.755859375 402.373046875 696.755859375 c 5
532.392578125 279.056640625 m 5
 261.609375 278.310546875 l 5
 252.03125 249.0546875 l 5
 544.748046875 249.0546875 l 5
 532.392578125 279.056640625 l 5
EndSplineSet
EndUndoOperation
UndoOperation
Index: 3
Type: 1
WasModified: 1
WasOrder2: 0
Layer: 2
Width: 775
VWidth: 0
LBearingChange: 0
UnicodeEnc: 0
InstructionsLength: 0
SplineSet
363.84375 793 m 4
 416.783203125 792.916992188 459.510742188 753.779296875 465.267578125 730.794921875 c 4
 471.306640625 706.6796875 702.06640625 44.3046875 702.06640625 44.3046875 c 6
 716.97265625 7.84375 742.102539062 40.8369140625 756.35546875 44.861328125 c 5
 740.200195312 12.859375 699.282226562 -17.591796875 665.64453125 -19.880859375 c 4
 638.59375 -21.72265625 602.42578125 15.0341796875 581.435546875 -16.73828125 c 5
 575.372070312 17.2177734375 612.818359375 29.2939453125 630.919921875 38.8046875 c 5
 548.04296875 240.0546875 l 5
 249.412109375 240.0546875 l 5
 197.974609375 82.94921875 l 5
 228.065429688 68.5146484375 277.356445312 59.830078125 300.056640625 37.40625 c 5
 288.064453125 8.5224609375 268.815429688 -6.84375 261.7265625 -23.37109375 c 5
 212.962890625 -6.818359375 187.018554688 7.82421875 144.69921875 17.22265625 c 4
 77.0400390625 27.482421875 28.875 2.986328125 0 -22.421875 c 5
 3.923828125 19.154296875 134.208984375 87.3037109375 169.248046875 88.81640625 c 5
 373.529296875 688.400390625 l 5
 414.956054688 751.974609375 231.100585938 741.224609375 210.705078125 658.62109375 c 5
 203.13671875 717.446289062 299.434570312 788.638671875 355.962890625 792.72265625 c 4
 358.612304688 792.9140625 361.240234375 793.00390625 363.84375 793 c 4
402.373046875 695.755859375 m 5
 360.719726562 591.733398438 309.979492188 454.676757812 277.24609375 339.955078125 c 5
 521.333984375 339.955078125 l 5
 498.134765625 439.479492188 402.373046875 695.755859375 402.373046875 695.755859375 c 5
532.392578125 278.056640625 m 5
 261.609375 277.310546875 l 5
 252.03125 248.0546875 l 5
 544.748046875 248.0546875 l 5
 532.392578125 278.056640625 l 5
EndSplineSet
EndUndoOperation
UndoOperation
Index: 4
Type: 1
WasModified: 1
WasOrder2: 0
Layer: 2
Width: 775
VWidth: 0
LBearingChange: 0
UnicodeEnc: 0
InstructionsLength: 0
SplineSet
363.84375 792 m 4
 416.783203125 791.916992188 459.510742188 752.779296875 465.267578125 729.794921875 c 4
 471.306640625 705.6796875 702.06640625 43.3046875 702.06640625 43.3046875 c 6
 716.97265625 6.84375 742.102539062 39.8369140625 756.35546875 43.861328125 c 5
 740.200195312 11.859375 699.282226562 -18.591796875 665.64453125 -20.880859375 c 4
 638.59375 -22.72265625 602.42578125 14.0341796875 581.435546875 -17.73828125 c 5
 575.372070312 16.2177734375 612.818359375 28.2939453125 630.919921875 37.8046875 c 5
 548.04296875 239.0546875 l 5
 249.412109375 239.0546875 l 5
 197.974609375 81.94921875 l 5
 228.065429688 67.5146484375 277.356445312 58.830078125 300.056640625 36.40625 c 5
 288.064453125 7.5224609375 268.815429688 -7.84375 261.7265625 -24.37109375 c 5
 212.962890625 -7.818359375 187.018554688 6.82421875 144.69921875 16.22265625 c 4
 77.0400390625 26.482421875 28.875 1.986328125 0 -23.421875 c 5
 3.923828125 18.154296875 134.208984375 86.3037109375 169.248046875 87.81640625 c 5
 373.529296875 687.400390625 l 5
 414.956054688 750.974609375 231.100585938 740.224609375 210.705078125 657.62109375 c 5
 203.13671875 716.446289062 299.434570312 787.638671875 355.962890625 791.72265625 c 4
 358.612304688 791.9140625 361.240234375 792.00390625 363.84375 792 c 4
402.373046875 694.755859375 m 5
 360.719726562 590.733398438 309.979492188 453.676757812 277.24609375 338.955078125 c 5
 521.333984375 338.955078125 l 5
 498.134765625 438.479492188 402.373046875 694.755859375 402.373046875 694.755859375 c 5
532.392578125 277.056640625 m 5
 261.609375 276.310546875 l 5
 252.03125 247.0546875 l 5
 544.748046875 247.0546875 l 5
 532.392578125 277.056640625 l 5
EndSplineSet
EndUndoOperation
UndoOperation
Index: 5
Type: 1
WasModified: 1
WasOrder2: 0
Layer: 2
Width: 775
VWidth: 0
LBearingChange: 0
UnicodeEnc: 0
InstructionsLength: 0
SplineSet
363.84375 791 m 4
 416.783203125 790.916992188 459.510742188 751.779296875 465.267578125 728.794921875 c 4
 471.306640625 704.6796875 702.06640625 42.3046875 702.06640625 42.3046875 c 6
 716.97265625 5.84375 742.102539062 38.8369140625 756.35546875 42.861328125 c 5
 740.200195312 10.859375 699.282226562 -19.591796875 665.64453125 -21.880859375 c 4
 638.59375 -23.72265625 602.42578125 13.0341796875 581.435546875 -18.73828125 c 5
 575.372070312 15.2177734375 612.818359375 27.2939453125 630.919921875 36.8046875 c 5
 548.04296875 238.0546875 l 5
 249.412109375 238.0546875 l 5
 197.974609375 80.94921875 l 5
 228.065429688 66.5146484375 277.356445312 57.830078125 300.056640625 35.40625 c 5
 288.064453125 6.5224609375 268.815429688 -8.84375 261.7265625 -25.37109375 c 5
 212.962890625 -8.818359375 187.018554688 5.82421875 144.69921875 15.22265625 c 4
 77.0400390625 25.482421875 28.875 0.986328125 0 -24.421875 c 5
 3.923828125 17.154296875 134.208984375 85.3037109375 169.248046875 86.81640625 c 5
 373.529296875 686.400390625 l 5
 414.956054688 749.974609375 231.100585938 739.224609375 210.705078125 656.62109375 c 5
 203.13671875 715.446289062 299.434570312 786.638671875 355.962890625 790.72265625 c 4
 358.612304688 790.9140625 361.240234375 791.00390625 363.84375 791 c 4
402.373046875 693.755859375 m 5
 360.719726562 589.733398438 309.979492188 452.676757812 277.24609375 337.955078125 c 5
 521.333984375 337.955078125 l 5
 498.134765625 437.479492188 402.373046875 693.755859375 402.373046875 693.755859375 c 5
532.392578125 276.056640625 m 5
 261.609375 275.310546875 l 5
 252.03125 246.0546875 l 5
 544.748046875 246.0546875 l 5
 532.392578125 276.056640625 l 5
EndSplineSet
EndUndoOperation
UndoOperation
Index: 6
Type: 1
WasModified: 1
WasOrder2: 0
Layer: 2
Width: 775
VWidth: 0
LBearingChange: 0
UnicodeEnc: 0
InstructionsLength: 0
SplineSet
363.84375 790 m 4
 416.783203125 789.916992188 459.510742188 750.779296875 465.267578125 727.794921875 c 4
 471.306640625 703.6796875 702.06640625 41.3046875 702.06640625 41.3046875 c 6
 716.97265625 4.84375 742.102539062 37.8369140625 756.35546875 41.861328125 c 5
 740.200195312 9.859375 699.282226562 -20.591796875 665.64453125 -22.880859375 c 4
 638.59375 -24.72265625 602.42578125 12.0341796875 581.435546875 -19.73828125 c 5
 575.372070312 14.2177734375 612.818359375 26.2939453125 630.919921875 35.8046875 c 5
 548.04296875 237.0546875 l 5
 249.412109375 237.0546875 l 5
 197.974609375 79.94921875 l 5
 228.065429688 65.5146484375 277.356445312 56.830078125 300.056640625 34.40625 c 5
 288.064453125 5.5224609375 268.815429688 -9.84375 261.7265625 -26.37109375 c 5
 212.962890625 -9.818359375 187.018554688 4.82421875 144.69921875 14.22265625 c 4
 77.0400390625 24.482421875 28.875 -0.013671875 0 -25.421875 c 5
 3.923828125 16.154296875 134.208984375 84.3037109375 169.248046875 85.81640625 c 5
 373.529296875 685.400390625 l 5
 414.956054688 748.974609375 231.100585938 738.224609375 210.705078125 655.62109375 c 5
 203.13671875 714.446289062 299.434570312 785.638671875 355.962890625 789.72265625 c 4
 358.612304688 789.9140625 361.240234375 790.00390625 363.84375 790 c 4
402.373046875 692.755859375 m 5
 360.719726562 588.733398438 309.979492188 451.676757812 277.24609375 336.955078125 c 5
 521.333984375 336.955078125 l 5
 498.134765625 436.479492188 402.373046875 692.755859375 402.373046875 692.755859375 c 5
532.392578125 275.056640625 m 5
 261.609375 274.310546875 l 5
 252.03125 245.0546875 l 5
 544.748046875 245.0546875 l 5
 532.392578125 275.056640625 l 5
EndSplineSet
EndUndoOperation
UndoOperation
Index: 7
Type: 1
WasModified: 1
WasOrder2: 0
Layer: 2
Width: 775
VWidth: 0
LBearingChange: 0
UnicodeEnc: 0
InstructionsLength: 0
SplineSet
363.84375 789 m 4
 416.783203125 788.916992188 459.510742188 749.779296875 465.267578125 726.794921875 c 4
 471.306640625 702.6796875 702.06640625 40.3046875 702.06640625 40.3046875 c 6
 716.97265625 3.84375 742.102539062 36.8369140625 756.35546875 40.861328125 c 5
 740.200195312 8.859375 699.282226562 -21.591796875 665.64453125 -23.880859375 c 4
 638.59375 -25.72265625 602.42578125 11.0341796875 581.435546875 -20.73828125 c 5
 575.372070312 13.2177734375 612.818359375 25.2939453125 630.919921875 34.8046875 c 5
 548.04296875 236.0546875 l 5
 249.412109375 236.0546875 l 5
 197.974609375 78.94921875 l 5
 228.065429688 64.5146484375 277.356445312 55.830078125 300.056640625 33.40625 c 5
 288.064453125 4.5224609375 268.815429688 -10.84375 261.7265625 -27.37109375 c 5
 212.962890625 -10.818359375 187.018554688 3.82421875 144.69921875 13.22265625 c 4
 77.0400390625 23.482421875 28.875 -1.013671875 0 -26.421875 c 5
 3.923828125 15.154296875 134.208984375 83.3037109375 169.248046875 84.81640625 c 5
 373.529296875 684.400390625 l 5
 414.956054688 747.974609375 231.100585938 737.224609375 210.705078125 654.62109375 c 5
 203.13671875 713.446289062 299.434570312 784.638671875 355.962890625 788.72265625 c 4
 358.612304688 788.9140625 361.240234375 789.00390625 363.84375 789 c 4
402.373046875 691.755859375 m 5
 360.719726562 587.733398438 309.979492188 450.676757812 277.24609375 335.955078125 c 5
 521.333984375 335.955078125 l 5
 498.134765625 435.479492188 402.373046875 691.755859375 402.373046875 691.755859375 c 5
532.392578125 274.056640625 m 5
 261.609375 273.310546875 l 5
 252.03125 244.0546875 l 5
 544.748046875 244.0546875 l 5
 532.392578125 274.056640625 l 5
EndSplineSet
EndUndoOperation
UndoOperation
Index: 8
Type: 1
WasModified: 1
WasOrder2: 0
Layer: 2
Width: 775
VWidth: 0
LBearingChange: 0
UnicodeEnc: 0
InstructionsLength: 0
SplineSet
363.84375 788 m 4
 416.783203125 787.916992188 459.510742188 748.779296875 465.267578125 725.794921875 c 4
 471.306640625 701.6796875 702.06640625 39.3046875 702.06640625 39.3046875 c 6
 716.97265625 2.84375 742.102539062 35.8369140625 756.35546875 39.861328125 c 5
 740.200195312 7.859375 699.282226562 -22.591796875 665.64453125 -24.880859375 c 4
 638.59375 -26.72265625 602.42578125 10.0341796875 581.435546875 -21.73828125 c 5
 575.372070312 12.2177734375 612.818359375 24.2939453125 630.919921875 33.8046875 c 5
 548.04296875 235.0546875 l 5
 249.412109375 235.0546875 l 5
 197.974609375 77.94921875 l 5
 228.065429688 63.5146484375 277.356445312 54.830078125 300.056640625 32.40625 c 5
 288.064453125 3.5224609375 268.815429688 -11.84375 261.7265625 -28.37109375 c 5
 212.962890625 -11.818359375 187.018554688 2.82421875 144.69921875 12.22265625 c 4
 77.0400390625 22.482421875 28.875 -2.013671875 0 -27.421875 c 5
 3.923828125 14.154296875 134.208984375 82.3037109375 169.248046875 83.81640625 c 5
 373.529296875 683.400390625 l 5
 414.956054688 746.974609375 231.100585938 736.224609375 210.705078125 653.62109375 c 5
 203.13671875 712.446289062 299.434570312 783.638671875 355.962890625 787.72265625 c 4
 358.612304688 787.9140625 361.240234375 788.00390625 363.84375 788 c 4
402.373046875 690.755859375 m 5
 360.719726562 586.733398438 309.979492188 449.676757812 277.24609375 334.955078125 c 5
 521.333984375 334.955078125 l 5
 498.134765625 434.479492188 402.373046875 690.755859375 402.373046875 690.755859375 c 5
532.392578125 273.056640625 m 5
 261.609375 272.310546875 l 5
 252.03125 243.0546875 l 5
 544.748046875 243.0546875 l 5
 532.392578125 273.056640625 l 5
EndSplineSet
EndUndoOperation
UndoOperation
Index: 9
Type: 1
WasModified: 1
WasOrder2: 0
Layer: 2
Width: 775
VWidth: 0
LBearingChange: 0
UnicodeEnc: 0
InstructionsLength: 0
SplineSet
363.84375 787 m 4
 416.783203125 786.916992188 459.510742188 747.779296875 465.267578125 724.794921875 c 4
 471.306640625 700.6796875 702.06640625 38.3046875 702.06640625 38.3046875 c 6
 716.97265625 1.84375 742.102539062 34.8369140625 756.35546875 38.861328125 c 5
 740.200195312 6.859375 699.282226562 -23.591796875 665.64453125 -25.880859375 c 4
 638.59375 -27.72265625 602.42578125 9.0341796875 581.435546875 -22.73828125 c 5
 575.372070312 11.2177734375 612.818359375 23.2939453125 630.919921875 32.8046875 c 5
 548.04296875 234.0546875 l 5
 249.412109375 234.0546875 l 5
 197.974609375 76.94921875 l 5
 228.065429688 62.5146484375 277.356445312 53.830078125 300.056640625 31.40625 c 5
 288.064453125 2.5224609375 268.815429688 -12.84375 261.7265625 -29.37109375 c 5
 212.962890625 -12.818359375 187.018554688 1.82421875 144.69921875 11.22265625 c 4
 77.0400390625 21.482421875 28.875 -3.013671875 0 -28.421875 c 5
 3.923828125 13.154296875 134.208984375 81.3037109375 169.248046875 82.81640625 c 5
 373.529296875 682.400390625 l 5
 414.956054688 745.974609375 231.100585938 735.224609375 210.705078125 652.62109375 c 5
 203.13671875 711.446289062 299.434570312 782.638671875 355.962890625 786.72265625 c 4
 358.612304688 786.9140625 361.240234375 787.00390625 363.84375 787 c 4
402.373046875 689.755859375 m 5
 360.719726562 585.733398438 309.979492188 448.676757812 277.24609375 333.955078125 c 5
 521.333984375 333.955078125 l 5
 498.134765625 433.479492188 402.373046875 689.755859375 402.373046875 689.755859375 c 5
532.392578125 272.056640625 m 5
 261.609375 271.310546875 l 5
 252.03125 242.0546875 l 5
 544.748046875 242.0546875 l 5
 532.392578125 272.056640625 l 5
EndSplineSet
EndUndoOperation
UndoOperation
Index: 10
Type: 1
WasModified: 1
WasOrder2: 0
Layer: 2
Width: 775
VWidth: 0
LBearingChange: 0
UnicodeEnc: 0
InstructionsLength: 0
SplineSet
363.84375 786 m 4
 416.783203125 785.916992188 459.510742188 746.779296875 465.267578125 723.794921875 c 4
 471.306640625 699.6796875 702.06640625 37.3046875 702.06640625 37.3046875 c 6
 716.97265625 0.84375 742.102539062 33.8369140625 756.35546875 37.861328125 c 5
 740.200195312 5.859375 699.282226562 -24.591796875 665.64453125 -26.880859375 c 4
 638.59375 -28.72265625 602.42578125 8.0341796875 581.435546875 -23.73828125 c 5
 575.372070312 10.2177734375 612.818359375 22.2939453125 630.919921875 31.8046875 c 5
 548.04296875 233.0546875 l 5
 249.412109375 233.0546875 l 5
 197.974609375 75.94921875 l 5
 228.065429688 61.5146484375 277.356445312 52.830078125 300.056640625 30.40625 c 5
 288.064453125 1.5224609375 268.815429688 -13.84375 261.7265625 -30.37109375 c 5
 212.962890625 -13.818359375 187.018554688 0.82421875 144.69921875 10.22265625 c 4
 77.0400390625 20.482421875 28.875 -4.013671875 0 -29.421875 c 5
 3.923828125 12.154296875 134.208984375 80.3037109375 169.248046875 81.81640625 c 5
 373.529296875 681.400390625 l 5
 414.956054688 744.974609375 231.100585938 734.224609375 210.705078125 651.62109375 c 5
 203.13671875 710.446289062 299.434570312 781.638671875 355.962890625 785.72265625 c 4
 358.612304688 785.9140625 361.240234375 786.00390625 363.84375 786 c 4
402.373046875 688.755859375 m 5
 360.719726562 584.733398438 309.979492188 447.676757812 277.24609375 332.955078125 c 5
 521.333984375 332.955078125 l 5
 498.134765625 432.479492188 402.373046875 688.755859375 402.373046875 688.755859375 c 5
532.392578125 271.056640625 m 5
 261.609375 270.310546875 l 5
 252.03125 241.0546875 l 5
 544.748046875 241.0546875 l 5
 532.392578125 271.056640625 l 5
EndSplineSet
EndUndoOperation
UndoOperation
Index: 11
Type: 1
WasModified: 1
WasOrder2: 0
Layer: 2
Width: 775
VWidth: 0
LBearingChange: 0
UnicodeEnc: 0
InstructionsLength: 0
SplineSet
363.84375 785 m 4
 416.783203125 784.916992188 459.510742188 745.779296875 465.267578125 722.794921875 c 4
 471.306640625 698.6796875 702.06640625 36.3046875 702.06640625 36.3046875 c 6
 716.97265625 -0.15625 742.102539062 32.8369140625 756.35546875 36.861328125 c 5
 740.200195312 4.859375 699.282226562 -25.591796875 665.64453125 -27.880859375 c 4
 638.59375 -29.72265625 602.42578125 7.0341796875 581.435546875 -24.73828125 c 5
 575.372070312 9.2177734375 612.818359375 21.2939453125 630.919921875 30.8046875 c 5
 548.04296875 232.0546875 l 5
 249.412109375 232.0546875 l 5
 197.974609375 74.94921875 l 5
 228.065429688 60.5146484375 277.356445312 51.830078125 300.056640625 29.40625 c 5
 288.064453125 0.5224609375 268.815429688 -14.84375 261.7265625 -31.37109375 c 5
 212.962890625 -14.818359375 187.018554688 -0.17578125 144.69921875 9.22265625 c 4
 77.0400390625 19.482421875 28.875 -5.013671875 0 -30.421875 c 5
 3.923828125 11.154296875 134.208984375 79.3037109375 169.248046875 80.81640625 c 5
 373.529296875 680.400390625 l 5
 414.956054688 743.974609375 231.100585938 733.224609375 210.705078125 650.62109375 c 5
 203.13671875 709.446289062 299.434570312 780.638671875 355.962890625 784.72265625 c 4
 358.612304688 784.9140625 361.240234375 785.00390625 363.84375 785 c 4
402.373046875 687.755859375 m 5
 360.719726562 583.733398438 309.979492188 446.676757812 277.24609375 331.955078125 c 5
 521.333984375 331.955078125 l 5
 498.134765625 431.479492188 402.373046875 687.755859375 402.373046875 687.755859375 c 5
532.392578125 270.056640625 m 5
 261.609375 269.310546875 l 5
 252.03125 240.0546875 l 5
 544.748046875 240.0546875 l 5
 532.392578125 270.056640625 l 5
EndSplineSet
EndUndoOperation
UndoOperation
Index: 12
Type: 1
WasModified: 1
WasOrder2: 0
Layer: 2
Width: 775
VWidth: 0
LBearingChange: 0
UnicodeEnc: 0
InstructionsLength: 0
SplineSet
363.84375 784 m 4
 416.783203125 783.916992188 459.510742188 744.779296875 465.267578125 721.794921875 c 4
 471.306640625 697.6796875 702.06640625 35.3046875 702.06640625 35.3046875 c 6
 716.97265625 -1.15625 742.102539062 31.8369140625 756.35546875 35.861328125 c 5
 740.200195312 3.859375 699.282226562 -26.591796875 665.64453125 -28.880859375 c 4
 638.59375 -30.72265625 602.42578125 6.0341796875 581.435546875 -25.73828125 c 5
 575.372070312 8.2177734375 612.818359375 20.2939453125 630.919921875 29.8046875 c 5
 548.04296875 231.0546875 l 5
 249.412109375 231.0546875 l 5
 197.974609375 73.94921875 l 5
 228.065429688 59.5146484375 277.356445312 50.830078125 300.056640625 28.40625 c 5
 288.064453125 -0.4775390625 268.815429688 -15.84375 261.7265625 -32.37109375 c 5
 212.962890625 -15.818359375 187.018554688 -1.17578125 144.69921875 8.22265625 c 4
 77.0400390625 18.482421875 28.875 -6.013671875 0 -31.421875 c 5
 3.923828125 10.154296875 134.208984375 78.3037109375 169.248046875 79.81640625 c 5
 373.529296875 679.400390625 l 5
 414.956054688 742.974609375 231.100585938 732.224609375 210.705078125 649.62109375 c 5
 203.13671875 708.446289062 299.434570312 779.638671875 355.962890625 783.72265625 c 4
 358.612304688 783.9140625 361.240234375 784.00390625 363.84375 784 c 4
402.373046875 686.755859375 m 5
 360.719726562 582.733398438 309.979492188 445.676757812 277.24609375 330.955078125 c 5
 521.333984375 330.955078125 l 5
 498.134765625 430.479492188 402.373046875 686.755859375 402.373046875 686.755859375 c 5
532.392578125 269.056640625 m 5
 261.609375 268.310546875 l 5
 252.03125 239.0546875 l 5
 544.748046875 239.0546875 l 5
 532.392578125 269.056640625 l 5
EndSplineSet
EndUndoOperation
UndoOperation
Index: 13
Type: 1
WasModified: 1
WasOrder2: 0
Layer: 2
Width: 775
VWidth: 0
LBearingChange: 0
UnicodeEnc: 0
InstructionsLength: 0
SplineSet
363.84375 783 m 4
 416.783203125 782.916992188 459.510742188 743.779296875 465.267578125 720.794921875 c 4
 471.306640625 696.6796875 702.06640625 34.3046875 702.06640625 34.3046875 c 6
 716.97265625 -2.15625 742.102539062 30.8369140625 756.35546875 34.861328125 c 5
 740.200195312 2.859375 699.282226562 -27.591796875 665.64453125 -29.880859375 c 4
 638.59375 -31.72265625 602.42578125 5.0341796875 581.435546875 -26.73828125 c 5
 575.372070312 7.2177734375 612.818359375 19.2939453125 630.919921875 28.8046875 c 5
 548.04296875 230.0546875 l 5
 249.412109375 230.0546875 l 5
 197.974609375 72.94921875 l 5
 228.065429688 58.5146484375 277.356445312 49.830078125 300.056640625 27.40625 c 5
 288.064453125 -1.4775390625 268.815429688 -16.84375 261.7265625 -33.37109375 c 5
 212.962890625 -16.818359375 187.018554688 -2.17578125 144.69921875 7.22265625 c 4
 77.0400390625 17.482421875 28.875 -7.013671875 0 -32.421875 c 5
 3.923828125 9.154296875 134.208984375 77.3037109375 169.248046875 78.81640625 c 5
 373.529296875 678.400390625 l 5
 414.956054688 741.974609375 231.100585938 731.224609375 210.705078125 648.62109375 c 5
 203.13671875 707.446289062 299.434570312 778.638671875 355.962890625 782.72265625 c 4
 358.612304688 782.9140625 361.240234375 783.00390625 363.84375 783 c 4
402.373046875 685.755859375 m 5
 360.719726562 581.733398438 309.979492188 444.676757812 277.24609375 329.955078125 c 5
 521.333984375 329.955078125 l 5
 498.134765625 429.479492188 402.373046875 685.755859375 402.373046875 685.755859375 c 5
532.392578125 268.056640625 m 5
 261.609375 267.310546875 l 5
 252.03125 238.0546875 l 5
 544.748046875 238.0546875 l 5
 532.392578125 268.056640625 l 5
EndSplineSet
EndUndoOperation
UndoOperation
Index: 14
Type: 1
WasModified: 1
WasOrder2: 0
Layer: 2
Width: 775
VWidth: 0
LBearingChange: 0
UnicodeEnc: 0
InstructionsLength: 0
SplineSet
363.84375 782 m 4
 416.783203125 781.916992188 459.510742188 742.779296875 465.267578125 719.794921875 c 4
 471.306640625 695.6796875 702.06640625 33.3046875 702.06640625 33.3046875 c 6
 716.97265625 -3.15625 742.102539062 29.8369140625 756.35546875 33.861328125 c 5
 740.200195312 1.859375 699.282226562 -28.591796875 665.64453125 -30.880859375 c 4
 638.59375 -32.72265625 602.42578125 4.0341796875 581.435546875 -27.73828125 c 5
 575.372070312 6.2177734375 612.818359375 18.2939453125 630.919921875 27.8046875 c 5
 548.04296875 229.0546875 l 5
 249.412109375 229.0546875 l 5
 197.974609375 71.94921875 l 5
 228.065429688 57.5146484375 277.356445312 48.830078125 300.056640625 26.40625 c 5
 288.064453125 -2.4775390625 268.815429688 -17.84375 261.7265625 -34.37109375 c 5
 212.962890625 -17.818359375 187.018554688 -3.17578125 144.69921875 6.22265625 c 4
 77.0400390625 16.482421875 28.875 -8.013671875 0 -33.421875 c 5
 3.923828125 8.154296875 134.208984375 76.3037109375 169.248046875 77.81640625 c 5
 373.529296875 677.400390625 l 5
 414.956054688 740.974609375 231.100585938 730.224609375 210.705078125 647.62109375 c 5
 203.13671875 706.446289062 299.434570312 777.638671875 355.962890625 781.72265625 c 4
 358.612304688 781.9140625 361.240234375 782.00390625 363.84375 782 c 4
402.373046875 684.755859375 m 5
 360.719726562 580.733398438 309.979492188 443.676757812 277.24609375 328.955078125 c 5
 521.333984375 328.955078125 l 5
 498.134765625 428.479492188 402.373046875 684.755859375 402.373046875 684.755859375 c 5
532.392578125 267.056640625 m 5
 261.609375 266.310546875 l 5
 252.03125 237.0546875 l 5
 544.748046875 237.0546875 l 5
 532.392578125 267.056640625 l 5
EndSplineSet
EndUndoOperation
UndoOperation
Index: 15
Type: 1
WasModified: 1
WasOrder2: 0
Layer: 2
Width: 775
VWidth: 0
LBearingChange: 0
UnicodeEnc: 0
InstructionsLength: 0
SplineSet
363.84375 781 m 4
 416.783203125 780.916992188 459.510742188 741.779296875 465.267578125 718.794921875 c 4
 471.306640625 694.6796875 702.06640625 32.3046875 702.06640625 32.3046875 c 6
 716.97265625 -4.15625 742.102539062 28.8369140625 756.35546875 32.861328125 c 5
 740.200195312 0.859375 699.282226562 -29.591796875 665.64453125 -31.880859375 c 4
 638.59375 -33.72265625 602.42578125 3.0341796875 581.435546875 -28.73828125 c 5
 575.372070312 5.2177734375 612.818359375 17.2939453125 630.919921875 26.8046875 c 5
 548.04296875 228.0546875 l 5
 249.412109375 228.0546875 l 5
 197.974609375 70.94921875 l 5
 228.065429688 56.5146484375 277.356445312 47.830078125 300.056640625 25.40625 c 5
 288.064453125 -3.4775390625 268.815429688 -18.84375 261.7265625 -35.37109375 c 5
 212.962890625 -18.818359375 187.018554688 -4.17578125 144.69921875 5.22265625 c 4
 77.0400390625 15.482421875 28.875 -9.013671875 0 -34.421875 c 5
 3.923828125 7.154296875 134.208984375 75.3037109375 169.248046875 76.81640625 c 5
 373.529296875 676.400390625 l 5
 414.956054688 739.974609375 231.100585938 729.224609375 210.705078125 646.62109375 c 5
 203.13671875 705.446289062 299.434570312 776.638671875 355.962890625 780.72265625 c 4
 358.612304688 780.9140625 361.240234375 781.00390625 363.84375 781 c 4
402.373046875 683.755859375 m 5
 360.719726562 579.733398438 309.979492188 442.676757812 277.24609375 327.955078125 c 5
 521.333984375 327.955078125 l 5
 498.134765625 427.479492188 402.373046875 683.755859375 402.373046875 683.755859375 c 5
532.392578125 266.056640625 m 5
 261.609375 265.310546875 l 5
 252.03125 236.0546875 l 5
 544.748046875 236.0546875 l 5
 532.392578125 266.056640625 l 5
EndSplineSet
EndUndoOperation
UndoOperation
Index: 16
Type: 1
WasModified: 1
WasOrder2: 0
Layer: 2
Width: 775
VWidth: 0
LBearingChange: 0
UnicodeEnc: 0
InstructionsLength: 0
SplineSet
363.84375 780 m 4
 416.783203125 779.916992188 459.510742188 740.779296875 465.267578125 717.794921875 c 4
 471.306640625 693.6796875 702.06640625 31.3046875 702.06640625 31.3046875 c 6
 716.97265625 -5.15625 742.102539062 27.8369140625 756.35546875 31.861328125 c 5
 740.200195312 -0.140625 699.282226562 -30.591796875 665.64453125 -32.880859375 c 4
 638.59375 -34.72265625 602.42578125 2.0341796875 581.435546875 -29.73828125 c 5
 575.372070312 4.2177734375 612.818359375 16.2939453125 630.919921875 25.8046875 c 5
 548.04296875 227.0546875 l 5
 249.412109375 227.0546875 l 5
 197.974609375 69.94921875 l 5
 228.065429688 55.5146484375 277.356445312 46.830078125 300.056640625 24.40625 c 5
 288.064453125 -4.4775390625 268.815429688 -19.84375 261.7265625 -36.37109375 c 5
 212.962890625 -19.818359375 187.018554688 -5.17578125 144.69921875 4.22265625 c 4
 77.0400390625 14.482421875 28.875 -10.013671875 0 -35.421875 c 5
 3.923828125 6.154296875 134.208984375 74.3037109375 169.248046875 75.81640625 c 5
 373.529296875 675.400390625 l 5
 414.956054688 738.974609375 231.100585938 728.224609375 210.705078125 645.62109375 c 5
 203.13671875 704.446289062 299.434570312 775.638671875 355.962890625 779.72265625 c 4
 358.612304688 779.9140625 361.240234375 780.00390625 363.84375 780 c 4
402.373046875 682.755859375 m 5
 360.719726562 578.733398438 309.979492188 441.676757812 277.24609375 326.955078125 c 5
 521.333984375 326.955078125 l 5
 498.134765625 426.479492188 402.373046875 682.755859375 402.373046875 682.755859375 c 5
532.392578125 265.056640625 m 5
 261.609375 264.310546875 l 5
 252.03125 235.0546875 l 5
 544.748046875 235.0546875 l 5
 532.392578125 265.056640625 l 5
EndSplineSet
EndUndoOperation
UndoOperation
Index: 17
Type: 1
WasModified: 1
WasOrder2: 0
Layer: 2
Width: 775
VWidth: 0
LBearingChange: 0
UnicodeEnc: 0
InstructionsLength: 0
SplineSet
363.84375 779 m 4
 416.783203125 778.916992188 459.510742188 739.779296875 465.267578125 716.794921875 c 4
 471.306640625 692.6796875 702.06640625 30.3046875 702.06640625 30.3046875 c 6
 716.97265625 -6.15625 742.102539062 26.8369140625 756.35546875 30.861328125 c 5
 740.200195312 -1.140625 699.282226562 -31.591796875 665.64453125 -33.880859375 c 4
 638.59375 -35.72265625 602.42578125 1.0341796875 581.435546875 -30.73828125 c 5
 575.372070312 3.2177734375 612.818359375 15.2939453125 630.919921875 24.8046875 c 5
 548.04296875 226.0546875 l 5
 249.412109375 226.0546875 l 5
 197.974609375 68.94921875 l 5
 228.065429688 54.5146484375 277.356445312 45.830078125 300.056640625 23.40625 c 5
 288.064453125 -5.4775390625 268.815429688 -20.84375 261.7265625 -37.37109375 c 5
 212.962890625 -20.818359375 187.018554688 -6.17578125 144.69921875 3.22265625 c 4
 77.0400390625 13.482421875 28.875 -11.013671875 0 -36.421875 c 5
 3.923828125 5.154296875 134.208984375 73.3037109375 169.248046875 74.81640625 c 5
 373.529296875 674.400390625 l 5
 414.956054688 737.974609375 231.100585938 727.224609375 210.705078125 644.62109375 c 5
 203.13671875 703.446289062 299.434570312 774.638671875 355.962890625 778.72265625 c 4
 358.612304688 778.9140625 361.240234375 779.00390625 363.84375 779 c 4
402.373046875 681.755859375 m 5
 360.719726562 577.733398438 309.979492188 440.676757812 277.24609375 325.955078125 c 5
 521.333984375 325.955078125 l 5
 498.134765625 425.479492188 402.373046875 681.755859375 402.373046875 681.755859375 c 5
532.392578125 264.056640625 m 5
 261.609375 263.310546875 l 5
 252.03125 234.0546875 l 5
 544.748046875 234.0546875 l 5
 532.392578125 264.056640625 l 5
EndSplineSet
EndUndoOperation
UndoOperation
Index: 18
Type: 1
WasModified: 1
WasOrder2: 0
Layer: 2
Width: 775
VWidth: 0
LBearingChange: 0
UnicodeEnc: 0
InstructionsLength: 0
SplineSet
363.84375 778 m 4
 416.783203125 777.916992188 459.510742188 738.779296875 465.267578125 715.794921875 c 4
 471.306640625 691.6796875 702.06640625 29.3046875 702.06640625 29.3046875 c 6
 716.97265625 -7.15625 742.102539062 25.8369140625 756.35546875 29.861328125 c 5
 740.200195312 -2.140625 699.282226562 -32.591796875 665.64453125 -34.880859375 c 4
 638.59375 -36.72265625 602.42578125 0.0341796875 581.435546875 -31.73828125 c 5
 575.372070312 2.2177734375 612.818359375 14.2939453125 630.919921875 23.8046875 c 5
 548.04296875 225.0546875 l 5
 249.412109375 225.0546875 l 5
 197.974609375 67.94921875 l 5
 228.065429688 53.5146484375 277.356445312 44.830078125 300.056640625 22.40625 c 5
 288.064453125 -6.4775390625 268.815429688 -21.84375 261.7265625 -38.37109375 c 5
 212.962890625 -21.818359375 187.018554688 -7.17578125 144.69921875 2.22265625 c 4
 77.0400390625 12.482421875 28.875 -12.013671875 0 -37.421875 c 5
 3.923828125 4.154296875 134.208984375 72.3037109375 169.248046875 73.81640625 c 5
 373.529296875 673.400390625 l 5
 414.956054688 736.974609375 231.100585938 726.224609375 210.705078125 643.62109375 c 5
 203.13671875 702.446289062 299.434570312 773.638671875 355.962890625 777.72265625 c 4
 358.612304688 777.9140625 361.240234375 778.00390625 363.84375 778 c 4
402.373046875 680.755859375 m 5
 360.719726562 576.733398438 309.979492188 439.676757812 277.24609375 324.955078125 c 5
 521.333984375 324.955078125 l 5
 498.134765625 424.479492188 402.373046875 680.755859375 402.373046875 680.755859375 c 5
532.392578125 263.056640625 m 5
 261.609375 262.310546875 l 5
 252.03125 233.0546875 l 5
 544.748046875 233.0546875 l 5
 532.392578125 263.056640625 l 5
EndSplineSet
EndUndoOperation
UndoOperation
Index: 19
Type: 1
WasModified: 1
WasOrder2: 0
Layer: 2
Width: 775
VWidth: 0
LBearingChange: 0
UnicodeEnc: 0
InstructionsLength: 0
SplineSet
363.84375 777 m 4
 416.783203125 776.916992188 459.510742188 737.779296875 465.267578125 714.794921875 c 4
 471.306640625 690.6796875 702.06640625 28.3046875 702.06640625 28.3046875 c 6
 716.97265625 -8.15625 742.102539062 24.8369140625 756.35546875 28.861328125 c 5
 740.200195312 -3.140625 699.282226562 -33.591796875 665.64453125 -35.880859375 c 4
 638.59375 -37.72265625 602.42578125 -0.9658203125 581.435546875 -32.73828125 c 5
 575.372070312 1.2177734375 612.818359375 13.2939453125 630.919921875 22.8046875 c 5
 548.04296875 224.0546875 l 5
 249.412109375 224.0546875 l 5
 197.974609375 66.94921875 l 5
 228.065429688 52.5146484375 277.356445312 43.830078125 300.056640625 21.40625 c 5
 288.064453125 -7.4775390625 268.815429688 -22.84375 261.7265625 -39.37109375 c 5
 212.962890625 -22.818359375 187.018554688 -8.17578125 144.69921875 1.22265625 c 4
 77.0400390625 11.482421875 28.875 -13.013671875 0 -38.421875 c 5
 3.923828125 3.154296875 134.208984375 71.3037109375 169.248046875 72.81640625 c 5
 373.529296875 672.400390625 l 5
 414.956054688 735.974609375 231.100585938 725.224609375 210.705078125 642.62109375 c 5
 203.13671875 701.446289062 299.434570312 772.638671875 355.962890625 776.72265625 c 4
 358.612304688 776.9140625 361.240234375 777.00390625 363.84375 777 c 4
402.373046875 679.755859375 m 5
 360.719726562 575.733398438 309.979492188 438.676757812 277.24609375 323.955078125 c 5
 521.333984375 323.955078125 l 5
 498.134765625 423.479492188 402.373046875 679.755859375 402.373046875 679.755859375 c 5
532.392578125 262.056640625 m 5
 261.609375 261.310546875 l 5
 252.03125 232.0546875 l 5
 544.748046875 232.0546875 l 5
 532.392578125 262.056640625 l 5
EndSplineSet
EndUndoOperation
UndoOperation
Index: 20
Type: 1
WasModified: 1
WasOrder2: 0
Layer: 2
Width: 775
VWidth: 0
LBearingChange: 0
UnicodeEnc: 0
InstructionsLength: 0
SplineSet
363.84375 776 m 4
 416.783203125 775.916992188 459.510742188 736.779296875 465.267578125 713.794921875 c 4
 471.306640625 689.6796875 702.06640625 27.3046875 702.06640625 27.3046875 c 6
 716.97265625 -9.15625 742.102539062 23.8369140625 756.35546875 27.861328125 c 5
 740.200195312 -4.140625 699.282226562 -34.591796875 665.64453125 -36.880859375 c 4
 638.59375 -38.72265625 602.42578125 -1.9658203125 581.435546875 -33.73828125 c 5
 575.372070312 0.2177734375 612.818359375 12.2939453125 630.919921875 21.8046875 c 5
 548.04296875 223.0546875 l 5
 249.412109375 223.0546875 l 5
 197.974609375 65.94921875 l 5
 228.065429688 51.5146484375 277.356445312 42.830078125 300.056640625 20.40625 c 5
 288.064453125 -8.4775390625 268.815429688 -23.84375 261.7265625 -40.37109375 c 5
 212.962890625 -23.818359375 187.018554688 -9.17578125 144.69921875 0.22265625 c 4
 77.0400390625 10.482421875 28.875 -14.013671875 0 -39.421875 c 5
 3.923828125 2.154296875 134.208984375 70.3037109375 169.248046875 71.81640625 c 5
 373.529296875 671.400390625 l 5
 414.956054688 734.974609375 231.100585938 724.224609375 210.705078125 641.62109375 c 5
 203.13671875 700.446289062 299.434570312 771.638671875 355.962890625 775.72265625 c 4
 358.612304688 775.9140625 361.240234375 776.00390625 363.84375 776 c 4
402.373046875 678.755859375 m 5
 360.719726562 574.733398438 309.979492188 437.676757812 277.24609375 322.955078125 c 5
 521.333984375 322.955078125 l 5
 498.134765625 422.479492188 402.373046875 678.755859375 402.373046875 678.755859375 c 5
532.392578125 261.056640625 m 5
 261.609375 260.310546875 l 5
 252.03125 231.0546875 l 5
 544.748046875 231.0546875 l 5
 532.392578125 261.056640625 l 5
EndSplineSet
EndUndoOperation
UndoOperation
Index: 21
Type: 1
WasModified: 1
WasOrder2: 0
Layer: 2
Width: 775
VWidth: 0
LBearingChange: 0
UnicodeEnc: 0
InstructionsLength: 0
SplineSet
363.84375 775 m 4
 416.783203125 774.916992188 459.510742188 735.779296875 465.267578125 712.794921875 c 4
 471.306640625 688.6796875 702.06640625 26.3046875 702.06640625 26.3046875 c 6
 716.97265625 -10.15625 742.102539062 22.8369140625 756.35546875 26.861328125 c 5
 740.200195312 -5.140625 699.282226562 -35.591796875 665.64453125 -37.880859375 c 4
 638.59375 -39.72265625 602.42578125 -2.9658203125 581.435546875 -34.73828125 c 5
 575.372070312 -0.7822265625 612.818359375 11.2939453125 630.919921875 20.8046875 c 5
 548.04296875 222.0546875 l 5
 249.412109375 222.0546875 l 5
 197.974609375 64.94921875 l 5
 228.065429688 50.5146484375 277.356445312 41.830078125 300.056640625 19.40625 c 5
 288.064453125 -9.4775390625 268.815429688 -24.84375 261.7265625 -41.37109375 c 5
 212.962890625 -24.818359375 187.018554688 -10.17578125 144.69921875 -0.77734375 c 4
 77.0400390625 9.482421875 28.875 -15.013671875 0 -40.421875 c 5
 3.923828125 1.154296875 134.208984375 69.3037109375 169.248046875 70.81640625 c 5
 373.529296875 670.400390625 l 5
 414.956054688 733.974609375 231.100585938 723.224609375 210.705078125 640.62109375 c 5
 203.13671875 699.446289062 299.434570312 770.638671875 355.962890625 774.72265625 c 4
 358.612304688 774.9140625 361.240234375 775.00390625 363.84375 775 c 4
402.373046875 677.755859375 m 5
 360.719726562 573.733398438 309.979492188 436.676757812 277.24609375 321.955078125 c 5
 521.333984375 321.955078125 l 5
 498.134765625 421.479492188 402.373046875 677.755859375 402.373046875 677.755859375 c 5
532.392578125 260.056640625 m 5
 261.609375 259.310546875 l 5
 252.03125 230.0546875 l 5
 544.748046875 230.0546875 l 5
 532.392578125 260.056640625 l 5
EndSplineSet
EndUndoOperation
UndoOperation
Index: 22
Type: 1
WasModified: 1
WasOrder2: 0
Layer: 2
Width: 775
VWidth: 0
LBearingChange: 0
UnicodeEnc: 0
InstructionsLength: 0
SplineSet
363.84375 774 m 4
 416.783203125 773.916992188 459.510742188 734.779296875 465.267578125 711.794921875 c 4
 471.306640625 687.6796875 702.06640625 25.3046875 702.06640625 25.3046875 c 6
 716.97265625 -11.15625 742.102539062 21.8369140625 756.35546875 25.861328125 c 5
 740.200195312 -6.140625 699.282226562 -36.591796875 665.64453125 -38.880859375 c 4
 638.59375 -40.72265625 602.42578125 -3.9658203125 581.435546875 -35.73828125 c 5
 575.372070312 -1.7822265625 612.818359375 10.2939453125 630.919921875 19.8046875 c 5
 548.04296875 221.0546875 l 5
 249.412109375 221.0546875 l 5
 197.974609375 63.94921875 l 5
 228.065429688 49.5146484375 277.356445312 40.830078125 300.056640625 18.40625 c 5
 288.064453125 -10.4775390625 268.815429688 -25.84375 261.7265625 -42.37109375 c 5
 212.962890625 -25.818359375 187.018554688 -11.17578125 144.69921875 -1.77734375 c 4
 77.0400390625 8.482421875 28.875 -16.013671875 0 -41.421875 c 5
 3.923828125 0.154296875 134.208984375 68.3037109375 169.248046875 69.81640625 c 5
 373.529296875 669.400390625 l 5
 414.956054688 732.974609375 231.100585938 722.224609375 210.705078125 639.62109375 c 5
 203.13671875 698.446289062 299.434570312 769.638671875 355.962890625 773.72265625 c 4
 358.612304688 773.9140625 361.240234375 774.00390625 363.84375 774 c 4
402.373046875 676.755859375 m 5
 360.719726562 572.733398438 309.979492188 435.676757812 277.24609375 320.955078125 c 5
 521.333984375 320.955078125 l 5
 498.134765625 420.479492188 402.373046875 676.755859375 402.373046875 676.755859375 c 5
532.392578125 259.056640625 m 5
 261.609375 258.310546875 l 5
 252.03125 229.0546875 l 5
 544.748046875 229.0546875 l 5
 532.392578125 259.056640625 l 5
EndSplineSet
EndUndoOperation
UndoOperation
Index: 23
Type: 1
WasModified: 1
WasOrder2: 0
Layer: 2
Width: 775
VWidth: 0
LBearingChange: 0
UnicodeEnc: 0
InstructionsLength: 0
EndUndoOperation
UndoOperation
Index: 24
Type: 3
WasModified: 1
WasOrder2: 0
Layer: 2
EndUndoOperation
UndoOperation
Index: 25
Type: 1
WasModified: 0
WasOrder2: 0
Layer: 2
Width: 775
VWidth: 0
LBearingChange: 0
UnicodeEnc: 0
InstructionsLength: 0
SplineSet
361.235351562 818.97265625 m 4
 415.375 820.205078125 459.41796875 780.155273438 465.26953125 756.793945312 c 4
 471.30859375 732.678710938 702.067382812 70.3037109375 702.067382812 70.3037109375 c 6
 716.973632812 33.8427734375 742.104492188 66.8369140625 756.357421875 70.8603515625 c 5
 740.202148438 38.8583984375 699.283203125 8.40625 665.645507812 6.1171875 c 4
 638.594726562 4.2763671875 602.426757812 41.033203125 581.436523438 9.2607421875 c 5
 575.373046875 43.216796875 612.819335938 55.2919921875 630.920898438 64.802734375 c 5
 544.88671875 273.717773438 l 5
 251.920898438 273.717773438 l 5
 197.975585938 108.947265625 l 5
 228.06640625 94.5126953125 277.356445312 85.828125 300.056640625 63.404296875 c 5
 288.065429688 34.5205078125 268.81640625 19.1552734375 261.728515625 2.6279296875 c 5
 212.96484375 19.1806640625 187.01953125 33.822265625 144.701171875 43.220703125 c 4
 77.0419921875 53.48046875 28.875 28.98828125 0 3.580078125 c 5
 3.923828125 45.1572265625 134.2109375 113.303710938 169.25 114.81640625 c 5
 373.530273438 714.400390625 l 5
 414.95703125 777.974609375 231.1015625 767.223632812 210.706054688 684.620117188 c 5
 203.137695312 743.4453125 299.435546875 814.637695312 355.963867188 818.721679688 c 4
 357.73046875 818.849609375 359.489257812 818.932617188 361.235351562 818.97265625 c 4
402.373046875 721.75390625 m 5
 360.719726562 617.732421875 309.979492188 480.67578125 277.24609375 365.954101562 c 5
 521.333984375 365.954101562 l 5
 498.134765625 465.478515625 402.373046875 721.75390625 402.373046875 721.75390625 c 5
532.39453125 304.0546875 m 5
 261.610351562 303.309570312 l 5
 256.0703125 286.389648438 l 5
 539.66796875 286.389648438 l 5
 532.39453125 304.0546875 l 5
EndSplineSet
EndUndoOperation
UndoOperation
Index: 26
Type: 1
WasModified: 1
WasOrder2: 0
Layer: 2
Width: 1024
VWidth: 0
LBearingChange: 0
UnicodeEnc: 0
InstructionsLength: 0
SplineSet
361.235351562 818.97265625 m 0
 415.375 820.205078125 459.41796875 780.155273438 465.26953125 756.793945312 c 0
 471.30859375 732.678710938 702.067382812 70.3037109375 702.067382812 70.3037109375 c 2
 716.973632812 33.8427734375 742.104492188 66.8369140625 756.357421875 70.8603515625 c 1
 740.202148438 38.8583984375 699.283203125 8.40625 665.645507812 6.1171875 c 0
 638.594726562 4.2763671875 602.426757812 41.033203125 581.436523438 9.2607421875 c 1
 575.373046875 43.216796875 612.819335938 55.2919921875 630.920898438 64.802734375 c 1
 544.88671875 273.717773438 l 1
 251.920898438 273.717773438 l 1
 197.975585938 108.947265625 l 1
 228.06640625 94.5126953125 277.356445312 85.828125 300.056640625 63.404296875 c 1
 288.065429688 34.5205078125 268.81640625 19.1552734375 261.728515625 2.6279296875 c 1
 212.96484375 19.1806640625 187.01953125 33.822265625 144.701171875 43.220703125 c 0
 77.0419921875 53.48046875 28.875 28.98828125 0 3.580078125 c 1
 3.923828125 45.1572265625 134.2109375 113.303710938 169.25 114.81640625 c 1
 373.530273438 714.400390625 l 1
 414.95703125 777.974609375 231.1015625 767.223632812 210.706054688 684.620117188 c 1
 203.137695312 743.4453125 299.435546875 814.637695312 355.963867188 818.721679688 c 0
 357.73046875 818.849609375 359.489257812 818.932617188 361.235351562 818.97265625 c 0
402.373046875 721.75390625 m 1
 360.719726562 617.732421875 309.979492188 480.67578125 277.24609375 365.954101562 c 1
 521.333984375 365.954101562 l 1
 498.134765625 465.478515625 402.373046875 721.75390625 402.373046875 721.75390625 c 1
532.39453125 304.0546875 m 1
 261.610351562 303.309570312 l 1
 256.0703125 286.389648438 l 1
 539.66796875 286.389648438 l 1
 532.39453125 304.0546875 l 1
EndSplineSet
EndUndoOperation
EndUndoes
Redoes
EndRedoes
EndUndoRedoHistory
Fore
SplineSet
388.84375 795 m 0
 441.783203125 794.916992188 484.510742188 755.779296875 490.267578125 732.794921875 c 0
 496.306640625 708.6796875 727.06640625 46.3046875 727.06640625 46.3046875 c 2
 741.97265625 9.84375 767.102539062 42.8369140625 781.35546875 46.861328125 c 1
 765.200195312 14.859375 724.282226562 -15.591796875 690.64453125 -17.880859375 c 0
 663.59375 -19.72265625 627.42578125 17.0341796875 606.435546875 -14.73828125 c 1
 600.372070312 19.2177734375 637.818359375 31.2939453125 655.919921875 40.8046875 c 1
 573.04296875 242.0546875 l 1
 274.412109375 242.0546875 l 1
 222.974609375 84.94921875 l 1
 253.065429688 70.5146484375 302.356445312 61.830078125 325.056640625 39.40625 c 1
 313.064453125 10.5224609375 293.815429688 -4.84375 286.7265625 -21.37109375 c 1
 237.962890625 -4.818359375 212.018554688 9.82421875 169.69921875 19.22265625 c 0
 102.040039062 29.482421875 53.875 4.986328125 25 -20.421875 c 1
 28.923828125 21.154296875 159.208984375 89.3037109375 194.248046875 90.81640625 c 1
 398.529296875 690.400390625 l 1
 439.956054688 753.974609375 256.100585938 743.224609375 235.705078125 660.62109375 c 1
 228.13671875 719.446289062 324.434570312 790.638671875 380.962890625 794.72265625 c 0
 383.612304688 794.9140625 386.240234375 795.00390625 388.84375 795 c 0
427.373046875 697.755859375 m 1
 385.719726562 593.733398438 334.979492188 456.676757812 302.24609375 341.955078125 c 1
 546.333984375 341.955078125 l 1
 523.134765625 441.479492188 427.373046875 697.755859375 427.373046875 697.755859375 c 1
557.392578125 280.056640625 m 1
 286.609375 279.310546875 l 1
 277.03125 250.0546875 l 1
 569.748046875 250.0546875 l 1
 557.392578125 280.056640625 l 1
EndSplineSet
EndChar

StartChar: W
Encoding: 87 87 1
Width: 874
VWidth: 0
Flags: HW
LayerCount: 2
UndoRedoHistory
Layer: 1
Undoes
UndoOperation
Index: 0
Type: 7
WasModified: 1
WasOrder2: 0
Layer: 2
Width: 858
EndUndoOperation
UndoOperation
Index: 1
Type: 3
WasModified: 0
WasOrder2: 0
Layer: 2
EndUndoOperation
UndoOperation
Index: 2
Type: 1
WasModified: 1
WasOrder2: 0
Layer: 2
Width: 1024
VWidth: 0
LBearingChange: 0
UnicodeEnc: 0
InstructionsLength: 0
SplineSet
501.31640625 788.41796875 m 1
 493.663085938 765.119140625 485.694335938 737.426757812 484.56640625 721.609375 c 0
 484.337890625 718.403320312 484.237304688 661.48046875 484.1953125 591.109375 c 1
 556.798828125 591.109375 l 1
 556.798828125 760.20703125 l 1
 564.798828125 760.20703125 l 1
 564.798828125 103.21875 l 1
 587.231445312 93.365234375 610.684570312 79.5068359375 635.587890625 62.65234375 c 1
 707.872070312 116.545898438 697.546875 257.172851562 697.546875 316.22265625 c 0
 697.546875 375.272460938 697.0390625 740.33203125 697.0390625 740.33203125 c 2
 696.420898438 758.755859375 680.138671875 772.865234375 677.966796875 786.09375 c 1
 682.856445312 782.811523438 710.509765625 754.077148438 717.306640625 752.263671875 c 0
 730.661132812 756.139648438 748.830078125 774.693359375 771.169921875 788.41796875 c 1
 763.516601562 765.119140625 755.547851562 737.424804688 754.419921875 721.607421875 c 0
 753.846679688 713.563476562 754.056640625 370.658203125 754.056640625 312.484375 c 0
 754.056640625 277.282226562 739.881835938 200.709960938 708.13671875 128.130859375 c 2
 689.28125 86.400390625 l 2
 671.044921875 48.6572265625 641.435546875 22.228515625 589.853515625 0 c 1
 530.875976562 10.4404296875 482.921875 97.087890625 414.025390625 76.142578125 c 1
 395.482421875 43.771484375 366.77734375 20.158203125 320 0 c 1
 252.166992188 12.0068359375 183.083984375 124.858398438 95.779296875 58.83203125 c 1
 90.58984375 85.185546875 127.791992188 104.693359375 154.13671875 121.412109375 c 0
 155.5625 122.40234375 157.078125 123.288085938 158.63671875 124.125 c 2
 158.63671875 712.646484375 l 1
 124.995117188 709.2109375 101.772460938 719.536132812 60.451171875 721.6015625 c 0
 -12.0673828125 725.225585938 -22.779296875 714.854492188 -52.5078125 688.1796875 c 1
 -43.015625 701.491210938 -17.296875 730.783203125 -8.923828125 737.80078125 c 0
 15.8193359375 758.53515625 47.7265625 773.908203125 68.05859375 772.015625 c 0
 108.84375 769.560546875 175.84375 751.21875 215.23828125 786.09375 c 1
 215.23828125 130.21875 l 1
 239.27734375 126.711914062 264.169921875 117.701171875 282.560546875 106.7265625 c 0
 310.979492188 93.203125 330.8515625 73.9248046875 357.21484375 65.07421875 c 1
 357.21484375 760.20703125 l 1
 365.21484375 760.20703125 l 1
 365.21484375 591.109375 l 1
 427.38671875 591.109375 l 1
 427.291992188 663.109375 427.1875 740.33203125 427.1875 740.33203125 c 2
 426.569335938 758.755859375 410.28515625 772.865234375 408.11328125 786.09375 c 1
 413.002929688 782.811523438 440.658203125 754.077148438 447.455078125 752.263671875 c 0
 460.809570312 756.139648438 478.9765625 774.693359375 501.31640625 788.41796875 c 1
112.607421875 629.009765625 m 1
 80.26953125 553.5546875 96.0322265625 480.245117188 99.966796875 390.94921875 c 1
 98.734375 293.583984375 119.526367188 162.514648438 13.595703125 119.181640625 c 1
 56.1279296875 197.703125 37.9453125 278.638671875 34.662109375 367.775390625 c 1
 34.662109375 367.775390625 -1.1572265625 376.203125 -26.4375 359.349609375 c 1
 -24.3310546875 393.057617188 28.33984375 418.337890625 28.33984375 418.337890625 c 1
 35.4443359375 516.375976562 25.0068359375 572.26171875 112.607421875 629.009765625 c 1
365.21484375 583.109375 m 1
 365.21484375 502.23828125 l 1
 427.494140625 502.23828125 l 1
 427.448242188 539.319335938 427.444335938 547.734375 427.3984375 583.109375 c 1
 365.21484375 583.109375 l 1
484.19140625 583.109375 m 1
 484.17578125 554.118164062 484.17578125 532.731445312 484.17578125 502.23828125 c 1
 556.798828125 502.23828125 l 1
 556.798828125 583.109375 l 1
 484.19140625 583.109375 l 1
365.21484375 494.23828125 m 1
 365.21484375 63.90625 l 1
 360.9765625 63.90625 l 2
 362.540039062 63.453125 364.122070312 63.02734375 365.736328125 62.65234375 c 0
 438.020507812 116.545898438 427.6953125 257.172851562 427.6953125 316.22265625 c 0
 427.6953125 338.665039062 427.592773438 420.233398438 427.501953125 494.23828125 c 1
 365.21484375 494.23828125 l 1
484.17578125 494.23828125 m 1
 484.178710938 418.033203125 484.205078125 336.153320312 484.205078125 312.484375 c 0
 484.205078125 277.282226562 470.030273438 200.709960938 438.28515625 128.130859375 c 2
 424.400390625 97.404296875 l 1
 466.848632812 125.649414062 509.626953125 125.455078125 556.798828125 106.580078125 c 1
 556.798828125 494.23828125 l 1
 484.17578125 494.23828125 l 1
EndSplineSet
EndUndoOperation
EndUndoes
Redoes
EndRedoes
EndUndoRedoHistory
Fore
SplineSet
578.82421875 788.41796875 m 1
 571.170898438 765.119140625 563.202148438 737.426757812 562.07421875 721.609375 c 0
 561.845703125 718.403320312 561.745117188 661.48046875 561.703125 591.109375 c 1
 634.306640625 591.109375 l 1
 634.306640625 760.20703125 l 1
 642.306640625 760.20703125 l 1
 642.306640625 103.21875 l 1
 664.739257812 93.365234375 688.192382812 79.5068359375 713.095703125 62.65234375 c 1
 785.379882812 116.545898438 775.0546875 257.172851562 775.0546875 316.22265625 c 0
 775.0546875 375.272460938 774.546875 740.33203125 774.546875 740.33203125 c 2
 773.928710938 758.755859375 757.646484375 772.865234375 755.474609375 786.09375 c 1
 760.364257812 782.811523438 788.017578125 754.077148438 794.814453125 752.263671875 c 0
 808.168945312 756.139648438 826.337890625 774.693359375 848.677734375 788.41796875 c 1
 841.024414062 765.119140625 833.055664062 737.424804688 831.927734375 721.607421875 c 0
 831.354492188 713.563476562 831.564453125 370.658203125 831.564453125 312.484375 c 0
 831.564453125 277.282226562 817.389648438 200.709960938 785.64453125 128.130859375 c 2
 766.7890625 86.400390625 l 2
 748.552734375 48.6572265625 718.943359375 22.228515625 667.361328125 0 c 1
 608.383789062 10.4404296875 560.4296875 97.087890625 491.533203125 76.142578125 c 1
 472.990234375 43.771484375 444.28515625 20.158203125 397.5078125 0 c 1
 329.674804688 12.0068359375 260.591796875 124.858398438 173.287109375 58.83203125 c 1
 168.09765625 85.185546875 205.299804688 104.693359375 231.64453125 121.412109375 c 0
 233.0703125 122.40234375 234.5859375 123.288085938 236.14453125 124.125 c 2
 236.14453125 712.646484375 l 1
 202.502929688 709.2109375 179.280273438 719.536132812 137.958984375 721.6015625 c 0
 65.4404296875 725.225585938 54.728515625 714.854492188 25 688.1796875 c 1
 34.4921875 701.491210938 60.2109375 730.783203125 68.583984375 737.80078125 c 0
 93.3271484375 758.53515625 125.234375 773.908203125 145.56640625 772.015625 c 0
 186.3515625 769.560546875 253.3515625 751.21875 292.74609375 786.09375 c 1
 292.74609375 130.21875 l 1
 316.78515625 126.711914062 341.677734375 117.701171875 360.068359375 106.7265625 c 0
 388.487304688 93.203125 408.359375 73.9248046875 434.72265625 65.07421875 c 1
 434.72265625 760.20703125 l 1
 442.72265625 760.20703125 l 1
 442.72265625 591.109375 l 1
 504.89453125 591.109375 l 1
 504.799804688 663.109375 504.6953125 740.33203125 504.6953125 740.33203125 c 2
 504.077148438 758.755859375 487.79296875 772.865234375 485.62109375 786.09375 c 1
 490.510742188 782.811523438 518.166015625 754.077148438 524.962890625 752.263671875 c 0
 538.317382812 756.139648438 556.484375 774.693359375 578.82421875 788.41796875 c 1
190.115234375 629.009765625 m 1
 157.77734375 553.5546875 173.540039062 480.245117188 177.474609375 390.94921875 c 1
 176.2421875 293.583984375 197.034179688 162.514648438 91.103515625 119.181640625 c 1
 133.635742188 197.703125 115.453125 278.638671875 112.169921875 367.775390625 c 1
 112.169921875 367.775390625 76.3505859375 376.203125 51.0703125 359.349609375 c 1
 53.1767578125 393.057617188 105.84765625 418.337890625 105.84765625 418.337890625 c 1
 112.952148438 516.375976562 102.514648438 572.26171875 190.115234375 629.009765625 c 1
442.72265625 583.109375 m 1
 442.72265625 502.23828125 l 1
 505.001953125 502.23828125 l 1
 504.956054688 539.319335938 504.952148438 547.734375 504.90625 583.109375 c 1
 442.72265625 583.109375 l 1
561.69921875 583.109375 m 1
 561.68359375 554.118164062 561.68359375 532.731445312 561.68359375 502.23828125 c 1
 634.306640625 502.23828125 l 1
 634.306640625 583.109375 l 1
 561.69921875 583.109375 l 1
442.72265625 494.23828125 m 1
 442.72265625 63.90625 l 1
 438.484375 63.90625 l 2
 440.047851562 63.453125 441.629882812 63.02734375 443.244140625 62.65234375 c 0
 515.528320312 116.545898438 505.203125 257.172851562 505.203125 316.22265625 c 0
 505.203125 338.665039062 505.100585938 420.233398438 505.009765625 494.23828125 c 1
 442.72265625 494.23828125 l 1
561.68359375 494.23828125 m 1
 561.686523438 418.033203125 561.712890625 336.153320312 561.712890625 312.484375 c 0
 561.712890625 277.282226562 547.538085938 200.709960938 515.79296875 128.130859375 c 2
 501.908203125 97.404296875 l 1
 544.356445312 125.649414062 587.134765625 125.455078125 634.306640625 106.580078125 c 1
 634.306640625 494.23828125 l 1
 561.68359375 494.23828125 l 1
EndSplineSet
EndChar

StartChar: h
Encoding: 104 104 2
Width: 397
VWidth: 0
Flags: HW
LayerCount: 2
UndoRedoHistory
Layer: 1
Undoes
UndoOperation
Index: 0
Type: 7
WasModified: 1
WasOrder2: 0
Layer: 2
Width: 395
EndUndoOperation
UndoOperation
Index: 1
Type: 3
WasModified: 0
WasOrder2: 0
Layer: 2
EndUndoOperation
UndoOperation
Index: 2
Type: 7
WasModified: 1
WasOrder2: 0
Layer: 2
Width: 405
EndUndoOperation
EndUndoes
Redoes
EndRedoes
EndUndoRedoHistory
Fore
SplineSet
135.36328125 819 m 1
 126.490234375 792.471679688 111.5546875 760.040039062 111.930664062 746.916015625 c 0
 110.19921875 655.705078125 113.435546875 545.704101562 111.930664062 442.505859375 c 1
 248.590820312 558.0078125 l 1
 293.850585938 517.186523438 329.4296875 480.04296875 371.626953125 435.931640625 c 1
 357.700195312 419.731445312 341.830078125 412.198242188 341.9140625 382.548828125 c 0
 342.993164062 300.534179688 340.12109375 171.629882812 341.9140625 77.71484375 c 0
 341.9140625 30.17578125 220.732421875 -48.82421875 186.879882812 -64.2314453125 c 1
 222.3046875 -26.4951171875 289.165039062 19.5693359375 287.619140625 68.4970703125 c 0
 287.04296875 173.212890625 285.602539062 302.077148438 287.619140625 417.9296875 c 0
 288.018554688 450.934570312 240.254882812 479.03125 218.365234375 499.5859375 c 1
 111.930664062 411.59375 l 1
 112.858398438 317.883789062 107.541992188 194.873046875 111.887695312 93.6640625 c 1
 125.646484375 79.9775390625 140.14453125 67.447265625 144.032226562 67.447265625 c 1
 136.112304688 67.447265625 84.8916015625 16.2275390625 84.8916015625 8.3076171875 c 1
 84.8916015625 16.2275390625 32.919921875 68.2021484375 25 68.2021484375 c 1
 28.740234375 68.2021484375 42.1337890625 79.64453125 55.232421875 92.53515625 c 1
 54.89453125 92.53515625 l 1
 54.89453125 771.7734375 l 2
 54.27734375 789.868164062 44.3330078125 803.727539062 42.1611328125 816.719726562 c 1
 47.05078125 813.49609375 74.7001953125 785.2734375 81.498046875 783.493164062 c 0
 94.8525390625 787.299804688 113.0234375 805.520507812 135.36328125 819 c 1
EndSplineSet
EndChar

StartChar: e
Encoding: 101 101 3
Width: 377
VWidth: 0
Flags: HW
LayerCount: 2
UndoRedoHistory
Layer: 1
Undoes
UndoOperation
Index: 0
Type: 7
WasModified: 1
WasOrder2: 0
Layer: 2
Width: 353
EndUndoOperation
UndoOperation
Index: 1
Type: 3
WasModified: 0
WasOrder2: 0
Layer: 2
EndUndoOperation
UndoOperation
Index: 2
Type: 1
WasModified: 1
WasOrder2: 0
Layer: 2
Width: 325
VWidth: 0
LBearingChange: 0
UnicodeEnc: 0
InstructionsLength: 0
SplineSet
180.01171875 560.197265625 m 5
 233.53125 505.825195312 262.1953125 470.0234375 324.09375 462.287109375 c 5
 318.693359375 450.209960938 299.774414062 434.236328125 294.69140625 429.822265625 c 6
 108.373046875 268.0390625 l 6
 107.498046875 265.490234375 107.091796875 262.75390625 107.25 259.953125 c 4
 107.704101562 251.900390625 112.638671875 244.869140625 120 241.728515625 c 4
 127.361328125 238.587890625 135.78125 239.900390625 141.853515625 245.14453125 c 4
 144.231445312 247.705078125 155.951171875 253.571289062 159.244140625 266.193359375 c 6
 159.244140625 266.193359375 164.745117188 241.327148438 155.416015625 229.4375 c 4
 143.395507812 219.057617188 126.4609375 216.411132812 111.857421875 222.642578125 c 4
 106.352539062 224.991210938 101.528320312 228.454101562 97.603515625 232.703125 c 6
 97.603515625 128.951171875 l 5
 126.30859375 116.951171875 157.658203125 102.547851562 185.390625 88.80859375 c 5
 236.981445312 48.263671875 268.271484375 92.0751953125 321.6328125 98.521484375 c 5
 321.141601562 96.3359375 227.415039062 27.923828125 188.4375 0 c 5
 179.845703125 6.171875 169.859375 14.814453125 159.2578125 22.166015625 c 4
 152.6484375 27.6767578125 145.935546875 32.8046875 139.09375 37.46484375 c 4
 125.41015625 46.7841796875 111.21484375 54.2353515625 96.31640625 59.162109375 c 4
 66.51953125 69.015625 33.916015625 68.765625 -3 53.134765625 c 5
 11.5693359375 79.345703125 47.091796875 91.919921875 48.35546875 126.431640625 c 6
 48.35546875 433.62109375 l 5
 38.392578125 454.413085938 19.5341796875 430.703125 4.3046875 426.529296875 c 5
 13.9140625 447.735351562 40.38671875 462.625 58.81640625 478.365234375 c 4
 92.6884765625 503.006835938 140.798828125 533.8828125 180.01171875 560.197265625 c 5
138.40625 499.34765625 m 6
 138.40625 499.345703125 l 5
 108.584960938 499.520507812 99.90625 469.67578125 97.603515625 439.599609375 c 6
 97.603515625 290.310546875 l 5
 268.931640625 434.3984375 l 5
 228.369140625 439.2265625 176.834960938 471.71875 141.361328125 499.234375 c 4
 140.354492188 499.303710938 139.368164062 499.34765625 138.40625 499.34765625 c 6
EndSplineSet
EndUndoOperation
EndUndoes
Redoes
EndRedoes
EndUndoRedoHistory
Fore
SplineSet
208.01171875 560.197265625 m 1
 261.53125 505.825195312 290.1953125 470.0234375 352.09375 462.287109375 c 1
 346.693359375 450.209960938 327.774414062 434.236328125 322.69140625 429.822265625 c 2
 136.373046875 268.0390625 l 2
 135.498046875 265.490234375 135.091796875 262.75390625 135.25 259.953125 c 0
 135.704101562 251.900390625 140.638671875 244.869140625 148 241.728515625 c 0
 155.361328125 238.587890625 163.78125 239.900390625 169.853515625 245.14453125 c 0
 172.231445312 247.705078125 183.951171875 253.571289062 187.244140625 266.193359375 c 2
 187.244140625 266.193359375 192.745117188 241.327148438 183.416015625 229.4375 c 0
 171.395507812 219.057617188 154.4609375 216.411132812 139.857421875 222.642578125 c 0
 134.352539062 224.991210938 129.528320312 228.454101562 125.603515625 232.703125 c 2
 125.603515625 128.951171875 l 1
 154.30859375 116.951171875 185.658203125 102.547851562 213.390625 88.80859375 c 1
 264.981445312 48.263671875 296.271484375 92.0751953125 349.6328125 98.521484375 c 1
 349.141601562 96.3359375 255.415039062 27.923828125 216.4375 0 c 1
 207.845703125 6.171875 197.859375 14.814453125 187.2578125 22.166015625 c 0
 180.6484375 27.6767578125 173.935546875 32.8046875 167.09375 37.46484375 c 0
 153.41015625 46.7841796875 139.21484375 54.2353515625 124.31640625 59.162109375 c 0
 94.51953125 69.015625 61.916015625 68.765625 25 53.134765625 c 1
 39.5693359375 79.345703125 75.091796875 91.919921875 76.35546875 126.431640625 c 2
 76.35546875 433.62109375 l 1
 66.392578125 454.413085938 47.5341796875 430.703125 32.3046875 426.529296875 c 1
 41.9140625 447.735351562 68.38671875 462.625 86.81640625 478.365234375 c 0
 120.688476562 503.006835938 168.798828125 533.8828125 208.01171875 560.197265625 c 1
166.40625 499.34765625 m 2
 166.40625 499.345703125 l 1
 136.584960938 499.520507812 127.90625 469.67578125 125.603515625 439.599609375 c 2
 125.603515625 290.310546875 l 1
 296.931640625 434.3984375 l 1
 256.369140625 439.2265625 204.834960938 471.71875 169.361328125 499.234375 c 0
 168.354492188 499.303710938 167.368164062 499.34765625 166.40625 499.34765625 c 2
EndSplineSet
EndChar

StartChar: n
Encoding: 110 110 4
Width: 399
VWidth: 0
Flags: HW
LayerCount: 2
UndoRedoHistory
Layer: 1
Undoes
UndoOperation
Index: 0
Type: 7
WasModified: 1
WasOrder2: 0
Layer: 2
Width: 397
EndUndoOperation
UndoOperation
Index: 1
Type: 3
WasModified: 0
WasOrder2: 0
Layer: 2
EndUndoOperation
UndoOperation
Index: 2
Type: 7
WasModified: 1
WasOrder2: 0
Layer: 2
Width: 410
EndUndoOperation
EndUndoes
Redoes
EndRedoes
EndUndoRedoHistory
Fore
SplineSet
248.591796875 549.701171875 m 1
 248.595703125 549.701171875 l 1
 293.85546875 508.879882812 329.434570312 471.736328125 371.630859375 427.625 c 1
 357.705078125 411.424804688 341.833984375 403.891601562 341.91796875 374.2421875 c 0
 342.837890625 304.325195312 340.909179688 179.66796875 341.423828125 86.1484375 c 1
 355.416015625 72.1533203125 370.41015625 59.140625 374.373046875 59.140625 c 1
 366.453125 59.140625 315.232421875 7.919921875 315.232421875 0 c 1
 315.232421875 7.919921875 263.255859375 59.896484375 255.3359375 59.896484375 c 1
 259.245117188 59.896484375 273.704101562 72.3818359375 287.345703125 85.97265625 c 1
 286.712890625 185.700195312 285.874023438 309.133789062 287.623046875 409.623046875 c 0
 288.0234375 442.627929688 240.258789062 470.724609375 218.369140625 491.279296875 c 1
 111.935546875 403.287109375 l 1
 112.862304688 309.578125 107.54296875 186.56640625 111.888671875 85.357421875 c 1
 125.646484375 71.6708984375 140.145507812 59.140625 144.033203125 59.140625 c 1
 136.11328125 59.140625 84.892578125 7.919921875 84.892578125 0 c 1
 84.892578125 7.919921875 32.919921875 59.896484375 25 59.896484375 c 1
 28.740234375 59.896484375 42.1337890625 71.337890625 55.232421875 84.228515625 c 1
 55.0537109375 212.611328125 55.091796875 331.2109375 53.99609375 459.58984375 c 0
 55.419921875 461.036132812 55.61328125 460.475585938 53.99609375 460.6328125 c 2
 52.81640625 496.69921875 l 2
 52.19921875 515.123046875 37.9453125 528.6171875 35.7734375 541.845703125 c 1
 40.6630859375 538.563476562 72.6220703125 510.44140625 79.419921875 508.62890625 c 0
 92.7744140625 512.504882812 101.712890625 529.212890625 124.052734375 542.9375 c 1
 117.3046875 522.393554688 112.397460938 499.461914062 110.595703125 483.76953125 c 2
 110.595703125 433.3515625 l 2
 111.084960938 433.661132812 111.931640625 434.19921875 111.931640625 434.19921875 c 1
 248.591796875 549.701171875 l 1
EndSplineSet
EndChar

StartChar: w
Encoding: 119 119 5
Width: 495
VWidth: 0
Flags: HW
LayerCount: 2
UndoRedoHistory
Layer: 1
Undoes
UndoOperation
Index: 0
Type: 7
WasModified: 1
WasOrder2: 0
Layer: 2
Width: 493
EndUndoOperation
UndoOperation
Index: 1
Type: 3
WasModified: 0
WasOrder2: 0
Layer: 2
EndUndoOperation
UndoOperation
Index: 2
Type: 7
WasModified: 1
WasOrder2: 0
Layer: 2
Width: 504
EndUndoOperation
EndUndoes
Redoes
EndRedoes
EndUndoRedoHistory
Fore
SplineSet
469.529296875 550.451171875 m 1
 461.852539062 527.08203125 454.153320312 499.23828125 452.45703125 483.494140625 c 0
 452.115234375 401.319335938 451.619140625 324.366210938 452.26953125 230.173828125 c 0
 454.649414062 135.659179688 342.931640625 53.548828125 281.849609375 0 c 1
 270.352539062 34.1201171875 255.719726562 46.3681640625 233.052734375 54.4375 c 1
 219.754882812 38.87109375 200.081054688 18.9619140625 178.451171875 0 c 1
 133.583007812 51.3447265625 81.2861328125 63.7900390625 25 79.6171875 c 1
 35.5361328125 91.80078125 52.45703125 108.974609375 59.103515625 120.2109375 c 1
 58.607421875 480.1640625 l 1
 58.607421875 502.365234375 l 2
 55.2138671875 520.7890625 42.029296875 534.900390625 39.857421875 548.12890625 c 1
 44.7470703125 544.846679688 72.3994140625 516.112304688 79.197265625 514.298828125 c 0
 92.55078125 518.174804688 110.71875 536.724609375 133.056640625 550.44921875 c 1
 125.380859375 527.080078125 117.684570312 499.237304688 115.98828125 483.494140625 c 0
 115.967773438 478.931640625 116.098632812 457.706054688 115.701171875 450.349609375 c 2
 115.701171875 122.939453125 l 1
 147.357421875 114.790039062 174.375976562 104.520507812 197.029296875 83.51171875 c 0
 201.018554688 82.6083984375 226.032226562 103.611328125 229.953125 109.5703125 c 2
 229.45703125 480.1640625 l 1
 229.45703125 502.365234375 l 2
 226.063476562 520.7890625 212.87890625 534.900390625 210.70703125 548.12890625 c 1
 215.596679688 544.846679688 243.249023438 516.112304688 250.046875 514.298828125 c 0
 263.400390625 518.174804688 281.567382812 536.724609375 303.90625 550.44921875 c 1
 296.23046875 527.080078125 288.530273438 499.237304688 286.833984375 483.494140625 c 0
 286.813476562 478.931640625 286.944335938 457.706054688 286.546875 450.349609375 c 2
 286.546875 100.84375 l 1
 300.149414062 99.4794921875 328.362304688 83.58203125 328.40625 71.5703125 c 1
 383.380859375 114.356445312 387.912109375 144.453125 395.34375 217.279296875 c 1
 396.060546875 300.278320312 395.1328125 370.211914062 395.44921875 453.212890625 c 0
 394.984375 469.595703125 394.981445312 485.974609375 395.078125 502.365234375 c 0
 391.684570312 520.7890625 378.498046875 534.900390625 376.326171875 548.12890625 c 1
 381.215820312 544.846679688 408.87109375 516.112304688 415.66796875 514.298828125 c 0
 429.022460938 518.174804688 447.189453125 536.7265625 469.529296875 550.451171875 c 1
EndSplineSet
EndChar

StartChar: d
Encoding: 100 100 6
Width: 417
VWidth: 0
Flags: HW
LayerCount: 2
UndoRedoHistory
Layer: 1
Undoes
UndoOperation
Index: 0
Type: 7
WasModified: 1
WasOrder2: 0
Layer: 2
Width: 415
EndUndoOperation
UndoOperation
Index: 1
Type: 3
WasModified: 0
WasOrder2: 0
Layer: 2
EndUndoOperation
UndoOperation
Index: 2
Type: 7
WasModified: 1
WasOrder2: 0
Layer: 2
Width: 425
EndUndoOperation
EndUndoes
Redoes
EndRedoes
EndUndoRedoHistory
Fore
SplineSet
92.537109375 818 m 1
 93.35546875 790.993164062 124.266601562 732.060546875 161.625 677.060546875 c 0
 180.3046875 649.560546875 200.594726562 623.041992188 219.54296875 601.990234375 c 0
 254.235351562 568.349609375 287.688476562 539.338867188 331.826171875 500.107421875 c 0
 351.587890625 480.265625 370.974609375 460.010742188 392.005859375 438.025390625 c 1
 378.079101562 421.82421875 362.211914062 414.291992188 362.296875 384.642578125 c 0
 363.375976562 302.627929688 363.837890625 220.526367188 365.630859375 126.611328125 c 1
 370.911132812 125.600585938 368.736328125 126.44921875 374.779296875 124.755859375 c 1
 328.134765625 77.140625 268.502929688 43.2919921875 207.26171875 5.345703125 c 1
 173.876953125 53.5009765625 100.028320312 57.205078125 41.09765625 66.341796875 c 1
 56.46484375 82.8681640625 77.8037109375 95.8505859375 75.27734375 111.3359375 c 2
 76.48046875 391.490234375 l 1
 76.48046875 391.490234375 65.4951171875 395.936523438 50.537109375 391.06640625 c 1
 101.697265625 431.041992188 160.72265625 477.982421875 218.23046875 521.904296875 c 1
 173.231445312 537.700195312 25.615234375 757.349609375 25 816.11328125 c 1
 70.3359375 781.431640625 l 1
 92.537109375 818 l 1
238.744140625 501.6796875 m 1
 132.310546875 413.6875 l 1
 133.241210938 319.633789062 127.876953125 225.76171875 132.310546875 124.341796875 c 1
 153.309570312 99.2138671875 222.888671875 87.15234375 268.181640625 70.240234375 c 1
 285.936523438 76.87109375 298.317382812 86.810546875 307.998046875 97.21484375 c 1
 307.938476562 111.793945312 307.2734375 129.2734375 307.251953125 142.984375 c 0
 305.747070312 229.852539062 308.599609375 321.373046875 309.07421875 420.0234375 c 0
 309.473632812 453.028320312 260.633789062 481.125 238.744140625 501.6796875 c 1
EndSplineSet
EndChar

StartChar: i
Encoding: 105 105 7
Width: 169
VWidth: 0
Flags: HW
LayerCount: 2
UndoRedoHistory
Layer: 1
Undoes
UndoOperation
Index: 0
Type: 7
WasModified: 1
WasOrder2: 0
Layer: 2
Width: 167
EndUndoOperation
UndoOperation
Index: 1
Type: 3
WasModified: 0
WasOrder2: 0
Layer: 2
EndUndoOperation
UndoOperation
Index: 2
Type: 7
WasModified: 1
WasOrder2: 0
Layer: 2
Width: 179
EndUndoOperation
EndUndoes
Redoes
EndRedoes
EndUndoRedoHistory
Fore
SplineSet
84.140625 715 m 1
 84.140625 707.080078125 136.111328125 655.10546875 144.03125 655.10546875 c 1
 136.111328125 655.10546875 84.890625 603.888671875 84.890625 595.96875 c 1
 84.890625 603.888671875 32.919921875 655.861328125 25 655.861328125 c 1
 32.919921875 655.861328125 84.140625 707.080078125 84.140625 715 c 1
84.140625 541.283203125 m 1
 84.140625 533.36328125 136.111328125 481.388671875 144.03125 481.388671875 c 1
 140.125 481.388671875 125.689453125 468.923828125 112.05859375 455.345703125 c 1
 112.05859375 81.833984375 l 1
 125.766601562 68.212890625 140.16015625 55.78125 144.03125 55.78125 c 1
 136.111328125 55.78125 84.890625 4.560546875 84.890625 -3.359375 c 1
 84.890625 4.560546875 32.919921875 56.537109375 25 56.537109375 c 1
 28.76171875 56.537109375 42.287109375 68.1103515625 55.45703125 81.091796875 c 1
 55.45703125 457.580078125 l 1
 42.21875 470.6015625 28.7294921875 482.142578125 25 482.142578125 c 1
 32.919921875 482.142578125 84.140625 533.36328125 84.140625 541.283203125 c 1
EndSplineSet
EndChar

StartChar: l
Encoding: 108 108 8
Width: 169
VWidth: 0
Flags: HW
LayerCount: 2
UndoRedoHistory
Layer: 1
Undoes
UndoOperation
Index: 0
Type: 7
WasModified: 1
WasOrder2: 0
Layer: 2
Width: 167
EndUndoOperation
UndoOperation
Index: 1
Type: 3
WasModified: 0
WasOrder2: 0
Layer: 2
EndUndoOperation
UndoOperation
Index: 2
Type: 7
WasModified: 1
WasOrder2: 0
Layer: 2
Width: 179
EndUndoOperation
EndUndoes
Redoes
EndRedoes
EndUndoRedoHistory
Fore
SplineSet
136.884765625 811 m 1
 128.01171875 783.98828125 113.077148438 750.966796875 113.453125 737.603515625 c 0
 111.861328125 652.215820312 114.45703125 232.711914062 113.71875 83.865234375 c 1
 126.91015625 70.904296875 140.318359375 59.447265625 144.033203125 59.447265625 c 1
 136.11328125 59.447265625 84.89453125 8.2265625 84.89453125 0.306640625 c 1
 84.89453125 8.2265625 32.919921875 60.201171875 25 60.201171875 c 1
 28.853515625 60.201171875 42.953125 72.3388671875 56.419921875 85.701171875 c 1
 56.419921875 762.912109375 l 2
 55.802734375 781.3359375 45.853515625 795.446289062 43.681640625 808.67578125 c 1
 48.5712890625 805.393554688 76.2236328125 776.658203125 83.021484375 774.845703125 c 0
 96.3759765625 778.721679688 114.544921875 797.275390625 136.884765625 811 c 1
EndSplineSet
EndChar

StartChar: b
Encoding: 98 98 9
Width: 401
VWidth: 0
Flags: HW
LayerCount: 2
UndoRedoHistory
Layer: 1
Undoes
UndoOperation
Index: 0
Type: 7
WasModified: 1
WasOrder2: 0
Layer: 2
Width: 399
EndUndoOperation
UndoOperation
Index: 1
Type: 3
WasModified: 0
WasOrder2: 0
Layer: 2
EndUndoOperation
UndoOperation
Index: 2
Type: 7
WasModified: 1
WasOrder2: 0
Layer: 2
Width: 409
EndUndoOperation
EndUndoes
Redoes
EndRedoes
EndUndoRedoHistory
Fore
SplineSet
139.64453125 819 m 1
 130.771484375 792.471679688 115.836914062 760.04296875 116.212890625 746.91796875 c 0
 114.481445312 655.70703125 117.716796875 545.706054688 116.212890625 442.5078125 c 1
 252.875 558.009765625 l 1
 298.134765625 517.188476562 333.711914062 480.044921875 375.908203125 435.93359375 c 1
 361.981445312 419.732421875 346.114257812 412.198242188 346.19921875 382.548828125 c 0
 347.278320312 300.534179688 344.40625 218.434570312 346.19921875 124.51953125 c 1
 351.479492188 123.508789062 352.638671875 124.35546875 358.681640625 122.662109375 c 1
 312.037109375 75.046875 252.405273438 41.2001953125 191.1640625 3.25390625 c 1
 157.779296875 51.41015625 83.9306640625 55.115234375 25 64.251953125 c 1
 40.3671875 80.7783203125 61.7041015625 93.7587890625 59.177734375 109.244140625 c 2
 59.177734375 771.775390625 l 2
 58.560546875 789.870117188 48.615234375 803.728515625 46.443359375 816.720703125 c 1
 51.3330078125 813.497070312 78.9833984375 785.276367188 85.78125 783.49609375 c 0
 99.1357421875 787.302734375 117.3046875 805.520507812 139.64453125 819 c 1
222.646484375 499.587890625 m 1
 116.212890625 411.595703125 l 1
 117.143554688 317.541015625 111.779296875 223.66796875 116.212890625 122.248046875 c 1
 137.211914062 97.1201171875 206.7890625 85.0615234375 252.08203125 68.1484375 c 1
 269.8359375 74.779296875 282.219726562 84.71875 291.900390625 95.123046875 c 1
 291.32421875 199.838867188 289.884765625 302.079101562 291.900390625 417.931640625 c 0
 292.299804688 450.936523438 244.536132812 479.033203125 222.646484375 499.587890625 c 1
EndSplineSet
EndChar

StartChar: r
Encoding: 114 114 10
Width: 370
VWidth: 0
Flags: HW
LayerCount: 2
UndoRedoHistory
Layer: 1
Undoes
UndoOperation
Index: 0
Type: 7
WasModified: 1
WasOrder2: 0
Layer: 2
Width: 368
EndUndoOperation
UndoOperation
Index: 1
Type: 3
WasModified: 0
WasOrder2: 0
Layer: 2
EndUndoOperation
UndoOperation
Index: 2
Type: 7
WasModified: 1
WasOrder2: 0
Layer: 2
Width: 378
EndUndoOperation
EndUndoes
Redoes
EndRedoes
EndUndoRedoHistory
Fore
SplineSet
226.119140625 548.8203125 m 1
 270.846679688 497.329101562 285.21875 447.84765625 344.76171875 428 c 1
 302.30859375 383.37109375 l 2
 302.205078125 383.380859375 302.10546875 383.387695312 302.001953125 383.400390625 c 0
 285.352539062 365.598632812 242.7578125 316.569335938 253.212890625 291.177734375 c 1
 242.75390625 304.1015625 l 2
 230.040039062 324.01953125 261.022460938 363.698242188 281.548828125 386.478515625 c 1
 217.9140625 401.19921875 222.552734375 447.423828125 186.125 479.525390625 c 1
 112.419921875 416.17578125 l 1
 112.419921875 81.029296875 l 1
 126.018554688 67.548828125 140.198242188 55.33203125 144.03515625 55.33203125 c 1
 136.115234375 55.33203125 84.89453125 4.111328125 84.89453125 -3.80859375 c 1
 84.89453125 4.111328125 32.919921875 56.087890625 25 56.087890625 c 1
 28.7958984375 56.087890625 42.537109375 67.8720703125 55.8203125 80.998046875 c 1
 55.8203125 478.65625 l 1
 55.16015625 496.94921875 l 2
 54.54296875 515.373046875 40.150390625 529.483398438 37.978515625 542.712890625 c 1
 42.8681640625 539.430664062 72.0888671875 510.696289062 78.88671875 508.8828125 c 0
 92.9365234375 509.62890625 110.66015625 526.440429688 128.826171875 545.03515625 c 1
 121.208984375 521.846679688 114.15234375 494.266601562 112.541015625 478.458984375 c 0
 112.513671875 471.951171875 112.419921875 459.469726562 112.419921875 449.333984375 c 1
 226.119140625 548.8203125 l 1
EndSplineSet
EndChar

StartChar: g
Encoding: 103 103 11
Width: 401
VWidth: 0
Flags: HW
LayerCount: 2
UndoRedoHistory
Layer: 1
Undoes
UndoOperation
Index: 0
Type: 7
WasModified: 1
WasOrder2: 0
Layer: 2
Width: 399
EndUndoOperation
UndoOperation
Index: 1
Type: 3
WasModified: 0
WasOrder2: 0
Layer: 2
EndUndoOperation
UndoOperation
Index: 2
Type: 7
WasModified: 1
WasOrder2: 0
Layer: 2
Width: 409
EndUndoOperation
EndUndoes
Redoes
EndRedoes
EndUndoRedoHistory
Fore
SplineSet
247.84765625 556.525390625 m 1
 247.853515625 556.525390625 l 1
 282.26953125 521.296875 335.12109375 481.110351562 375.56640625 432.376953125 c 1
 361.640625 416.176757812 345.7734375 408.643554688 345.857421875 378.994140625 c 0
 346.926757812 297.283203125 344.0859375 215.48046875 345.837890625 122 c 1
 352.213867188 120.212890625 351.701171875 120.942382812 358.681640625 119.107421875 c 1
 354.502929688 114.841796875 350.216796875 110.690429688 345.837890625 106.6328125 c 1
 345.837890625 -78.23828125 l 1
 354.181640625 -71.8203125 362.522460938 -65.40234375 370.865234375 -58.984375 c 1
 322.7890625 -133.6484375 263.087890625 -180.985351562 195.65625 -257.296875 c 1
 148.841796875 -203.546875 109.806640625 -166.612304688 26.224609375 -182.208984375 c 1
 34.5673828125 -164.880859375 42.9130859375 -147.552734375 51.255859375 -130.224609375 c 1
 127.924804688 -112.787109375 175.59765625 -129.928710938 228.388671875 -187.984375 c 1
 249.567382812 -167.447265625 270.747070312 -146.91015625 291.92578125 -126.373046875 c 1
 291.92578125 63.7109375 l 1
 260.249023438 41.5126953125 225.971679688 21.263671875 191.166015625 -0.302734375 c 1
 157.78125 47.853515625 83.9306640625 51.556640625 25 60.693359375 c 1
 40.3671875 77.220703125 61.7060546875 90.19921875 59.1796875 105.685546875 c 2
 60.3828125 385.83984375 l 1
 60.3828125 385.83984375 49.3974609375 390.286132812 34.439453125 385.416015625 c 1
 85.599609375 425.391601562 190.33984375 512.603515625 247.84765625 556.525390625 c 1
223.62109375 498.5859375 m 1
 116.212890625 408.0390625 l 1
 117.143554688 313.985351562 111.779296875 220.111328125 116.212890625 118.69140625 c 1
 137.211914062 93.5634765625 206.791015625 81.50390625 252.083984375 64.591796875 c 1
 265.1875 69.796875 280.189453125 81.818359375 291.5546875 91.56640625 c 1
 291.498046875 102.092773438 289.833007812 315.438476562 291.5546875 414.375 c 0
 291.954101562 447.379882812 236.54296875 486.89453125 223.62109375 498.5859375 c 1
EndSplineSet
EndChar

StartChar: f
Encoding: 102 102 12
Width: 303
VWidth: 0
Flags: HW
LayerCount: 2
UndoRedoHistory
Layer: 1
Undoes
UndoOperation
Index: 0
Type: 7
WasModified: 1
WasOrder2: 0
Layer: 2
Width: 301
EndUndoOperation
UndoOperation
Index: 1
Type: 3
WasModified: 0
WasOrder2: 0
Layer: 2
EndUndoOperation
UndoOperation
Index: 2
Type: 7
WasModified: 1
WasOrder2: 0
Layer: 2
Width: 310
EndUndoOperation
EndUndoes
Redoes
EndRedoes
EndUndoRedoHistory
Fore
SplineSet
191.931640625 800.748046875 m 1
 220.892578125 768.291992188 231.188476562 703.100585938 278.279296875 693.001953125 c 1
 256.588867188 672.028320312 244.640625 660.934570312 228.744140625 649.615234375 c 1
 182.036132812 638.287109375 174.010742188 760.125976562 124.234375 742.31640625 c 0
 109.809570312 737.155273438 109.030273438 723.872070312 108.9453125 708 c 2
 108.9453125 648.857421875 l 1
 108.9453125 435.24609375 l 1
 123.73046875 448.743164062 142.546875 464.28125 161.783203125 460.779296875 c 0
 179.251953125 457.598632812 197.974609375 421.693359375 197.974609375 421.693359375 c 1
 147.3046875 384.0546875 l 1
 147.3046875 384.0546875 130.302734375 402.00390625 118.916015625 403.814453125 c 0
 116.048828125 404.270507812 112.579101562 403.923828125 108.9453125 403.154296875 c 2
 108.9453125 83.1875 l 1
 123.517578125 68.396484375 139.864257812 54 144.03125 54 c 1
 136.111328125 54 84.890625 2.78125 84.890625 -5.138671875 c 1
 84.890625 2.78125 32.919921875 54.755859375 25 54.755859375 c 1
 29.171875 54.755859375 45.3359375 68.9677734375 59.720703125 83.576171875 c 1
 59.720703125 687.431640625 l 2
 59.7451171875 743.489257812 142.708984375 764.07421875 191.931640625 800.748046875 c 1
EndSplineSet
EndChar

StartChar: o
Encoding: 111 111 13
Width: 376
VWidth: 0
Flags: HW
LayerCount: 2
UndoRedoHistory
Layer: 1
Undoes
UndoOperation
Index: 0
Type: 7
WasModified: 1
WasOrder2: 0
Layer: 2
Width: 374
EndUndoOperation
UndoOperation
Index: 1
Type: 3
WasModified: 0
WasOrder2: 0
Layer: 2
EndUndoOperation
UndoOperation
Index: 2
Type: 7
WasModified: 1
WasOrder2: 0
Layer: 2
Width: 384
EndUndoOperation
EndUndoes
Redoes
EndRedoes
EndUndoRedoHistory
Fore
SplineSet
50.984375 391.147460938 m 1
 42.89453125 414.720703125 182.911132812 513.424804688 222.069335938 539.665039062 c 1
 258.966796875 507.0078125 298.703125 477.170898438 350.76953125 459 c 1
 341.451171875 442.393554688 333.39453125 428.567382812 333.787109375 417.979492188 c 2
 330.680664062 115.189453125 l 2
 334.520507812 115.341796875 337.586914062 114.447265625 338.5 112.958007812 c 0
 295.518554688 78.966796875 246.107421875 32.5380859375 194.549804688 -6.3310546875 c 1
 138.346679688 37.1123046875 86.7353515625 51.33203125 25 58.02734375 c 1
 38.7861328125 65.83203125 66.255859375 85.9091796875 73.958984375 106.756835938 c 1
 73.958984375 380.719726562 l 2
 71.095703125 406.556640625 69.3291015625 411.33203125 50.984375 391.147460938 c 1
281.307617188 420.372070312 m 1
 245.725585938 436.913085938 211.782226562 455.3828125 182.612304688 483.22265625 c 1
 169.161132812 474.900390625 123.694335938 438.522460938 123.694335938 438.522460938 c 1
 123.694335938 367.865234375 l 1
 121.533203125 95.712890625 l 1
 151.640625 90.685546875 214.314453125 67.33984375 232.451171875 51.662109375 c 1
 247.68359375 52.001953125 272.255859375 77.509765625 282.720703125 92.3779296875 c 1
 281.307617188 420.372070312 l 1
EndSplineSet
EndChar

StartChar: t
Encoding: 116 116 14
Width: 336
VWidth: 0
Flags: HW
LayerCount: 2
UndoRedoHistory
Layer: 1
Undoes
UndoOperation
Index: 0
Type: 7
WasModified: 1
WasOrder2: 0
Layer: 2
Width: 334
EndUndoOperation
UndoOperation
Index: 1
Type: 3
WasModified: 0
WasOrder2: 0
Layer: 2
EndUndoOperation
UndoOperation
Index: 2
Type: 7
WasModified: 1
WasOrder2: 0
Layer: 2
Width: 343
EndUndoOperation
EndUndoes
Redoes
EndRedoes
EndUndoRedoHistory
Fore
SplineSet
179.3828125 624.126953125 m 1
 179.384765625 624.126953125 l 1
 171.366210938 599.715820312 158.436523438 570.44921875 156.291015625 555.166015625 c 0
 156.254882812 547.7265625 156.266601562 547.922851562 156.21875 538.140625 c 2
 156.21875 505.59765625 l 1
 310.630859375 504.51171875 l 1
 298.061523438 490.862304688 285.37109375 476.680664062 272.5859375 463.560546875 c 0
 255.936523438 445.758789062 213.34375 396.731445312 223.798828125 371.33984375 c 1
 213.337890625 384.26171875 l 2
 203.118164062 400.272460938 221.139648438 429.040039062 239.263671875 451.546875 c 1
 156.21875 453.140625 l 1
 156.21875 72.541015625 l 1
 178.708007812 60.22265625 198.010742188 40.2099609375 218.92578125 31.37890625 c 1
 231.90234375 36.099609375 242.350585938 46.62109375 253.296875 51.017578125 c 1
 226.462890625 22.5830078125 201.455078125 -4.1376953125 178.00390625 -30 c 1
 139.26171875 6.103515625 88.0341796875 18.5048828125 47.064453125 10.916015625 c 1
 59.9970703125 35.7490234375 70.0400390625 44.8330078125 89.353515625 60.966796875 c 0
 94.466796875 64.5068359375 97.494140625 70.0048828125 97.8671875 79.744140625 c 0
 98.1484375 87.083984375 98.4677734375 324.419921875 98.69921875 454.24609375 c 1
 25 455.658203125 l 1
 46.677734375 470.252929688 65.8642578125 489.08984375 78.162109375 506.1484375 c 1
 98.791015625 506.00390625 l 1
 98.8271484375 528.877929688 98.89453125 557.086914062 98.91796875 576.0390625 c 0
 98.30078125 594.462890625 88.353515625 608.573242188 86.181640625 621.802734375 c 1
 91.0712890625 618.520507812 118.723632812 589.786132812 125.521484375 587.97265625 c 0
 138.875976562 591.848632812 157.04296875 610.40234375 179.3828125 624.126953125 c 1
EndSplineSet
EndChar

StartChar: G
Encoding: 71 71 15
Width: 695
VWidth: 0
Flags: HW
LayerCount: 2
UndoRedoHistory
Layer: 1
Undoes
UndoOperation
Index: 0
Type: 7
WasModified: 1
WasOrder2: 0
Layer: 2
Width: 664
EndUndoOperation
UndoOperation
Index: 1
Type: 3
WasModified: 0
WasOrder2: 0
Layer: 2
EndUndoOperation
UndoOperation
Index: 2
Type: 1
WasModified: 1
WasOrder2: 0
Layer: 2
Width: 634
VWidth: 0
LBearingChange: 0
UnicodeEnc: 0
InstructionsLength: 0
SplineSet
432.361328125 819 m 5
 432.373046875 819 l 5
 481.931640625 729.3125 560.359375 736.13671875 614.534179688 723.958984375 c 5
 515.897460938 675.477539062 439.442382812 696.297851562 375.350585938 760.390625 c 5
 345.834960938 737.8203125 l 5
 345.834960938 718 l 4
 345.834960938 350.4375 l 5
 608.909179688 516.53515625 l 5
 608.88671875 515.802734375 l 5
 610.67578125 517.11328125 l 5
 610.67578125 130.052734375 l 5
 622.34375 136.458007812 633.708007812 143.486328125 644.701171875 151.1484375 c 5
 574.1015625 78.203125 476.973632812 36.9541015625 375.458984375 36.806640625 c 4
 168.098632812 36.8076171875 -0.0009765625 204.907226562 0 412.267578125 c 4
 0.1728515625 535.190429688 60.505859375 650.241210938 161.521484375 720.283203125 c 5
 93.546875 650.34375 55.4541015625 556.698242188 55.306640625 459.16796875 c 4
 55.306640625 283.883789062 175.423828125 136.658203125 337.833984375 95.302734375 c 5
 337.833984375 324.78515625 l 5
 262.134765625 277.271484375 l 5
 262.134765625 683.533203125 l 5
 185.2578125 632.087890625 l 5
 183.673828125 646.34375 l 5
 432.361328125 819 l 5
337.833984375 731.703125 m 5
 321.494140625 719.20703125 l 5
 318.74609375 693.037109375 l 5
 318.74609375 333.3359375 l 5
 337.833984375 345.38671875 l 5
 337.833984375 731.703125 l 5
554.076171875 460.51171875 m 5
 345.833984375 329.806640625 l 5
 345.833984375 93.35546875 l 5
 373.125 87.0439453125 401.555664062 83.70703125 430.765625 83.70703125 c 4
 473.001953125 83.79296875 514.663085938 91.0126953125 554.076171875 104.8125 c 5
 554.076171875 460.51171875 l 5
EndSplineSet
EndUndoOperation
EndUndoes
Redoes
EndRedoes
EndUndoRedoHistory
Fore
SplineSet
457.361328125 782.193359375 m 1
 457.373046875 782.193359375 l 1
 506.931640625 692.505859375 585.359375 699.330078125 639.534179688 687.15234375 c 1
 540.897460938 638.670898438 464.442382812 659.491210938 400.350585938 723.583984375 c 1
 370.834960938 701.013671875 l 1
 370.834960938 681.193359375 l 0
 370.834960938 313.630859375 l 1
 633.909179688 479.728515625 l 1
 633.88671875 478.99609375 l 1
 635.67578125 480.306640625 l 1
 635.67578125 93.24609375 l 1
 647.34375 99.6513671875 658.708007812 106.6796875 669.701171875 114.341796875 c 1
 599.1015625 41.396484375 501.973632812 0.1474609375 400.458984375 0 c 0
 193.098632812 0.0009765625 24.9990234375 168.100585938 25 375.4609375 c 0
 25.1728515625 498.383789062 85.505859375 613.434570312 186.521484375 683.4765625 c 1
 118.546875 613.537109375 80.4541015625 519.891601562 80.306640625 422.361328125 c 0
 80.306640625 247.077148438 200.423828125 99.8515625 362.833984375 58.49609375 c 1
 362.833984375 287.978515625 l 1
 287.134765625 240.46484375 l 1
 287.134765625 646.7265625 l 1
 210.2578125 595.28125 l 1
 208.673828125 609.537109375 l 1
 457.361328125 782.193359375 l 1
362.833984375 694.896484375 m 1
 346.494140625 682.400390625 l 1
 343.74609375 656.23046875 l 1
 343.74609375 296.529296875 l 1
 362.833984375 308.580078125 l 1
 362.833984375 694.896484375 l 1
579.076171875 423.705078125 m 1
 370.833984375 293 l 1
 370.833984375 56.548828125 l 1
 398.125 50.2373046875 426.555664062 46.900390625 455.765625 46.900390625 c 0
 498.001953125 46.986328125 539.663085938 54.2060546875 579.076171875 68.005859375 c 1
 579.076171875 423.705078125 l 1
EndSplineSet
EndChar

StartChar: y
Encoding: 121 121 16
Width: 396
VWidth: 0
Flags: HW
LayerCount: 2
UndoRedoHistory
Layer: 1
Undoes
UndoOperation
Index: 0
Type: 7
WasModified: 1
WasOrder2: 0
Layer: 2
Width: 394
EndUndoOperation
UndoOperation
Index: 1
Type: 3
WasModified: 0
WasOrder2: 0
Layer: 2
EndUndoOperation
UndoOperation
Index: 2
Type: 7
WasModified: 1
WasOrder2: 0
Layer: 2
Width: 405
EndUndoOperation
EndUndoes
Redoes
EndRedoes
EndUndoRedoHistory
Fore
SplineSet
133.912109375 558.450195312 m 1
 133.915039062 558.450195312 l 1
 126.22265625 535.030273438 118.288085938 507.112304688 116.556640625 491.38671875 c 2
 116.212890625 121.693359375 l 1
 137.211914062 96.5654296875 206.788085938 84.5048828125 252.081054688 67.5927734375 c 1
 265.184570312 72.796875 280.185546875 84.8193359375 291.55078125 94.5673828125 c 1
 291.49609375 104.770507812 289.939453125 332.547851562 291.412109375 439.791015625 c 2
 290.879882812 503.817382812 l 2
 290.262695312 522.241210938 274.584960938 542.897460938 272.413085938 556.126953125 c 1
 277.302734375 552.844726562 304.956054688 524.109375 311.752929688 522.296875 c 0
 325.107421875 526.172851562 343.275390625 544.725585938 365.615234375 558.450195312 c 1
 356.7421875 531.438476562 347.537109375 498.41796875 347.913085938 485.053710938 c 0
 346.876953125 365.038085938 343.879882812 245.0234375 345.833984375 125 c 1
 352.209960938 123.212890625 351.69921875 123.942382812 358.6796875 122.107421875 c 1
 354.500976562 117.841796875 350.212890625 113.69140625 345.833984375 109.633789062 c 1
 345.833984375 -75.236328125 l 1
 354.177734375 -68.818359375 362.522460938 -62.40234375 370.865234375 -55.984375 c 1
 322.7890625 -130.6484375 263.088867188 -177.985351562 195.657226562 -254.296875 c 1
 148.842773438 -200.546875 109.806640625 -163.611328125 26.224609375 -179.208007812 c 1
 34.568359375 -161.879882812 42.91015625 -144.551757812 51.2529296875 -127.223632812 c 1
 127.922851562 -109.786132812 175.598632812 -126.928710938 228.389648438 -184.984375 c 1
 249.568359375 -164.447265625 270.743164062 -143.909179688 291.921875 -123.372070312 c 1
 291.921875 66.7109375 l 1
 260.245117188 44.5126953125 225.970703125 24.2646484375 191.165039062 2.6982421875 c 1
 157.78125 50.8544921875 83.9306640625 54.55859375 25 63.6943359375 c 1
 40.3671875 80.2216796875 61.7021484375 93.201171875 59.1767578125 108.686523438 c 2
 59.1767578125 503.817382812 l 2
 58.55859375 522.241210938 42.8818359375 542.897460938 40.7099609375 556.126953125 c 1
 45.599609375 552.844726562 73.251953125 524.109375 80.0498046875 522.296875 c 0
 93.404296875 526.172851562 111.572265625 544.725585938 133.912109375 558.450195312 c 1
EndSplineSet
EndChar

StartChar: a
Encoding: 97 97 17
Width: 393
VWidth: 0
Flags: HW
LayerCount: 2
UndoRedoHistory
Layer: 1
Undoes
UndoOperation
Index: 0
Type: 7
WasModified: 1
WasOrder2: 0
Layer: 2
Width: 391
EndUndoOperation
UndoOperation
Index: 1
Type: 3
WasModified: 0
WasOrder2: 0
Layer: 2
EndUndoOperation
UndoOperation
Index: 2
Type: 7
WasModified: 1
WasOrder2: 0
Layer: 2
Width: 403
EndUndoOperation
EndUndoes
Redoes
EndRedoes
EndUndoRedoHistory
Fore
SplineSet
230.146484375 583.505859375 m 1
 267.044921875 550.848632812 306.783203125 521.012695312 358.849609375 502.842773438 c 1
 349.53125 486.236328125 341.47265625 472.41015625 341.865234375 461.822265625 c 2
 339.086914062 348.903320312 l 1
 345.009765625 346.471679688 351.01171875 344.170898438 357.104492188 342.044921875 c 1
 347.786132812 325.438476562 339.73046875 311.612304688 340.123046875 301.024414062 c 2
 337.016601562 121.51953125 l 2
 340.856445312 121.672851562 343.921875 120.778320312 344.834960938 119.2890625 c 0
 342.837890625 117.708984375 340.685546875 115.978515625 338.634765625 114.34765625 c 0
 338.935546875 103.336914062 339.118164062 92.0205078125 338.857421875 85.767578125 c 0
 339.733398438 69.4462890625 358.018554688 62.25 368.075195312 52.84375 c 1
 360.076171875 51.61328125 321.92578125 18.3857421875 310.234375 1.1572265625 c 1
 297.309570312 8.54296875 293.25 32.7783203125 285.206054688 46.236328125 c 0
 283.6484375 52.935546875 282.811523438 61.3818359375 282.340820312 69.0830078125 c 1
 253.693359375 45.984375 223.565429688 21.875 194.549804688 0 c 1
 138.346679688 43.4423828125 86.7353515625 57.66015625 25 64.3564453125 c 1
 38.7861328125 72.16015625 66.255859375 92.23828125 73.9580078125 113.0859375 c 1
 73.9580078125 263.763671875 l 2
 71.095703125 289.6015625 69.3291015625 294.376953125 50.984375 274.192382812 c 1
 42.89453125 297.765625 182.911132812 396.470703125 222.068359375 422.7109375 c 1
 239.841796875 406.981445312 259.759765625 391.921875 281.434570312 378.489257812 c 1
 280.633789062 464.213867188 l 1
 245.051757812 480.754882812 219.862304688 499.224609375 190.69140625 527.063476562 c 1
 150.430664062 500.853515625 94.9150390625 470.930664062 70.7041015625 426.034179688 c 1
 53.6591796875 456.770507812 190.98828125 557.265625 230.146484375 583.505859375 c 1
182.611328125 366.265625 m 1
 169.159179688 357.944335938 123.693359375 321.567382812 123.693359375 321.567382812 c 1
 123.693359375 250.909179688 l 1
 121.53125 102.043945312 l 1
 151.638671875 97.0166015625 214.314453125 73.6689453125 232.451171875 57.9921875 c 1
 247.180664062 58.3203125 270.603515625 82.15625 281.598632812 97.1748046875 c 1
 281.524414062 105.811523438 281.71484375 117.5078125 281.905273438 126.6796875 c 1
 282.526367188 126.599609375 l 1
 281.307617188 303.416015625 l 1
 245.725585938 319.958007812 211.78125 338.426757812 182.611328125 366.265625 c 1
EndSplineSet
EndChar

StartChar: u
Encoding: 117 117 18
Width: 382
VWidth: 0
Flags: HW
LayerCount: 2
UndoRedoHistory
Layer: 1
Undoes
UndoOperation
Index: 0
Type: 7
WasModified: 1
WasOrder2: 0
Layer: 2
Width: 380
EndUndoOperation
UndoOperation
Index: 1
Type: 3
WasModified: 0
WasOrder2: 0
Layer: 2
EndUndoOperation
UndoOperation
Index: 2
Type: 7
WasModified: 1
WasOrder2: 0
Layer: 2
Width: 393
EndUndoOperation
EndUndoes
Redoes
EndRedoes
EndUndoRedoHistory
Fore
SplineSet
137.2265625 548 m 1
 137.228515625 548 l 1
 129.451171875 524.323242188 120.328125 496.033203125 118.446289062 480.407226562 c 0
 117.5234375 471.674804688 117.778320312 462.03125 117.778320312 462.03125 c 1
 117.778320312 119.391601562 l 1
 135.693359375 103.096679688 158.1171875 71.1904296875 162.040039062 58.859375 c 1
 178.6171875 58.216796875 201.75390625 58.8603515625 226.383789062 58.859375 c 1
 245.28515625 73.587890625 258.317382812 82.7578125 271.051757812 93.255859375 c 1
 270.672851562 101.197265625 270.927734375 117.973632812 271.180664062 130.232421875 c 0
 271.180664062 253.470703125 271.25 376.829101562 271.077148438 499.9140625 c 0
 270.458984375 518.337890625 260.51171875 532.447265625 258.33984375 545.676757812 c 1
 263.23046875 542.39453125 290.8828125 513.659179688 297.6796875 511.846679688 c 0
 311.034179688 515.72265625 329.202148438 534.275390625 351.541992188 548 c 1
 343.526367188 523.59765625 330.599609375 494.33984375 328.447265625 479.052734375 c 0
 328.491210938 360.4296875 327.008789062 241.551757812 327.776367188 122.841796875 c 0
 328.15625 110.432617188 328.434570312 96.51171875 328.134765625 89.3203125 c 0
 329.009765625 72.9990234375 347.295898438 65.802734375 357.352539062 56.396484375 c 1
 349.352539062 55.166015625 311.203125 21.9384765625 299.51171875 4.7099609375 c 1
 286.586914062 12.0947265625 279.86328125 36.3310546875 271.819335938 49.7890625 c 1
 261.478515625 44.2734375 233.216796875 13.9814453125 229.818359375 9.015625 c 0
 226.420898438 4.05078125 159.271484375 5.0146484375 138.0390625 6.556640625 c 1
 128.498046875 22.2509765625 74.490234375 85.0283203125 25 90.4248046875 c 1
 41.787109375 98.689453125 54.0947265625 107.61328125 61.1748046875 116.310546875 c 1
 61.1748046875 232.155273438 61.3046875 348.004882812 61.0673828125 463.846679688 c 2
 61.0673828125 499.9140625 l 2
 60.44921875 518.337890625 46.1953125 532.447265625 44.0234375 545.676757812 c 1
 48.9140625 542.39453125 76.56640625 513.659179688 83.3642578125 511.846679688 c 0
 96.7177734375 515.72265625 114.885742188 534.275390625 137.2265625 548 c 1
EndSplineSet
EndChar

StartChar: v
Encoding: 118 118 19
Width: 391
VWidth: 0
Flags: HW
LayerCount: 2
UndoRedoHistory
Layer: 1
Undoes
UndoOperation
Index: 0
Type: 7
WasModified: 1
WasOrder2: 0
Layer: 2
Width: 389
EndUndoOperation
UndoOperation
Index: 1
Type: 3
WasModified: 0
WasOrder2: 0
Layer: 2
EndUndoOperation
UndoOperation
Index: 2
Type: 7
WasModified: 1
WasOrder2: 0
Layer: 2
Width: 400
EndUndoOperation
EndUndoes
Redoes
EndRedoes
EndUndoRedoHistory
Fore
SplineSet
133.05859375 549 m 5
 133.055664062 549 l 5
 125.37890625 525.629882812 117.681640625 497.786132812 115.984375 482.041992188 c 4
 115.963867188 477.479492188 116.094726562 456.255859375 115.697265625 448.8984375 c 6
 115.697265625 121.487304688 l 5
 156.009765625 111.108398438 188.805664062 97.30078125 214.637695312 62.2421875 c 5
 285.286132812 113.37890625 283.849609375 136.499023438 291.944335938 215.828125 c 5
 292.662109375 298.827148438 291.732421875 368.758789062 292.048828125 451.760742188 c 4
 291.583984375 468.142578125 291.580078125 484.5234375 291.677734375 500.9140625 c 4
 288.284179688 519.337890625 275.098632812 533.447265625 272.92578125 546.676757812 c 5
 277.81640625 543.39453125 305.46875 514.659179688 312.266601562 512.846679688 c 4
 325.62109375 516.72265625 343.788085938 535.275390625 366.12890625 549 c 5
 358.452148438 525.629882812 350.75390625 497.786132812 349.057617188 482.041992188 c 4
 348.712890625 399.8671875 348.21875 322.915039062 348.869140625 228.72265625 c 4
 351.249023438 134.208007812 239.53125 52.0966796875 178.450195312 -1.4521484375 c 5
 133.581054688 49.892578125 81.2861328125 62.337890625 25 78.1650390625 c 5
 35.5361328125 90.349609375 52.4560546875 107.522460938 59.1025390625 118.758789062 c 5
 58.607421875 478.712890625 l 5
 58.607421875 500.9140625 l 6
 55.2138671875 519.337890625 42.0283203125 533.447265625 39.8564453125 546.676757812 c 5
 44.74609375 543.39453125 72.3984375 514.659179688 79.1962890625 512.846679688 c 4
 92.55078125 516.72265625 110.71875 535.275390625 133.05859375 549 c 5
EndSplineSet
EndChar

StartChar: m
Encoding: 109 109 20
Width: 501
VWidth: 0
Flags: HW
LayerCount: 2
UndoRedoHistory
Layer: 1
Undoes
UndoOperation
Index: 0
Type: 7
WasModified: 1
WasOrder2: 0
Layer: 2
Width: 499
EndUndoOperation
UndoOperation
Index: 1
Type: 3
WasModified: 0
WasOrder2: 0
Layer: 2
EndUndoOperation
UndoOperation
Index: 2
Type: 7
WasModified: 1
WasOrder2: 0
Layer: 2
Width: 511
EndUndoOperation
EndUndoes
Redoes
EndRedoes
EndUndoRedoHistory
Fore
SplineSet
124.139648438 545.022460938 m 1
 124.141601562 545.022460938 l 1
 117.1875 523.853515625 112.93359375 499.034179688 111.59375 482.837890625 c 1
 185.057617188 541.573242188 l 1
 211.98046875 517.2890625 239.864257812 490.715820312 258.057617188 466.926757812 c 1
 351.41796875 541.573242188 l 1
 396.676757812 500.750976562 432.25390625 463.607421875 474.450195312 419.497070312 c 1
 460.5234375 403.295898438 444.657226562 395.763671875 444.741210938 366.114257812 c 0
 445.6640625 295.94921875 443.713867188 170.626953125 444.249023438 77 c 1
 457.9375 63.4033203125 472.291992188 51.0126953125 476.158203125 51.0126953125 c 1
 468.237304688 51.0126953125 417.020507812 -0.2080078125 417.020507812 -8.1279296875 c 1
 417.020507812 -0.2080078125 365.045898438 51.767578125 357.125976562 51.767578125 c 1
 361.133789062 51.767578125 376.224609375 64.88671875 390.161132812 78.8720703125 c 1
 389.529296875 178.427734375 388.703125 301.352539062 390.4453125 401.494140625 c 0
 390.844726562 434.499023438 343.081054688 462.595703125 321.19140625 483.150390625 c 1
 278.293945312 450.668945312 l 1
 279.221679688 356.959960938 273.908203125 178.438476562 278.25390625 77.228515625 c 1
 292.01171875 63.5419921875 306.510742188 51.0126953125 310.3984375 51.0126953125 c 1
 302.477539062 51.0126953125 251.2578125 -0.2080078125 251.2578125 -8.1279296875 c 1
 251.2578125 -0.2080078125 199.286132812 51.767578125 191.366210938 51.767578125 c 1
 195.106445312 51.767578125 208.5 63.208984375 221.59765625 76.099609375 c 1
 221.260742188 76.099609375 l 1
 221.260742188 421.099609375 l 1
 206.784179688 445.479492188 171.86328125 467.157226562 154.83203125 483.150390625 c 1
 111.592773438 450.668945312 l 1
 112.520507812 356.959960938 107.541015625 178.438476562 111.887695312 77.228515625 c 1
 125.645507812 63.5419921875 140.14453125 51.0126953125 144.032226562 51.0126953125 c 1
 136.112304688 51.0126953125 84.8916015625 -0.2080078125 84.8916015625 -8.1279296875 c 1
 84.8916015625 -0.2080078125 32.919921875 51.767578125 25 51.767578125 c 1
 28.740234375 51.767578125 42.1337890625 63.208984375 55.232421875 76.099609375 c 1
 54.89453125 76.099609375 l 1
 54.89453125 422.014648438 l 2
 54.1669921875 447.098632812 52.6171875 472.026367188 49.2392578125 496.936523438 c 0
 48.6220703125 515.360351562 42.8505859375 529.469726562 40.6787109375 542.69921875 c 1
 45.5693359375 535.2421875 70.787109375 509.986328125 77.583984375 508.869140625 c 0
 88.8515625 513.44140625 107.365234375 526.427734375 124.139648438 545.022460938 c 1
EndSplineSet
EndChar

StartChar: I
Encoding: 73 73 21
Width: 477
VWidth: 0
Flags: HW
LayerCount: 2
UndoRedoHistory
Layer: 1
Undoes
UndoOperation
Index: 0
Type: 7
WasModified: 1
WasOrder2: 0
Layer: 2
Width: 467
EndUndoOperation
UndoOperation
Index: 1
Type: 3
WasModified: 0
WasOrder2: 0
Layer: 2
EndUndoOperation
UndoOperation
Index: 2
Type: 1
WasModified: 1
WasOrder2: 0
Layer: 2
Width: 442
VWidth: 0
LBearingChange: 0
UnicodeEnc: 0
InstructionsLength: 0
EndUndoOperation
UndoOperation
Index: 3
Type: 3
WasModified: 1
WasOrder2: 0
Layer: 2
EndUndoOperation
UndoOperation
Index: 4
Type: 1
WasModified: 0
WasOrder2: 0
Layer: 2
Width: 442
VWidth: 0
LBearingChange: 0
UnicodeEnc: 0
InstructionsLength: 0
SplineSet
413.064453125 774 m 5
 413.064453125 774 431.83984375 196.423828125 426.265625 155.19140625 c 4
 411.15625 43.423828125 278.862304688 -71.26171875 152.44921875 -19.939453125 c 4
 87.6455078125 4.91796875 20.3330078125 -57.36328125 0 -73.544921875 c 5
 16.9931640625 -30.33984375 43.8525390625 0.4931640625 78.435546875 18.734375 c 4
 95.7265625 27.85546875 114.939453125 33.908203125 135.833984375 36.623046875 c 4
 174.01953125 41.583984375 203.986328125 33.6533203125 241.615234375 20.529296875 c 4
 267.23046875 11.9853515625 297.62890625 15.7646484375 321.93359375 30.267578125 c 5
 321.93359375 708.677734375 l 5
 293.428710938 711.607421875 261.30078125 717.213867188 234.74609375 718.541015625 c 4
 162.227539062 722.165039062 56.4765625 711.793945312 26.748046875 685.119140625 c 5
 36.240234375 698.430664062 60.673828125 729.635742188 70.33203125 734.740234375 c 4
 115.6171875 779.255859375 184.33984375 770.845703125 242.353515625 768.953125 c 4
 296.420898438 766.989257812 364.4765625 744.3046875 413.064453125 774 c 5
329.93359375 707.927734375 m 5
 329.93359375 35.611328125 l 5
 337.91796875 41.5380859375 345.013671875 48.74609375 350.728515625 57.197265625 c 4
 370.821289062 86.91015625 370.633789062 124.1796875 370.77734375 159.791015625 c 4
 370.826171875 332.0703125 367.338867188 527.418945312 368.205078125 707.91796875 c 5
 357.525390625 706.368164062 344.328125 706.704101562 329.93359375 707.927734375 c 5
293.42578125 636.0546875 m 5
 261.087890625 560.599609375 276.850585938 487.290039062 280.78515625 397.994140625 c 5
 279.552734375 300.627929688 300.340820312 169.559570312 194.41015625 126.2265625 c 5
 236.942382812 204.748046875 218.758789062 285.685546875 215.4765625 374.822265625 c 5
 215.4765625 374.822265625 179.661132812 383.248046875 154.380859375 366.39453125 c 5
 156.487304688 400.102539062 209.154296875 425.3828125 209.154296875 425.3828125 c 5
 216.258789062 523.420898438 205.825195312 579.306640625 293.42578125 636.0546875 c 5
EndSplineSet
EndUndoOperation
UndoOperation
Index: 5
Type: 1
WasModified: 1
WasOrder2: 0
Layer: 2
Width: 1024
VWidth: 0
LBearingChange: 0
UnicodeEnc: 0
InstructionsLength: 0
SplineSet
413.064453125 774 m 1
 413.064453125 774 431.83984375 196.423828125 426.265625 155.19140625 c 0
 411.15625 43.423828125 278.862304688 -71.26171875 152.44921875 -19.939453125 c 0
 87.6455078125 4.91796875 20.3330078125 -57.36328125 0 -73.544921875 c 1
 16.9931640625 -30.33984375 43.8525390625 0.4931640625 78.435546875 18.734375 c 0
 95.7265625 27.85546875 114.939453125 33.908203125 135.833984375 36.623046875 c 0
 174.01953125 41.583984375 203.986328125 33.6533203125 241.615234375 20.529296875 c 0
 267.23046875 11.9853515625 297.62890625 15.7646484375 321.93359375 30.267578125 c 1
 321.93359375 708.677734375 l 1
 293.428710938 711.607421875 261.30078125 717.213867188 234.74609375 718.541015625 c 0
 162.227539062 722.165039062 56.4765625 711.793945312 26.748046875 685.119140625 c 1
 36.240234375 698.430664062 60.673828125 729.635742188 70.33203125 734.740234375 c 0
 115.6171875 779.255859375 184.33984375 770.845703125 242.353515625 768.953125 c 0
 296.420898438 766.989257812 364.4765625 744.3046875 413.064453125 774 c 1
329.93359375 707.927734375 m 1
 329.93359375 35.611328125 l 1
 337.91796875 41.5380859375 345.013671875 48.74609375 350.728515625 57.197265625 c 0
 370.821289062 86.91015625 370.633789062 124.1796875 370.77734375 159.791015625 c 0
 370.826171875 332.0703125 367.338867188 527.418945312 368.205078125 707.91796875 c 1
 357.525390625 706.368164062 344.328125 706.704101562 329.93359375 707.927734375 c 1
293.42578125 636.0546875 m 1
 261.087890625 560.599609375 276.850585938 487.290039062 280.78515625 397.994140625 c 1
 279.552734375 300.627929688 300.340820312 169.559570312 194.41015625 126.2265625 c 1
 236.942382812 204.748046875 218.758789062 285.685546875 215.4765625 374.822265625 c 1
 215.4765625 374.822265625 179.661132812 383.248046875 154.380859375 366.39453125 c 1
 156.487304688 400.102539062 209.154296875 425.3828125 209.154296875 425.3828125 c 1
 216.258789062 523.420898438 205.825195312 579.306640625 293.42578125 636.0546875 c 1
EndSplineSet
EndUndoOperation
EndUndoes
Redoes
EndRedoes
EndUndoRedoHistory
Fore
SplineSet
438.064453125 774 m 1
 438.064453125 774 456.83984375 196.424804688 451.265625 155.193359375 c 0
 436.15625 43.4248046875 303.864257812 -71.26171875 177.451171875 -19.9404296875 c 0
 112.647460938 4.91796875 45.3330078125 -57.3623046875 25 -73.54296875 c 1
 41.9931640625 -30.337890625 68.8525390625 0.4951171875 103.435546875 18.736328125 c 0
 120.7265625 27.857421875 139.939453125 33.91015625 160.833984375 36.625 c 0
 199.01953125 41.5849609375 228.986328125 33.6552734375 266.615234375 20.53125 c 0
 292.23046875 11.9873046875 322.62890625 15.765625 346.93359375 30.2685546875 c 1
 346.93359375 708.678710938 l 1
 318.428710938 711.609375 286.30078125 717.215820312 259.74609375 718.54296875 c 0
 187.227539062 722.16796875 81.4765625 711.794921875 51.748046875 685.12109375 c 1
 61.240234375 698.432617188 85.673828125 729.635742188 95.33203125 734.740234375 c 0
 140.6171875 779.255859375 209.340820312 770.846679688 267.35546875 768.955078125 c 0
 321.422851562 766.991210938 389.4765625 744.303710938 438.064453125 774 c 1
354.93359375 707.926757812 m 1
 354.93359375 625.592773438 l 1
 393.091796875 625.592773438 l 1
 393.051757812 653.279296875 393.075195312 680.783203125 393.205078125 707.926757812 c 1
 382.525390625 706.369140625 369.328125 706.703125 354.93359375 707.926757812 c 1
318.42578125 636.055664062 m 1
 286.087890625 560.6015625 301.850585938 487.290039062 305.78515625 397.99609375 c 1
 304.552734375 300.62890625 325.340820312 169.559570312 219.41015625 126.227539062 c 1
 261.942382812 204.75 243.758789062 285.688476562 240.4765625 374.82421875 c 1
 240.4765625 374.82421875 204.661132812 383.25 179.380859375 366.396484375 c 1
 181.487304688 400.103515625 234.15625 425.384765625 234.15625 425.384765625 c 1
 241.260742188 523.422851562 230.825195312 579.307617188 318.42578125 636.055664062 c 1
354.93359375 617.587890625 m 1
 354.93359375 535.1484375 l 1
 393.451171875 535.1484375 l 1
 393.290039062 562.731445312 393.15625 590.258789062 393.103515625 617.587890625 c 1
 354.93359375 617.587890625 l 1
354.93359375 527.1484375 m 1
 354.93359375 35.61328125 l 1
 362.918945312 41.541015625 370.012695312 48.7490234375 375.728515625 57.201171875 c 0
 395.821289062 86.9140625 395.633789062 124.182617188 395.77734375 159.794921875 c 0
 395.810546875 275.666015625 394.263671875 401.942382812 393.498046875 527.1484375 c 1
 354.93359375 527.1484375 l 1
EndSplineSet
EndChar

StartChar: c
Encoding: 99 99 22
Width: 375
VWidth: 0
Flags: HW
LayerCount: 2
UndoRedoHistory
Layer: 1
Undoes
UndoOperation
Index: 0
Type: 7
WasModified: 1
WasOrder2: 0
Layer: 2
Width: 373
EndUndoOperation
UndoOperation
Index: 1
Type: 3
WasModified: 0
WasOrder2: 0
Layer: 2
EndUndoOperation
UndoOperation
Index: 2
Type: 7
WasModified: 1
WasOrder2: 0
Layer: 2
Width: 385
EndUndoOperation
EndUndoes
Redoes
EndRedoes
EndUndoRedoHistory
Fore
SplineSet
86.8173828125 471.844726562 m 0
 120.688476562 496.485351562 168.799804688 527.362304688 208.012695312 553.676757812 c 1
 261.532226562 499.3046875 282.197265625 477.038085938 349.633789062 483.454101562 c 1
 326.90625 426.530273438 267.907226562 420.825195312 213.930664062 452.411132812 c 0
 197.799804688 459.504882812 188.256835938 485.611328125 169.360351562 492.713867188 c 1
 137.153320312 494.924804688 127.981445312 464.126953125 125.604492188 433.080078125 c 2
 125.604492188 122.428710938 l 1
 154.309570312 110.428710938 185.66015625 96.02734375 213.392578125 82.2880859375 c 1
 264.982421875 41.7431640625 296.272460938 85.5546875 349.633789062 92 c 1
 349.141601562 89.8154296875 255.416015625 21.4033203125 216.4375 -6.5205078125 c 1
 207.845703125 -0.349609375 197.860351562 8.294921875 187.258789062 15.646484375 c 0
 180.650390625 21.1572265625 173.936523438 26.283203125 167.094726562 30.943359375 c 0
 153.411132812 40.2626953125 139.213867188 47.7158203125 124.31640625 52.642578125 c 0
 94.51953125 62.49609375 61.916015625 62.2451171875 25 46.6142578125 c 1
 39.5693359375 72.826171875 75.0927734375 85.3994140625 76.3564453125 119.911132812 c 2
 76.3564453125 427.098632812 l 1
 66.39453125 447.890625 47.5361328125 424.182617188 32.306640625 420.0078125 c 1
 41.916015625 441.213867188 68.38671875 456.103515625 86.8173828125 471.844726562 c 0
EndSplineSet
EndChar

StartChar: s
Encoding: 115 115 23
Width: 450
VWidth: 0
Flags: HW
LayerCount: 2
UndoRedoHistory
Layer: 1
Undoes
UndoOperation
Index: 0
Type: 7
WasModified: 1
WasOrder2: 0
Layer: 2
Width: 452
EndUndoOperation
UndoOperation
Index: 1
Type: 3
WasModified: 0
WasOrder2: 0
Layer: 2
EndUndoOperation
UndoOperation
Index: 2
Type: 1
WasModified: 1
WasOrder2: 0
Layer: 2
Width: 447
VWidth: 0
LBearingChange: 0
UnicodeEnc: 0
InstructionsLength: 0
SplineSet
201.521484375 548.756835938 m 1
 248.374023438 517.977539062 315.8125 487.767578125 384.03515625 520.149414062 c 1
 337.616210938 460.944335938 284.870117188 396.831054688 234.8203125 338.852539062 c 1
 272.81640625 335.184570312 309.241210938 314.963867188 332.836914062 301.390625 c 1
 332.836914062 136.9296875 l 1
 338.44921875 136.459960938 335.588867188 135.346679688 344.671875 135.709960938 c 1
 302.02734375 95.98828125 221.961914062 42.443359375 166.024414062 0 c 1
 110.681640625 31.392578125 77.4462890625 52.4375 19.8974609375 37.5009765625 c 1
 19.8974609375 37.5009765625 -4.83984375 31.4228515625 -16 25.3525390625 c 1
 177.088867188 285.60546875 l 1
 135.703125 284.981445312 84.181640625 280.413085938 63.578125 277.658203125 c 1
 65.125 322.200195312 63.720703125 332.115234375 64.2861328125 376.52734375 c 0
 66.6923828125 423.8359375 37.1298828125 398.588867188 6.4140625 394.09375 c 1
 52.271484375 439.670898438 173.443359375 527.473632812 201.521484375 548.756835938 c 1
167.765625 482.114257812 m 1
 143.2265625 478.381835938 128.65234375 459.538085938 108.149414062 443.971679688 c 1
 109.97265625 401.900390625 112.298828125 385.94140625 112.817382812 339.73046875 c 1
 136.834960938 337.288085938 181.030273438 340.59765625 215.284179688 340.272460938 c 1
 321.225585938 471.888671875 l 1
 295.674804688 453.868164062 186.12109375 461.923828125 167.765625 482.114257812 c 1
197.3671875 285.247070312 m 1
 42.982421875 83.1025390625 l 1
 81.98046875 89.953125 161.713867188 83.2373046875 196.114257812 53.107421875 c 1
 281.557617188 116.4765625 l 1
 280.827148438 261.41796875 l 1
 273.265625 280.298828125 238.063476562 283.541015625 197.3671875 285.247070312 c 1
EndSplineSet
EndUndoOperation
EndUndoes
Redoes
EndRedoes
EndUndoRedoHistory
Fore
SplineSet
242.521484375 548.756835938 m 1
 289.374023438 517.977539062 356.8125 487.767578125 425.03515625 520.149414062 c 1
 378.616210938 460.944335938 325.870117188 396.831054688 275.8203125 338.852539062 c 1
 313.81640625 335.184570312 350.241210938 314.963867188 373.836914062 301.390625 c 1
 373.836914062 136.9296875 l 1
 379.44921875 136.459960938 376.588867188 135.346679688 385.671875 135.709960938 c 1
 343.02734375 95.98828125 262.961914062 42.443359375 207.024414062 0 c 1
 151.681640625 31.392578125 118.446289062 52.4375 60.8974609375 37.5009765625 c 1
 60.8974609375 37.5009765625 36.16015625 31.4228515625 25 25.3525390625 c 1
 218.088867188 285.60546875 l 1
 176.703125 284.981445312 125.181640625 280.413085938 104.578125 277.658203125 c 1
 106.125 322.200195312 104.720703125 332.115234375 105.286132812 376.52734375 c 0
 107.692382812 423.8359375 78.1298828125 398.588867188 47.4140625 394.09375 c 1
 93.271484375 439.670898438 214.443359375 527.473632812 242.521484375 548.756835938 c 1
208.765625 482.114257812 m 1
 184.2265625 478.381835938 169.65234375 459.538085938 149.149414062 443.971679688 c 1
 150.97265625 401.900390625 153.298828125 385.94140625 153.817382812 339.73046875 c 1
 177.834960938 337.288085938 222.030273438 340.59765625 256.284179688 340.272460938 c 1
 362.225585938 471.888671875 l 1
 336.674804688 453.868164062 227.12109375 461.923828125 208.765625 482.114257812 c 1
238.3671875 285.247070312 m 1
 83.982421875 83.1025390625 l 1
 122.98046875 89.953125 202.713867188 83.2373046875 237.114257812 53.107421875 c 1
 322.557617188 116.4765625 l 1
 321.827148438 261.41796875 l 1
 314.265625 280.298828125 279.063476562 283.541015625 238.3671875 285.247070312 c 1
EndSplineSet
EndChar

StartChar: period
Encoding: 46 46 24
Width: 172
VWidth: 0
Flags: HW
LayerCount: 2
UndoRedoHistory
Layer: 1
Undoes
UndoOperation
Index: 0
Type: 1
WasModified: 1
WasOrder2: 0
Layer: 2
Width: 1024
VWidth: 0
LBearingChange: 0
UnicodeEnc: 0
InstructionsLength: 0
SplineSet
-4.8330078125 78.8330078125 m 1
 5.591796875 78.8330078125 73.0087890625 146.25 73.0087890625 156.674804688 c 1
 73.0087890625 146.25 141.416992188 77.841796875 151.841796875 77.841796875 c 1
 141.416992188 77.841796875 74 10.4248046875 74 0 c 1
 74 10.4248046875 5.591796875 78.8330078125 -4.8330078125 78.8330078125 c 1
EndSplineSet
EndUndoOperation
EndUndoes
Redoes
EndRedoes
EndUndoRedoHistory
Fore
SplineSet
-4.8330078125 78.8330078125 m 1
 5.591796875 78.8330078125 73.0087890625 146.25 73.0087890625 156.674804688 c 1
 73.0087890625 146.25 141.416992188 77.841796875 151.841796875 77.841796875 c 1
 141.416992188 77.841796875 74 10.4248046875 74 0 c 1
 74 10.4248046875 5.591796875 78.8330078125 -4.8330078125 78.8330078125 c 1
EndSplineSet
Validated: 1
EndChar

StartChar: comma
Encoding: 44 44 25
Width: 166
VWidth: 0
Flags: HW
LayerCount: 2
UndoRedoHistory
Layer: 1
Undoes
UndoOperation
Index: 0
Type: 1
WasModified: 1
WasOrder2: 0
Layer: 2
Width: 172
VWidth: 0
LBearingChange: 0
UnicodeEnc: 0
InstructionsLength: 0
SplineSet
70.166015625 156.83203125 m 1
 70.166015625 146.407226562 138.575195312 78 149 78 c 1
 117.458984375 27.09375 86.126953125 -23.30859375 20.345703125 -58.708984375 c 1
 34.244140625 -44.900390625 43.4794921875 -33.267578125 50.90625 -12.505859375 c 0
 55.5546875 1.6201171875 59.8681640625 15.029296875 50.4296875 28.0859375 c 0
 32.208984375 53.291015625 -1.00390625 78.990234375 -7.673828125 78.990234375 c 1
 2.7509765625 78.990234375 70.166015625 146.407226562 70.166015625 156.83203125 c 1
EndSplineSet
EndUndoOperation
EndUndoes
Redoes
EndRedoes
EndUndoRedoHistory
Fore
SplineSet
70.166015625 156.83203125 m 1
 70.166015625 146.407226562 138.575195312 78 149 78 c 1
 117.458984375 27.09375 86.126953125 -23.30859375 20.345703125 -58.708984375 c 1
 34.244140625 -44.900390625 43.4794921875 -33.267578125 50.90625 -12.505859375 c 0
 55.5546875 1.6201171875 59.8681640625 15.029296875 50.4296875 28.0859375 c 0
 32.208984375 53.291015625 -1.00390625 78.990234375 -7.673828125 78.990234375 c 1
 2.7509765625 78.990234375 70.166015625 146.407226562 70.166015625 156.83203125 c 1
EndSplineSet
Validated: 33
EndChar

StartChar: quoteright
Encoding: 146 8217 26
Width: 162
VWidth: 0
Flags: HW
LayerCount: 2
UndoRedoHistory
Layer: 1
Undoes
UndoOperation
Index: 0
Type: 1
WasModified: 1
WasOrder2: 0
Layer: 2
Width: 162
VWidth: 0
LBearingChange: 0
UnicodeEnc: 0
InstructionsLength: 0
SplineSet
77.83984375 789 m 5
 77.83984375 778.575195312 146.249023438 710.16796875 156.673828125 710.16796875 c 5
 125.1328125 659.26171875 93.80078125 608.859375 28.01953125 573.458984375 c 5
 41.91796875 587.267578125 51.1533203125 598.900390625 58.580078125 619.662109375 c 4
 63.228515625 633.788085938 67.5419921875 647.197265625 58.103515625 660.25390625 c 4
 39.8828125 685.458984375 6.669921875 711.158203125 0 711.158203125 c 5
 10.4248046875 711.158203125 77.83984375 778.575195312 77.83984375 789 c 5
EndSplineSet
EndUndoOperation
EndUndoes
Redoes
EndRedoes
EndUndoRedoHistory
Fore
SplineSet
77.83984375 790 m 5
 77.83984375 779.575195312 146.249023438 711.16796875 156.673828125 711.16796875 c 5
 125.1328125 660.26171875 93.80078125 609.859375 28.01953125 574.458984375 c 5
 41.91796875 588.267578125 51.1533203125 599.900390625 58.580078125 620.662109375 c 4
 63.228515625 634.788085938 67.5419921875 648.197265625 58.103515625 661.25390625 c 4
 39.8828125 686.458984375 6.669921875 712.158203125 0 712.158203125 c 5
 10.4248046875 712.158203125 77.83984375 779.575195312 77.83984375 790 c 5
EndSplineSet
Validated: 33
EndChar

StartChar: question
Encoding: 63 63 27
Width: 337
VWidth: 0
Flags: HW
LayerCount: 2
UndoRedoHistory
Layer: 1
Undoes
UndoOperation
Index: 0
Type: 1
WasModified: 1
WasOrder2: 0
Layer: 2
Width: 340
VWidth: 0
LBearingChange: 0
UnicodeEnc: 0
InstructionsLength: 0
SplineSet
212.8046875 820.248046875 m 1
 212.806640625 820.248046875 l 1
 234.5859375 790.389648438 324.595703125 715.329101562 343.462890625 713.521484375 c 1
 335.645507812 703.0078125 329.57421875 696.83984375 322.84375 688.40234375 c 1
 323.506835938 653.39453125 324.16796875 614.38671875 324.830078125 579.37890625 c 1
 335.427734375 582.78515625 l 1
 335.5 567.2109375 l 1
 312.102539062 543.20703125 169.84375 419.826171875 169.84375 419.826171875 c 1
 167.53515625 293.6875 l 1
 179.810546875 281.84765625 191.6875 271.91796875 195.1484375 271.91796875 c 1
 187.228515625 271.91796875 136.009765625 220.69921875 136.009765625 212.779296875 c 1
 136.009765625 217.211914062 119.729492188 235.438476562 104.00390625 250.634765625 c 1
 103.3046875 250.2421875 l 2
 103.291015625 250.624023438 103.291015625 250.936523438 103.291015625 251.31640625 c 0
 91.1728515625 262.967773438 79.53515625 272.673828125 76.115234375 272.673828125 c 1
 79.5263671875 272.673828125 90.9736328125 282.188476562 102.8984375 293.640625 c 1
 102.740234375 327.655273438 103.01953125 353.89453125 103.0546875 397.5625 c 1
 126.321289062 416.043945312 236.896484375 502.50390625 256.40234375 529.333984375 c 1
 256.69921875 570.970703125 256.923828125 622.609375 257.30078125 664.24609375 c 1
 245.297851562 664.288085938 174.543945312 721.821289062 162.65625 743.529296875 c 1
 152.073242188 730.967773438 79.6083984375 669.567382812 51.326171875 656.732421875 c 1
 51.05078125 644.474609375 50.90625 620.212890625 50.7265625 607.953125 c 1
 -16.142578125 552.724609375 l 1
 -17.208984375 573.533203125 -15.341796875 613.064453125 -14.984375 633.908203125 c 1
 49.322265625 679.87890625 l 1
 97.6298828125 701.400390625 205.15234375 810.62109375 212.8046875 820.248046875 c 1
136.0078125 156.67578125 m 1
 136.0078125 146.250976562 204.416992188 77.841796875 214.841796875 77.841796875 c 1
 204.416992188 77.841796875 137 10.4248046875 137 0 c 1
 137 10.4248046875 68.5908203125 78.833984375 58.166015625 78.833984375 c 1
 68.5908203125 78.833984375 136.0078125 146.250976562 136.0078125 156.67578125 c 1
EndSplineSet
EndUndoOperation
EndUndoes
Redoes
EndRedoes
EndUndoRedoHistory
Fore
SplineSet
212.8046875 820.248046875 m 1
 212.806640625 820.248046875 l 1
 234.5859375 790.389648438 324.595703125 715.329101562 343.462890625 713.521484375 c 1
 335.645507812 703.0078125 329.57421875 696.83984375 322.84375 688.40234375 c 1
 323.506835938 653.39453125 324.16796875 614.38671875 324.830078125 579.37890625 c 1
 335.427734375 582.78515625 l 1
 335.5 567.2109375 l 1
 312.102539062 543.20703125 169.84375 419.826171875 169.84375 419.826171875 c 1
 167.53515625 293.6875 l 1
 179.810546875 281.84765625 191.6875 271.91796875 195.1484375 271.91796875 c 1
 187.228515625 271.91796875 136.009765625 220.69921875 136.009765625 212.779296875 c 1
 136.009765625 217.211914062 119.729492188 235.438476562 104.00390625 250.634765625 c 1
 103.3046875 250.2421875 l 2
 103.291015625 250.624023438 103.291015625 250.936523438 103.291015625 251.31640625 c 0
 91.1728515625 262.967773438 79.53515625 272.673828125 76.115234375 272.673828125 c 1
 79.5263671875 272.673828125 90.9736328125 282.188476562 102.8984375 293.640625 c 1
 102.740234375 327.655273438 103.01953125 353.89453125 103.0546875 397.5625 c 1
 126.321289062 416.043945312 236.896484375 502.50390625 256.40234375 529.333984375 c 1
 256.69921875 570.970703125 256.923828125 622.609375 257.30078125 664.24609375 c 1
 245.297851562 664.288085938 174.543945312 721.821289062 162.65625 743.529296875 c 1
 152.073242188 730.967773438 79.6083984375 669.567382812 51.326171875 656.732421875 c 1
 51.05078125 644.474609375 50.90625 620.212890625 50.7265625 607.953125 c 1
 -16.142578125 552.724609375 l 1
 -17.208984375 573.533203125 -15.341796875 613.064453125 -14.984375 633.908203125 c 1
 49.322265625 679.87890625 l 1
 97.6298828125 701.400390625 205.15234375 810.62109375 212.8046875 820.248046875 c 1
136.0078125 156.67578125 m 1
 136.0078125 146.250976562 204.416992188 77.841796875 214.841796875 77.841796875 c 1
 204.416992188 77.841796875 137 10.4248046875 137 0 c 1
 137 10.4248046875 68.5908203125 78.833984375 58.166015625 78.833984375 c 1
 68.5908203125 78.833984375 136.0078125 146.250976562 136.0078125 156.67578125 c 1
EndSplineSet
Validated: 33
EndChar

StartChar: F
Encoding: 70 70 29
Width: 747
VWidth: 0
Flags: HW
LayerCount: 2
UndoRedoHistory
Layer: 1
Undoes
UndoOperation
Index: 0
Type: 7
WasModified: 1
WasOrder2: 0
Layer: 2
Width: 674
EndUndoOperation
UndoOperation
Index: 1
Type: 3
WasModified: 0
WasOrder2: 0
Layer: 2
EndUndoOperation
UndoOperation
Index: 2
Type: 1
WasModified: 1
WasOrder2: 0
Layer: 2
Width: 571
VWidth: 0
LBearingChange: -132
UnicodeEnc: 0
InstructionsLength: 0
SplineSet
483.904296875 776 m 5
 498.806640625 764.915039062 650.796875 696.322265625 692.927734375 691.83984375 c 5
 676.444335938 681.620117188 646.088867188 651.58203125 638.560546875 639.409179688 c 5
 571.583007812 655.556640625 518.522460938 679.139648438 460.73828125 723.470703125 c 5
 450.375976562 704.079101562 431.8203125 680.912109375 412.8671875 659.700195312 c 5
 412.8671875 467.125976562 l 5
 448.517578125 466.833984375 488.942382812 458.81640625 507.6484375 440.01953125 c 5
 505.345703125 372.134765625 l 5
 480.734375 392.077148438 446.344726562 412.975585938 412.8671875 418.05859375 c 5
 412.8671875 24.015625 l 5
 404.8671875 24.015625 l 5
 404.8671875 247.813476562 l 5
 359.326171875 247.813476562 l 5
 360.149414062 193.235351562 360.217773438 153.2890625 358.90625 143.58984375 c 4
 353.856445312 106.234375 331.575195312 58.666015625 310.59375 26.96484375 c 5
 273.57421875 -12.6484375 l 5
 206.293945312 -42.916015625 210.172851562 -55.873046875 148.44921875 -31.541015625 c 4
 86.7255859375 -7.2080078125 16.3330078125 -68.96484375 -4 -85.146484375 c 5
 12.9931640625 -41.94140625 39.8525390625 -11.1064453125 74.435546875 7.134765625 c 4
 91.7265625 16.255859375 110.939453125 22.3076171875 131.833984375 25.0224609375 c 4
 170.01953125 29.9833984375 187.314453125 22.0517578125 224.943359375 8.927734375 c 5
 266.243164062 7.841796875 259.497070312 10.3017578125 283.3671875 45.59765625 c 4
 303.4609375 75.3115234375 303.276367188 112.58203125 303.419921875 148.194335938 c 4
 303.46875 320.47265625 299.979492188 515.8203125 300.845703125 696.319335938 c 5
 267.638671875 691.493164062 254.595703125 704.797851562 211.73828125 706.940429688 c 4
 139.219726562 710.564453125 33.46875 700.193359375 3.740234375 673.517578125 c 5
 13.232421875 686.830078125 37.666015625 718.03515625 47.32421875 723.138671875 c 4
 92.609375 767.655273438 161.331054688 759.247070312 219.345703125 757.353515625 c 4
 273.413085938 755.389648438 297.1171875 732.703125 345.705078125 762.399414062 c 5
 345.705078125 762.399414062 347.681640625 707.111328125 350.109375 625.4765625 c 5
 391.620117188 654.837890625 460.6171875 740.564453125 483.904296875 776 c 5
404.8671875 650.874023438 m 5
 377.068359375 620.66796875 350.783203125 596.444335938 350.783203125 596.444335938 c 5
 352.057617188 553.021484375 353.389648438 506.294921875 354.673828125 457.737304688 c 5
 364.795898438 463.193359375 383.565429688 466.518554688 404.8671875 467.046875 c 5
 404.8671875 650.874023438 l 5
226.06640625 624.456054688 m 5
 193.728515625 549.000976562 209.489257812 475.69140625 213.423828125 386.39453125 c 5
 212.19140625 289.029296875 232.981445312 157.959960938 127.05078125 114.626953125 c 5
 169.583007812 193.149414062 151.397460938 274.084960938 148.115234375 363.220703125 c 5
 148.115234375 363.220703125 112.299804688 371.649414062 87.01953125 354.794921875 c 5
 89.1259765625 388.502929688 141.794921875 413.784179688 141.794921875 413.784179688 c 5
 148.899414062 511.822265625 138.465820312 567.70703125 226.06640625 624.456054688 c 5
397.978515625 419.22265625 m 4
 383.153320312 419.217773438 368.833984375 415.508789062 355.994140625 406.569335938 c 5
 356.5078125 385.986328125 356.977539062 365.926757812 357.421875 346.255859375 c 5
 404.8671875 346.255859375 l 5
 404.8671875 418.9609375 l 6
 402.561523438 419.1328125 400.263671875 419.22265625 397.978515625 419.22265625 c 4
357.59765625 338.255859375 m 5
 358.25390625 308.658203125 358.798828125 280.905273438 359.201171875 255.813476562 c 5
 404.8671875 255.813476562 l 5
 404.8671875 338.255859375 l 5
 357.59765625 338.255859375 l 5
EndSplineSet
EndUndoOperation
UndoOperation
Index: 3
Type: 1
WasModified: 1
WasOrder2: 0
Layer: 2
Width: 571
VWidth: 0
LBearingChange: 0
UnicodeEnc: 0
InstructionsLength: 0
SplineSet
484.904296875 776 m 5
 499.806640625 764.915039062 651.796875 696.322265625 693.927734375 691.83984375 c 5
 677.444335938 681.620117188 647.088867188 651.58203125 639.560546875 639.409179688 c 5
 572.583007812 655.556640625 519.522460938 679.139648438 461.73828125 723.470703125 c 5
 451.375976562 704.079101562 432.8203125 680.912109375 413.8671875 659.700195312 c 5
 413.8671875 467.125976562 l 5
 449.517578125 466.833984375 489.942382812 458.81640625 508.6484375 440.01953125 c 5
 506.345703125 372.134765625 l 5
 481.734375 392.077148438 447.344726562 412.975585938 413.8671875 418.05859375 c 5
 413.8671875 24.015625 l 5
 405.8671875 24.015625 l 5
 405.8671875 247.813476562 l 5
 360.326171875 247.813476562 l 5
 361.149414062 193.235351562 361.217773438 153.2890625 359.90625 143.58984375 c 4
 354.856445312 106.234375 332.575195312 58.666015625 311.59375 26.96484375 c 5
 274.57421875 -12.6484375 l 5
 207.293945312 -42.916015625 211.172851562 -55.873046875 149.44921875 -31.541015625 c 4
 87.7255859375 -7.2080078125 17.3330078125 -68.96484375 -3 -85.146484375 c 5
 13.9931640625 -41.94140625 40.8525390625 -11.1064453125 75.435546875 7.134765625 c 4
 92.7265625 16.255859375 111.939453125 22.3076171875 132.833984375 25.0224609375 c 4
 171.01953125 29.9833984375 188.314453125 22.0517578125 225.943359375 8.927734375 c 5
 267.243164062 7.841796875 260.497070312 10.3017578125 284.3671875 45.59765625 c 4
 304.4609375 75.3115234375 304.276367188 112.58203125 304.419921875 148.194335938 c 4
 304.46875 320.47265625 300.979492188 515.8203125 301.845703125 696.319335938 c 5
 268.638671875 691.493164062 255.595703125 704.797851562 212.73828125 706.940429688 c 4
 140.219726562 710.564453125 34.46875 700.193359375 4.740234375 673.517578125 c 5
 14.232421875 686.830078125 38.666015625 718.03515625 48.32421875 723.138671875 c 4
 93.609375 767.655273438 162.331054688 759.247070312 220.345703125 757.353515625 c 4
 274.413085938 755.389648438 298.1171875 732.703125 346.705078125 762.399414062 c 5
 346.705078125 762.399414062 348.681640625 707.111328125 351.109375 625.4765625 c 5
 392.620117188 654.837890625 461.6171875 740.564453125 484.904296875 776 c 5
405.8671875 650.874023438 m 5
 378.068359375 620.66796875 351.783203125 596.444335938 351.783203125 596.444335938 c 5
 353.057617188 553.021484375 354.389648438 506.294921875 355.673828125 457.737304688 c 5
 365.795898438 463.193359375 384.565429688 466.518554688 405.8671875 467.046875 c 5
 405.8671875 650.874023438 l 5
227.06640625 624.456054688 m 5
 194.728515625 549.000976562 210.489257812 475.69140625 214.423828125 386.39453125 c 5
 213.19140625 289.029296875 233.981445312 157.959960938 128.05078125 114.626953125 c 5
 170.583007812 193.149414062 152.397460938 274.084960938 149.115234375 363.220703125 c 5
 149.115234375 363.220703125 113.299804688 371.649414062 88.01953125 354.794921875 c 5
 90.1259765625 388.502929688 142.794921875 413.784179688 142.794921875 413.784179688 c 5
 149.899414062 511.822265625 139.465820312 567.70703125 227.06640625 624.456054688 c 5
398.978515625 419.22265625 m 4
 384.153320312 419.217773438 369.833984375 415.508789062 356.994140625 406.569335938 c 5
 357.5078125 385.986328125 357.977539062 365.926757812 358.421875 346.255859375 c 5
 405.8671875 346.255859375 l 5
 405.8671875 418.9609375 l 6
 403.561523438 419.1328125 401.263671875 419.22265625 398.978515625 419.22265625 c 4
358.59765625 338.255859375 m 5
 359.25390625 308.658203125 359.798828125 280.905273438 360.201171875 255.813476562 c 5
 405.8671875 255.813476562 l 5
 405.8671875 338.255859375 l 5
 358.59765625 338.255859375 l 5
EndSplineSet
EndUndoOperation
UndoOperation
Index: 4
Type: 1
WasModified: 1
WasOrder2: 0
Layer: 2
Width: 571
VWidth: 0
LBearingChange: 0
UnicodeEnc: 0
InstructionsLength: 0
SplineSet
484.904296875 775 m 5
 499.806640625 763.915039062 651.796875 695.322265625 693.927734375 690.83984375 c 5
 677.444335938 680.620117188 647.088867188 650.58203125 639.560546875 638.409179688 c 5
 572.583007812 654.556640625 519.522460938 678.139648438 461.73828125 722.470703125 c 5
 451.375976562 703.079101562 432.8203125 679.912109375 413.8671875 658.700195312 c 5
 413.8671875 466.125976562 l 5
 449.517578125 465.833984375 489.942382812 457.81640625 508.6484375 439.01953125 c 5
 506.345703125 371.134765625 l 5
 481.734375 391.077148438 447.344726562 411.975585938 413.8671875 417.05859375 c 5
 413.8671875 23.015625 l 5
 405.8671875 23.015625 l 5
 405.8671875 246.813476562 l 5
 360.326171875 246.813476562 l 5
 361.149414062 192.235351562 361.217773438 152.2890625 359.90625 142.58984375 c 4
 354.856445312 105.234375 332.575195312 57.666015625 311.59375 25.96484375 c 5
 274.57421875 -13.6484375 l 5
 207.293945312 -43.916015625 211.172851562 -56.873046875 149.44921875 -32.541015625 c 4
 87.7255859375 -8.2080078125 17.3330078125 -69.96484375 -3 -86.146484375 c 5
 13.9931640625 -42.94140625 40.8525390625 -12.1064453125 75.435546875 6.134765625 c 4
 92.7265625 15.255859375 111.939453125 21.3076171875 132.833984375 24.0224609375 c 4
 171.01953125 28.9833984375 188.314453125 21.0517578125 225.943359375 7.927734375 c 5
 267.243164062 6.841796875 260.497070312 9.3017578125 284.3671875 44.59765625 c 4
 304.4609375 74.3115234375 304.276367188 111.58203125 304.419921875 147.194335938 c 4
 304.46875 319.47265625 300.979492188 514.8203125 301.845703125 695.319335938 c 5
 268.638671875 690.493164062 255.595703125 703.797851562 212.73828125 705.940429688 c 4
 140.219726562 709.564453125 34.46875 699.193359375 4.740234375 672.517578125 c 5
 14.232421875 685.830078125 38.666015625 717.03515625 48.32421875 722.138671875 c 4
 93.609375 766.655273438 162.331054688 758.247070312 220.345703125 756.353515625 c 4
 274.413085938 754.389648438 298.1171875 731.703125 346.705078125 761.399414062 c 5
 346.705078125 761.399414062 348.681640625 706.111328125 351.109375 624.4765625 c 5
 392.620117188 653.837890625 461.6171875 739.564453125 484.904296875 775 c 5
405.8671875 649.874023438 m 5
 378.068359375 619.66796875 351.783203125 595.444335938 351.783203125 595.444335938 c 5
 353.057617188 552.021484375 354.389648438 505.294921875 355.673828125 456.737304688 c 5
 365.795898438 462.193359375 384.565429688 465.518554688 405.8671875 466.046875 c 5
 405.8671875 649.874023438 l 5
227.06640625 623.456054688 m 5
 194.728515625 548.000976562 210.489257812 474.69140625 214.423828125 385.39453125 c 5
 213.19140625 288.029296875 233.981445312 156.959960938 128.05078125 113.626953125 c 5
 170.583007812 192.149414062 152.397460938 273.084960938 149.115234375 362.220703125 c 5
 149.115234375 362.220703125 113.299804688 370.649414062 88.01953125 353.794921875 c 5
 90.1259765625 387.502929688 142.794921875 412.784179688 142.794921875 412.784179688 c 5
 149.899414062 510.822265625 139.465820312 566.70703125 227.06640625 623.456054688 c 5
398.978515625 418.22265625 m 4
 384.153320312 418.217773438 369.833984375 414.508789062 356.994140625 405.569335938 c 5
 357.5078125 384.986328125 357.977539062 364.926757812 358.421875 345.255859375 c 5
 405.8671875 345.255859375 l 5
 405.8671875 417.9609375 l 6
 403.561523438 418.1328125 401.263671875 418.22265625 398.978515625 418.22265625 c 4
358.59765625 337.255859375 m 5
 359.25390625 307.658203125 359.798828125 279.905273438 360.201171875 254.813476562 c 5
 405.8671875 254.813476562 l 5
 405.8671875 337.255859375 l 5
 358.59765625 337.255859375 l 5
EndSplineSet
EndUndoOperation
UndoOperation
Index: 5
Type: 1
WasModified: 1
WasOrder2: 0
Layer: 2
Width: 571
VWidth: 0
LBearingChange: 0
UnicodeEnc: 0
InstructionsLength: 0
SplineSet
484.904296875 774 m 5
 499.806640625 762.915039062 651.796875 694.322265625 693.927734375 689.83984375 c 5
 677.444335938 679.620117188 647.088867188 649.58203125 639.560546875 637.409179688 c 5
 572.583007812 653.556640625 519.522460938 677.139648438 461.73828125 721.470703125 c 5
 451.375976562 702.079101562 432.8203125 678.912109375 413.8671875 657.700195312 c 5
 413.8671875 465.125976562 l 5
 449.517578125 464.833984375 489.942382812 456.81640625 508.6484375 438.01953125 c 5
 506.345703125 370.134765625 l 5
 481.734375 390.077148438 447.344726562 410.975585938 413.8671875 416.05859375 c 5
 413.8671875 22.015625 l 5
 405.8671875 22.015625 l 5
 405.8671875 245.813476562 l 5
 360.326171875 245.813476562 l 5
 361.149414062 191.235351562 361.217773438 151.2890625 359.90625 141.58984375 c 4
 354.856445312 104.234375 332.575195312 56.666015625 311.59375 24.96484375 c 5
 274.57421875 -14.6484375 l 5
 207.293945312 -44.916015625 211.172851562 -57.873046875 149.44921875 -33.541015625 c 4
 87.7255859375 -9.2080078125 17.3330078125 -70.96484375 -3 -87.146484375 c 5
 13.9931640625 -43.94140625 40.8525390625 -13.1064453125 75.435546875 5.134765625 c 4
 92.7265625 14.255859375 111.939453125 20.3076171875 132.833984375 23.0224609375 c 4
 171.01953125 27.9833984375 188.314453125 20.0517578125 225.943359375 6.927734375 c 5
 267.243164062 5.841796875 260.497070312 8.3017578125 284.3671875 43.59765625 c 4
 304.4609375 73.3115234375 304.276367188 110.58203125 304.419921875 146.194335938 c 4
 304.46875 318.47265625 300.979492188 513.8203125 301.845703125 694.319335938 c 5
 268.638671875 689.493164062 255.595703125 702.797851562 212.73828125 704.940429688 c 4
 140.219726562 708.564453125 34.46875 698.193359375 4.740234375 671.517578125 c 5
 14.232421875 684.830078125 38.666015625 716.03515625 48.32421875 721.138671875 c 4
 93.609375 765.655273438 162.331054688 757.247070312 220.345703125 755.353515625 c 4
 274.413085938 753.389648438 298.1171875 730.703125 346.705078125 760.399414062 c 5
 346.705078125 760.399414062 348.681640625 705.111328125 351.109375 623.4765625 c 5
 392.620117188 652.837890625 461.6171875 738.564453125 484.904296875 774 c 5
405.8671875 648.874023438 m 5
 378.068359375 618.66796875 351.783203125 594.444335938 351.783203125 594.444335938 c 5
 353.057617188 551.021484375 354.389648438 504.294921875 355.673828125 455.737304688 c 5
 365.795898438 461.193359375 384.565429688 464.518554688 405.8671875 465.046875 c 5
 405.8671875 648.874023438 l 5
227.06640625 622.456054688 m 5
 194.728515625 547.000976562 210.489257812 473.69140625 214.423828125 384.39453125 c 5
 213.19140625 287.029296875 233.981445312 155.959960938 128.05078125 112.626953125 c 5
 170.583007812 191.149414062 152.397460938 272.084960938 149.115234375 361.220703125 c 5
 149.115234375 361.220703125 113.299804688 369.649414062 88.01953125 352.794921875 c 5
 90.1259765625 386.502929688 142.794921875 411.784179688 142.794921875 411.784179688 c 5
 149.899414062 509.822265625 139.465820312 565.70703125 227.06640625 622.456054688 c 5
398.978515625 417.22265625 m 4
 384.153320312 417.217773438 369.833984375 413.508789062 356.994140625 404.569335938 c 5
 357.5078125 383.986328125 357.977539062 363.926757812 358.421875 344.255859375 c 5
 405.8671875 344.255859375 l 5
 405.8671875 416.9609375 l 6
 403.561523438 417.1328125 401.263671875 417.22265625 398.978515625 417.22265625 c 4
358.59765625 336.255859375 m 5
 359.25390625 306.658203125 359.798828125 278.905273438 360.201171875 253.813476562 c 5
 405.8671875 253.813476562 l 5
 405.8671875 336.255859375 l 5
 358.59765625 336.255859375 l 5
EndSplineSet
EndUndoOperation
UndoOperation
Index: 6
Type: 1
WasModified: 1
WasOrder2: 0
Layer: 2
Width: 571
VWidth: 0
LBearingChange: 0
UnicodeEnc: 0
InstructionsLength: 0
SplineSet
485.904296875 774 m 5
 500.806640625 762.915039062 652.796875 694.322265625 694.927734375 689.83984375 c 5
 678.444335938 679.620117188 648.088867188 649.58203125 640.560546875 637.409179688 c 5
 573.583007812 653.556640625 520.522460938 677.139648438 462.73828125 721.470703125 c 5
 452.375976562 702.079101562 433.8203125 678.912109375 414.8671875 657.700195312 c 5
 414.8671875 465.125976562 l 5
 450.517578125 464.833984375 490.942382812 456.81640625 509.6484375 438.01953125 c 5
 507.345703125 370.134765625 l 5
 482.734375 390.077148438 448.344726562 410.975585938 414.8671875 416.05859375 c 5
 414.8671875 22.015625 l 5
 406.8671875 22.015625 l 5
 406.8671875 245.813476562 l 5
 361.326171875 245.813476562 l 5
 362.149414062 191.235351562 362.217773438 151.2890625 360.90625 141.58984375 c 4
 355.856445312 104.234375 333.575195312 56.666015625 312.59375 24.96484375 c 5
 275.57421875 -14.6484375 l 5
 208.293945312 -44.916015625 212.172851562 -57.873046875 150.44921875 -33.541015625 c 4
 88.7255859375 -9.2080078125 18.3330078125 -70.96484375 -2 -87.146484375 c 5
 14.9931640625 -43.94140625 41.8525390625 -13.1064453125 76.435546875 5.134765625 c 4
 93.7265625 14.255859375 112.939453125 20.3076171875 133.833984375 23.0224609375 c 4
 172.01953125 27.9833984375 189.314453125 20.0517578125 226.943359375 6.927734375 c 5
 268.243164062 5.841796875 261.497070312 8.3017578125 285.3671875 43.59765625 c 4
 305.4609375 73.3115234375 305.276367188 110.58203125 305.419921875 146.194335938 c 4
 305.46875 318.47265625 301.979492188 513.8203125 302.845703125 694.319335938 c 5
 269.638671875 689.493164062 256.595703125 702.797851562 213.73828125 704.940429688 c 4
 141.219726562 708.564453125 35.46875 698.193359375 5.740234375 671.517578125 c 5
 15.232421875 684.830078125 39.666015625 716.03515625 49.32421875 721.138671875 c 4
 94.609375 765.655273438 163.331054688 757.247070312 221.345703125 755.353515625 c 4
 275.413085938 753.389648438 299.1171875 730.703125 347.705078125 760.399414062 c 5
 347.705078125 760.399414062 349.681640625 705.111328125 352.109375 623.4765625 c 5
 393.620117188 652.837890625 462.6171875 738.564453125 485.904296875 774 c 5
406.8671875 648.874023438 m 5
 379.068359375 618.66796875 352.783203125 594.444335938 352.783203125 594.444335938 c 5
 354.057617188 551.021484375 355.389648438 504.294921875 356.673828125 455.737304688 c 5
 366.795898438 461.193359375 385.565429688 464.518554688 406.8671875 465.046875 c 5
 406.8671875 648.874023438 l 5
228.06640625 622.456054688 m 5
 195.728515625 547.000976562 211.489257812 473.69140625 215.423828125 384.39453125 c 5
 214.19140625 287.029296875 234.981445312 155.959960938 129.05078125 112.626953125 c 5
 171.583007812 191.149414062 153.397460938 272.084960938 150.115234375 361.220703125 c 5
 150.115234375 361.220703125 114.299804688 369.649414062 89.01953125 352.794921875 c 5
 91.1259765625 386.502929688 143.794921875 411.784179688 143.794921875 411.784179688 c 5
 150.899414062 509.822265625 140.465820312 565.70703125 228.06640625 622.456054688 c 5
399.978515625 417.22265625 m 4
 385.153320312 417.217773438 370.833984375 413.508789062 357.994140625 404.569335938 c 5
 358.5078125 383.986328125 358.977539062 363.926757812 359.421875 344.255859375 c 5
 406.8671875 344.255859375 l 5
 406.8671875 416.9609375 l 6
 404.561523438 417.1328125 402.263671875 417.22265625 399.978515625 417.22265625 c 4
359.59765625 336.255859375 m 5
 360.25390625 306.658203125 360.798828125 278.905273438 361.201171875 253.813476562 c 5
 406.8671875 253.813476562 l 5
 406.8671875 336.255859375 l 5
 359.59765625 336.255859375 l 5
EndSplineSet
EndUndoOperation
UndoOperation
Index: 7
Type: 1
WasModified: 1
WasOrder2: 0
Layer: 2
Width: 571
VWidth: 0
LBearingChange: 0
UnicodeEnc: 0
InstructionsLength: 0
SplineSet
486.904296875 774 m 5
 501.806640625 762.915039062 653.796875 694.322265625 695.927734375 689.83984375 c 5
 679.444335938 679.620117188 649.088867188 649.58203125 641.560546875 637.409179688 c 5
 574.583007812 653.556640625 521.522460938 677.139648438 463.73828125 721.470703125 c 5
 453.375976562 702.079101562 434.8203125 678.912109375 415.8671875 657.700195312 c 5
 415.8671875 465.125976562 l 5
 451.517578125 464.833984375 491.942382812 456.81640625 510.6484375 438.01953125 c 5
 508.345703125 370.134765625 l 5
 483.734375 390.077148438 449.344726562 410.975585938 415.8671875 416.05859375 c 5
 415.8671875 22.015625 l 5
 407.8671875 22.015625 l 5
 407.8671875 245.813476562 l 5
 362.326171875 245.813476562 l 5
 363.149414062 191.235351562 363.217773438 151.2890625 361.90625 141.58984375 c 4
 356.856445312 104.234375 334.575195312 56.666015625 313.59375 24.96484375 c 5
 276.57421875 -14.6484375 l 5
 209.293945312 -44.916015625 213.172851562 -57.873046875 151.44921875 -33.541015625 c 4
 89.7255859375 -9.2080078125 19.3330078125 -70.96484375 -1 -87.146484375 c 5
 15.9931640625 -43.94140625 42.8525390625 -13.1064453125 77.435546875 5.134765625 c 4
 94.7265625 14.255859375 113.939453125 20.3076171875 134.833984375 23.0224609375 c 4
 173.01953125 27.9833984375 190.314453125 20.0517578125 227.943359375 6.927734375 c 5
 269.243164062 5.841796875 262.497070312 8.3017578125 286.3671875 43.59765625 c 4
 306.4609375 73.3115234375 306.276367188 110.58203125 306.419921875 146.194335938 c 4
 306.46875 318.47265625 302.979492188 513.8203125 303.845703125 694.319335938 c 5
 270.638671875 689.493164062 257.595703125 702.797851562 214.73828125 704.940429688 c 4
 142.219726562 708.564453125 36.46875 698.193359375 6.740234375 671.517578125 c 5
 16.232421875 684.830078125 40.666015625 716.03515625 50.32421875 721.138671875 c 4
 95.609375 765.655273438 164.331054688 757.247070312 222.345703125 755.353515625 c 4
 276.413085938 753.389648438 300.1171875 730.703125 348.705078125 760.399414062 c 5
 348.705078125 760.399414062 350.681640625 705.111328125 353.109375 623.4765625 c 5
 394.620117188 652.837890625 463.6171875 738.564453125 486.904296875 774 c 5
407.8671875 648.874023438 m 5
 380.068359375 618.66796875 353.783203125 594.444335938 353.783203125 594.444335938 c 5
 355.057617188 551.021484375 356.389648438 504.294921875 357.673828125 455.737304688 c 5
 367.795898438 461.193359375 386.565429688 464.518554688 407.8671875 465.046875 c 5
 407.8671875 648.874023438 l 5
229.06640625 622.456054688 m 5
 196.728515625 547.000976562 212.489257812 473.69140625 216.423828125 384.39453125 c 5
 215.19140625 287.029296875 235.981445312 155.959960938 130.05078125 112.626953125 c 5
 172.583007812 191.149414062 154.397460938 272.084960938 151.115234375 361.220703125 c 5
 151.115234375 361.220703125 115.299804688 369.649414062 90.01953125 352.794921875 c 5
 92.1259765625 386.502929688 144.794921875 411.784179688 144.794921875 411.784179688 c 5
 151.899414062 509.822265625 141.465820312 565.70703125 229.06640625 622.456054688 c 5
400.978515625 417.22265625 m 4
 386.153320312 417.217773438 371.833984375 413.508789062 358.994140625 404.569335938 c 5
 359.5078125 383.986328125 359.977539062 363.926757812 360.421875 344.255859375 c 5
 407.8671875 344.255859375 l 5
 407.8671875 416.9609375 l 6
 405.561523438 417.1328125 403.263671875 417.22265625 400.978515625 417.22265625 c 4
360.59765625 336.255859375 m 5
 361.25390625 306.658203125 361.798828125 278.905273438 362.201171875 253.813476562 c 5
 407.8671875 253.813476562 l 5
 407.8671875 336.255859375 l 5
 360.59765625 336.255859375 l 5
EndSplineSet
EndUndoOperation
UndoOperation
Index: 8
Type: 1
WasModified: 1
WasOrder2: 0
Layer: 2
Width: 571
VWidth: 0
LBearingChange: 0
UnicodeEnc: 0
InstructionsLength: 0
SplineSet
487.904296875 774 m 5
 502.806640625 762.915039062 654.796875 694.322265625 696.927734375 689.83984375 c 5
 680.444335938 679.620117188 650.088867188 649.58203125 642.560546875 637.409179688 c 5
 575.583007812 653.556640625 522.522460938 677.139648438 464.73828125 721.470703125 c 5
 454.375976562 702.079101562 435.8203125 678.912109375 416.8671875 657.700195312 c 5
 416.8671875 465.125976562 l 5
 452.517578125 464.833984375 492.942382812 456.81640625 511.6484375 438.01953125 c 5
 509.345703125 370.134765625 l 5
 484.734375 390.077148438 450.344726562 410.975585938 416.8671875 416.05859375 c 5
 416.8671875 22.015625 l 5
 408.8671875 22.015625 l 5
 408.8671875 245.813476562 l 5
 363.326171875 245.813476562 l 5
 364.149414062 191.235351562 364.217773438 151.2890625 362.90625 141.58984375 c 4
 357.856445312 104.234375 335.575195312 56.666015625 314.59375 24.96484375 c 5
 277.57421875 -14.6484375 l 5
 210.293945312 -44.916015625 214.172851562 -57.873046875 152.44921875 -33.541015625 c 4
 90.7255859375 -9.2080078125 20.3330078125 -70.96484375 0 -87.146484375 c 5
 16.9931640625 -43.94140625 43.8525390625 -13.1064453125 78.435546875 5.134765625 c 4
 95.7265625 14.255859375 114.939453125 20.3076171875 135.833984375 23.0224609375 c 4
 174.01953125 27.9833984375 191.314453125 20.0517578125 228.943359375 6.927734375 c 5
 270.243164062 5.841796875 263.497070312 8.3017578125 287.3671875 43.59765625 c 4
 307.4609375 73.3115234375 307.276367188 110.58203125 307.419921875 146.194335938 c 4
 307.46875 318.47265625 303.979492188 513.8203125 304.845703125 694.319335938 c 5
 271.638671875 689.493164062 258.595703125 702.797851562 215.73828125 704.940429688 c 4
 143.219726562 708.564453125 37.46875 698.193359375 7.740234375 671.517578125 c 5
 17.232421875 684.830078125 41.666015625 716.03515625 51.32421875 721.138671875 c 4
 96.609375 765.655273438 165.331054688 757.247070312 223.345703125 755.353515625 c 4
 277.413085938 753.389648438 301.1171875 730.703125 349.705078125 760.399414062 c 5
 349.705078125 760.399414062 351.681640625 705.111328125 354.109375 623.4765625 c 5
 395.620117188 652.837890625 464.6171875 738.564453125 487.904296875 774 c 5
408.8671875 648.874023438 m 5
 381.068359375 618.66796875 354.783203125 594.444335938 354.783203125 594.444335938 c 5
 356.057617188 551.021484375 357.389648438 504.294921875 358.673828125 455.737304688 c 5
 368.795898438 461.193359375 387.565429688 464.518554688 408.8671875 465.046875 c 5
 408.8671875 648.874023438 l 5
230.06640625 622.456054688 m 5
 197.728515625 547.000976562 213.489257812 473.69140625 217.423828125 384.39453125 c 5
 216.19140625 287.029296875 236.981445312 155.959960938 131.05078125 112.626953125 c 5
 173.583007812 191.149414062 155.397460938 272.084960938 152.115234375 361.220703125 c 5
 152.115234375 361.220703125 116.299804688 369.649414062 91.01953125 352.794921875 c 5
 93.1259765625 386.502929688 145.794921875 411.784179688 145.794921875 411.784179688 c 5
 152.899414062 509.822265625 142.465820312 565.70703125 230.06640625 622.456054688 c 5
401.978515625 417.22265625 m 4
 387.153320312 417.217773438 372.833984375 413.508789062 359.994140625 404.569335938 c 5
 360.5078125 383.986328125 360.977539062 363.926757812 361.421875 344.255859375 c 5
 408.8671875 344.255859375 l 5
 408.8671875 416.9609375 l 6
 406.561523438 417.1328125 404.263671875 417.22265625 401.978515625 417.22265625 c 4
361.59765625 336.255859375 m 5
 362.25390625 306.658203125 362.798828125 278.905273438 363.201171875 253.813476562 c 5
 408.8671875 253.813476562 l 5
 408.8671875 336.255859375 l 5
 361.59765625 336.255859375 l 5
EndSplineSet
EndUndoOperation
UndoOperation
Index: 9
Type: 1
WasModified: 1
WasOrder2: 0
Layer: 2
Width: 571
VWidth: 0
LBearingChange: 0
UnicodeEnc: 0
InstructionsLength: 0
EndUndoOperation
UndoOperation
Index: 10
Type: 3
WasModified: 1
WasOrder2: 0
Layer: 2
EndUndoOperation
UndoOperation
Index: 11
Type: 1
WasModified: 0
WasOrder2: 0
Layer: 2
Width: 571
VWidth: 0
LBearingChange: 0
UnicodeEnc: 0
InstructionsLength: 0
SplineSet
487.90625 774 m 5
 502.80859375 762.9140625 654.798828125 694.3203125 696.9296875 689.837890625 c 5
 680.446289062 679.618164062 650.090820312 649.580078125 642.5625 637.40625 c 5
 575.584960938 653.5546875 522.524414062 677.137695312 464.740234375 721.46875 c 5
 450.951171875 695.6640625 422.6796875 663.20703125 398.24609375 637.541015625 c 5
 398.24609375 464.537109375 l 5
 437.2734375 467.361328125 489.573242188 460.198242188 511.6484375 438.017578125 c 5
 509.345703125 370.1328125 l 5
 480.129882812 393.805664062 437.138671875 418.819335938 398.24609375 417.130859375 c 5
 398.24609375 22.01171875 l 5
 390.24609375 22.01171875 l 5
 390.24609375 416.390625 l 5
 379.623046875 414.858398438 369.41015625 411.123046875 359.994140625 404.56640625 c 5
 363.18359375 276.765625 365.307617188 159.352539062 362.90625 141.587890625 c 4
 357.856445312 104.231445312 335.577148438 56.666015625 314.595703125 24.96484375 c 5
 277.57421875 -14.6484375 l 5
 210.293945312 -44.916015625 214.174804688 -57.8759765625 152.451171875 -33.54296875 c 4
 90.7275390625 -9.2099609375 20.3330078125 -70.966796875 0 -87.1484375 c 5
 16.9931640625 -43.943359375 43.8525390625 -13.1083984375 78.435546875 5.1328125 c 4
 95.7265625 14.25390625 114.939453125 20.3056640625 135.833984375 23.01953125 c 4
 174.01953125 27.98046875 191.314453125 20.0498046875 228.943359375 6.92578125 c 5
 270.243164062 5.8388671875 263.5 8.30078125 287.369140625 43.59765625 c 4
 307.462890625 73.3115234375 307.276367188 110.580078125 307.419921875 146.19140625 c 4
 307.46875 318.470703125 303.979492188 513.819335938 304.845703125 694.318359375 c 5
 271.638671875 689.4921875 258.59765625 702.797851562 215.740234375 704.939453125 c 4
 143.221679688 708.563476562 37.46875 698.192382812 7.740234375 671.517578125 c 5
 17.232421875 684.829101562 41.666015625 716.032226562 51.32421875 721.13671875 c 4
 96.609375 765.65234375 165.333007812 757.244140625 223.34765625 755.3515625 c 4
 277.415039062 753.387695312 301.1171875 730.701171875 349.705078125 760.396484375 c 5
 349.705078125 760.396484375 351.68359375 705.108398438 354.111328125 623.474609375 c 5
 395.622070312 652.8359375 464.619140625 738.563476562 487.90625 774 c 5
390.24609375 629.22265625 m 5
 370.38671875 608.827148438 354.78515625 594.44140625 354.78515625 594.44140625 c 5
 356.059570312 551.018554688 357.389648438 504.291992188 358.673828125 455.734375 c 5
 365.70703125 459.526367188 376.916992188 462.293945312 390.24609375 463.80859375 c 5
 390.24609375 629.22265625 l 5
230.06640625 622.453125 m 5
 197.728515625 546.998046875 213.491210938 473.688476562 217.42578125 384.392578125 c 5
 216.193359375 287.026367188 236.981445312 155.958007812 131.05078125 112.625 c 5
 173.583007812 191.146484375 155.399414062 272.083984375 152.1171875 361.220703125 c 5
 152.1171875 361.220703125 116.301757812 369.646484375 91.021484375 352.79296875 c 5
 93.1279296875 386.500976562 145.794921875 411.78125 145.794921875 411.78125 c 5
 152.899414062 509.819335938 142.465820312 565.705078125 230.06640625 622.453125 c 5
EndSplineSet
EndUndoOperation
UndoOperation
Index: 12
Type: 1
WasModified: 1
WasOrder2: 0
Layer: 2
Width: 1024
VWidth: 0
LBearingChange: 0
UnicodeEnc: 0
InstructionsLength: 0
SplineSet
487.90625 774 m 1
 502.80859375 762.9140625 654.798828125 694.3203125 696.9296875 689.837890625 c 1
 680.446289062 679.618164062 650.090820312 649.580078125 642.5625 637.40625 c 1
 575.584960938 653.5546875 522.524414062 677.137695312 464.740234375 721.46875 c 1
 450.951171875 695.6640625 422.6796875 663.20703125 398.24609375 637.541015625 c 1
 398.24609375 464.537109375 l 1
 437.2734375 467.361328125 489.573242188 460.198242188 511.6484375 438.017578125 c 1
 509.345703125 370.1328125 l 1
 480.129882812 393.805664062 437.138671875 418.819335938 398.24609375 417.130859375 c 1
 398.24609375 22.01171875 l 1
 390.24609375 22.01171875 l 1
 390.24609375 416.390625 l 1
 379.623046875 414.858398438 369.41015625 411.123046875 359.994140625 404.56640625 c 1
 363.18359375 276.765625 365.307617188 159.352539062 362.90625 141.587890625 c 0
 357.856445312 104.231445312 335.577148438 56.666015625 314.595703125 24.96484375 c 1
 277.57421875 -14.6484375 l 1
 210.293945312 -44.916015625 214.174804688 -57.8759765625 152.451171875 -33.54296875 c 0
 90.7275390625 -9.2099609375 20.3330078125 -70.966796875 0 -87.1484375 c 1
 16.9931640625 -43.943359375 43.8525390625 -13.1083984375 78.435546875 5.1328125 c 0
 95.7265625 14.25390625 114.939453125 20.3056640625 135.833984375 23.01953125 c 0
 174.01953125 27.98046875 191.314453125 20.0498046875 228.943359375 6.92578125 c 1
 270.243164062 5.8388671875 263.5 8.30078125 287.369140625 43.59765625 c 0
 307.462890625 73.3115234375 307.276367188 110.580078125 307.419921875 146.19140625 c 0
 307.46875 318.470703125 303.979492188 513.819335938 304.845703125 694.318359375 c 1
 271.638671875 689.4921875 258.59765625 702.797851562 215.740234375 704.939453125 c 0
 143.221679688 708.563476562 37.46875 698.192382812 7.740234375 671.517578125 c 1
 17.232421875 684.829101562 41.666015625 716.032226562 51.32421875 721.13671875 c 0
 96.609375 765.65234375 165.333007812 757.244140625 223.34765625 755.3515625 c 0
 277.415039062 753.387695312 301.1171875 730.701171875 349.705078125 760.396484375 c 1
 349.705078125 760.396484375 351.68359375 705.108398438 354.111328125 623.474609375 c 1
 395.622070312 652.8359375 464.619140625 738.563476562 487.90625 774 c 1
390.24609375 629.22265625 m 1
 370.38671875 608.827148438 354.78515625 594.44140625 354.78515625 594.44140625 c 1
 356.059570312 551.018554688 357.389648438 504.291992188 358.673828125 455.734375 c 1
 365.70703125 459.526367188 376.916992188 462.293945312 390.24609375 463.80859375 c 1
 390.24609375 629.22265625 l 1
230.06640625 622.453125 m 1
 197.728515625 546.998046875 213.491210938 473.688476562 217.42578125 384.392578125 c 1
 216.193359375 287.026367188 236.981445312 155.958007812 131.05078125 112.625 c 1
 173.583007812 191.146484375 155.399414062 272.083984375 152.1171875 361.220703125 c 1
 152.1171875 361.220703125 116.301757812 369.646484375 91.021484375 352.79296875 c 1
 93.1279296875 386.500976562 145.794921875 411.78125 145.794921875 411.78125 c 1
 152.899414062 509.819335938 142.465820312 565.705078125 230.06640625 622.453125 c 1
EndSplineSet
EndUndoOperation
EndUndoes
Redoes
EndRedoes
EndUndoRedoHistory
Fore
SplineSet
512.904296875 828.454101562 m 5
 527.806640625 817.369140625 679.796875 748.776367188 721.927734375 744.293945312 c 5
 705.444335938 734.07421875 675.088867188 704.036132812 667.560546875 691.86328125 c 5
 600.583007812 708.010742188 547.522460938 731.59375 489.73828125 775.924804688 c 5
 479.375976562 756.533203125 460.8203125 733.366210938 441.8671875 712.154296875 c 5
 441.8671875 519.580078125 l 5
 477.517578125 519.288085938 517.942382812 511.270507812 536.6484375 492.473632812 c 5
 534.345703125 424.588867188 l 5
 509.734375 444.53125 475.344726562 465.4296875 441.8671875 470.512695312 c 5
 441.8671875 76.4697265625 l 5
 433.8671875 76.4697265625 l 5
 433.8671875 300.267578125 l 5
 388.326171875 300.267578125 l 5
 389.149414062 245.689453125 389.217773438 205.743164062 387.90625 196.043945312 c 4
 382.856445312 158.688476562 360.575195312 111.120117188 339.59375 79.4189453125 c 5
 302.57421875 39.8056640625 l 5
 235.293945312 9.5380859375 239.172851562 -3.4189453125 177.44921875 20.9130859375 c 4
 115.725585938 45.24609375 45.3330078125 -16.5107421875 25 -32.6923828125 c 5
 41.9931640625 10.5126953125 68.8525390625 41.34765625 103.435546875 59.5888671875 c 4
 120.7265625 68.7099609375 139.939453125 74.76171875 160.833984375 77.4765625 c 4
 199.01953125 82.4375 216.314453125 74.505859375 253.943359375 61.3818359375 c 5
 295.243164062 60.2958984375 288.497070312 62.755859375 312.3671875 98.0517578125 c 4
 332.4609375 127.765625 332.276367188 165.036132812 332.419921875 200.6484375 c 4
 332.46875 372.926757812 328.979492188 568.274414062 329.845703125 748.7734375 c 5
 296.638671875 743.947265625 283.595703125 757.251953125 240.73828125 759.39453125 c 4
 168.219726562 763.018554688 62.46875 752.647460938 32.740234375 725.971679688 c 5
 42.232421875 739.284179688 66.666015625 770.489257812 76.32421875 775.592773438 c 4
 121.609375 820.109375 190.331054688 811.701171875 248.345703125 809.807617188 c 4
 302.413085938 807.84375 326.1171875 785.157226562 374.705078125 814.853515625 c 5
 374.705078125 814.853515625 376.681640625 759.565429688 379.109375 677.930664062 c 5
 420.620117188 707.291992188 489.6171875 793.018554688 512.904296875 828.454101562 c 5
433.8671875 703.328125 m 5
 406.068359375 673.122070312 379.783203125 648.8984375 379.783203125 648.8984375 c 5
 381.057617188 605.475585938 382.389648438 558.749023438 383.673828125 510.19140625 c 5
 393.795898438 515.647460938 412.565429688 518.97265625 433.8671875 519.500976562 c 5
 433.8671875 703.328125 l 5
255.06640625 676.91015625 m 5
 222.728515625 601.455078125 238.489257812 528.145507812 242.423828125 438.848632812 c 5
 241.19140625 341.483398438 261.981445312 210.4140625 156.05078125 167.081054688 c 5
 198.583007812 245.603515625 180.397460938 326.5390625 177.115234375 415.674804688 c 5
 177.115234375 415.674804688 155.956054688 413.444335938 116.01953125 407.249023438 c 5
 132.782226562 430.297851562 170.794921875 466.23828125 170.794921875 466.23828125 c 5
 177.899414062 564.276367188 167.465820312 620.161132812 255.06640625 676.91015625 c 5
426.978515625 471.676757812 m 4
 412.153320312 471.671875 397.833984375 467.962890625 384.994140625 459.0234375 c 5
 385.5078125 438.440429688 385.977539062 418.380859375 386.421875 398.709960938 c 5
 433.8671875 398.709960938 l 5
 433.8671875 471.415039062 l 6
 431.561523438 471.586914062 429.263671875 471.676757812 426.978515625 471.676757812 c 4
386.59765625 390.709960938 m 5
 387.25390625 361.112304688 387.798828125 333.359375 388.201171875 308.267578125 c 5
 433.8671875 308.267578125 l 5
 433.8671875 390.709960938 l 5
 386.59765625 390.709960938 l 5
EndSplineSet
EndChar

StartChar: P
Encoding: 80 80 30
Width: 652
VWidth: 0
Flags: HW
LayerCount: 2
UndoRedoHistory
Layer: 1
Undoes
UndoOperation
Index: 0
Type: 7
WasModified: 1
WasOrder2: 0
Layer: 2
Width: 618
EndUndoOperation
UndoOperation
Index: 1
Type: 3
WasModified: 0
WasOrder2: 0
Layer: 2
EndUndoOperation
UndoOperation
Index: 2
Type: 1
WasModified: 1
WasOrder2: 0
Layer: 2
Width: 535
VWidth: 0
LBearingChange: 0
UnicodeEnc: 0
InstructionsLength: 0
SplineSet
245.80078125 774 m 5
 245.807617188 629.251953125 l 5
 427.674804688 769.8515625 l 5
 465.96484375 724.401367188 535.440429688 671.750976562 586.631835938 642.02734375 c 5
 602.471679688 630.939453125 l 5
 574.079101562 615.09375 l 5
 574.079101562 145.438476562 l 5
 574.079101562 145.438476562 583.409179688 148.924804688 589.651367188 148.9453125 c 5
 547.930664062 86.2529296875 441.487304688 11.3193359375 381.174804688 -26.7421875 c 5
 353.430664062 8.341796875 294.8671875 72.17578125 245.807617188 83.294921875 c 5
 245.045898438 -198.28515625 l 5
 245.045898438 -234.349609375 l 6
 245.6640625 -252.774414062 252.444335938 -266.883789062 254.616210938 -280.11328125 c 5
 249.725585938 -276.831054688 222.073242188 -248.095703125 215.276367188 -246.283203125 c 4
 198.109375 -252.122070312 178.950195312 -273.372070312 161.413085938 -282.434570312 c 5
 169.528320312 -257.732421875 185.319335938 -228.051757812 187.678710938 -212.9296875 c 4
 187.7109375 -205.66015625 187.697265625 -205.918945312 187.74609375 -196.451171875 c 6
 187.74609375 85.96484375 l 6
 186.971679688 86.955078125 187.049804688 87.8037109375 185.966796875 88.478515625 c 4
 176.23828125 94.3525390625 168.428710938 85.83203125 159.244140625 80.2109375 c 5
 163.040039062 92.966796875 174.90234375 116.516601562 182.953125 119.794921875 c 4
 185.103515625 120.669921875 186.067382812 121.969726562 187.74609375 123.619140625 c 4
 187.506835938 296.431640625 187.713867188 670.732421875 187.732421875 704.123046875 c 5
 148.950195312 721.876953125 95.4111328125 668.766601562 58.93359375 638.162109375 c 5
 94.38671875 691.110351562 177.88671875 763.163085938 245.80078125 774 c 5
388.623046875 706.970703125 m 5
 295.33984375 629.736328125 l 5
 295.33984375 136.662109375 l 5
 341.926757812 117.364257812 375.438476562 86.580078125 415.21484375 45.369140625 c 4
 418.501953125 43.4658203125 421.865234375 43.6376953125 425.1953125 43.0859375 c 4
 448.266601562 53.3232421875 509.459960938 106.997070312 517.47265625 125.313476562 c 5
 517.47265625 599.188476562 l 5
 476.557617188 616.698242188 412.935546875 668.357421875 388.623046875 706.970703125 c 5
139.044921875 636.056640625 m 5
 106.70703125 560.600585938 122.469726562 487.291992188 126.404296875 397.99609375 c 5
 125.171875 300.629882812 145.959960938 169.560546875 40.029296875 126.228515625 c 5
 82.5615234375 204.75 64.3779296875 285.685546875 61.095703125 374.822265625 c 5
 61.095703125 374.822265625 25.2802734375 383.249023438 0 366.39453125 c 5
 2.1064453125 400.102539062 54.7734375 425.384765625 54.7734375 425.384765625 c 5
 61.8779296875 523.422851562 51.4443359375 579.307617188 139.044921875 636.056640625 c 5
287.33984375 623.111328125 m 5
 245.80078125 588.71875 l 5
 245.80078125 484.2734375 l 5
 286.701171875 484.2734375 l 5
 286.701171875 476.2734375 l 5
 245.80078125 476.2734375 l 5
 245.80078125 393.830078125 l 5
 286.701171875 393.830078125 l 5
 286.701171875 385.830078125 l 5
 245.80078125 385.830078125 l 5
 245.80078125 151.66796875 l 5
 260.885742188 148.54296875 274.6015625 144.57421875 287.33984375 139.80859375 c 5
 287.33984375 623.111328125 l 5
EndSplineSet
EndUndoOperation
UndoOperation
Index: 3
Type: 1
WasModified: 1
WasOrder2: 0
Layer: 2
Width: 535
VWidth: 0
LBearingChange: 0
UnicodeEnc: 0
InstructionsLength: 0
EndUndoOperation
UndoOperation
Index: 4
Type: 3
WasModified: 1
WasOrder2: 0
Layer: 2
EndUndoOperation
UndoOperation
Index: 5
Type: 1
WasModified: 0
WasOrder2: 0
Layer: 2
Width: 535
VWidth: 0
LBearingChange: 0
UnicodeEnc: 0
InstructionsLength: 0
SplineSet
182.80078125 803.662109375 m 5
 182.799804688 658.9140625 l 5
 364.666992188 799.513671875 l 5
 402.958007812 754.063476562 472.431640625 701.413085938 523.622070312 671.689453125 c 5
 539.463867188 660.6015625 l 5
 511.072265625 644.75390625 l 5
 511.072265625 175.09765625 l 5
 511.072265625 175.09765625 520.40234375 178.5859375 526.643554688 178.607421875 c 5
 484.922851562 115.915039062 378.48046875 40.98046875 318.166992188 2.919921875 c 5
 290.422851562 38.00390625 231.860351562 101.837890625 182.799804688 112.95703125 c 5
 182.038085938 -168.625 l 5
 182.038085938 -204.6875 l 6
 182.65625 -223.112304688 189.436523438 -237.22265625 191.609375 -250.451171875 c 5
 186.71875 -247.168945312 159.06640625 -218.434570312 152.268554688 -216.62109375 c 4
 135.1015625 -222.459960938 115.943359375 -243.711914062 98.40625 -252.775390625 c 5
 106.521484375 -228.071289062 122.311523438 -198.389648438 124.670898438 -183.267578125 c 4
 124.7109375 -175.998046875 124.69140625 -176.256835938 124.741210938 -166.7890625 c 6
 124.741210938 115.626953125 l 6
 123.96484375 116.6171875 124.043945312 117.463867188 122.9609375 118.138671875 c 4
 113.233398438 124.012695312 105.422851562 115.494140625 96.2392578125 109.873046875 c 5
 100.03515625 122.62890625 111.897460938 146.1796875 119.948242188 149.45703125 c 4
 122.09765625 150.33203125 123.061523438 151.6328125 124.741210938 153.28125 c 4
 124.49609375 333.857421875 124.741210938 753.78125 124.741210938 753.78125 c 5
 71.396484375 738.3984375 59.8759765625 788.204101562 2.9892578125 743.365234375 c 5
 61.986328125 825.399414062 91.2431640625 774.627929688 182.80078125 803.662109375 c 5
325.623046875 736.6328125 m 5
 232.33984375 659.3984375 l 5
 232.33984375 166.32421875 l 5
 278.927734375 147.026367188 312.439453125 116.2421875 352.21484375 75.03125 c 4
 355.501953125 73.1279296875 358.866210938 73.30078125 362.196289062 72.748046875 c 4
 385.266601562 82.984375 446.459960938 136.657226562 454.47265625 154.97265625 c 5
 454.47265625 628.849609375 l 5
 413.557617188 646.359375 349.935546875 698.018554688 325.623046875 736.6328125 c 5
76.044921875 665.716796875 m 5
 43.7080078125 590.26171875 59.470703125 516.952148438 63.4052734375 427.65625 c 5
 62.171875 330.290039062 82.9599609375 199.221679688 -22.9697265625 155.888671875 c 5
 19.5615234375 234.41015625 1.3759765625 315.34765625 -1.90625 404.484375 c 5
 -1.90625 404.484375 -37.71875 412.911132812 -63 396.056640625 c 5
 -60.892578125 429.764648438 -8.2255859375 455.044921875 -8.2255859375 455.044921875 c 5
 -1.1220703125 553.083007812 -11.5556640625 608.96875 76.044921875 665.716796875 c 5
224.33984375 652.7734375 m 5
 182.80078125 618.380859375 l 5
 182.80078125 181.330078125 l 5
 197.885742188 178.204101562 211.600585938 174.233398438 224.33984375 169.46875 c 5
 224.33984375 652.7734375 l 5
EndSplineSet
EndUndoOperation
UndoOperation
Index: 6
Type: 1
WasModified: 1
WasOrder2: 0
Layer: 2
Width: 1024
VWidth: 0
LBearingChange: 0
UnicodeEnc: 0
InstructionsLength: 0
SplineSet
182.80078125 803.662109375 m 1
 182.799804688 658.9140625 l 1
 364.666992188 799.513671875 l 1
 402.958007812 754.063476562 472.431640625 701.413085938 523.622070312 671.689453125 c 1
 539.463867188 660.6015625 l 1
 511.072265625 644.75390625 l 1
 511.072265625 175.09765625 l 1
 511.072265625 175.09765625 520.40234375 178.5859375 526.643554688 178.607421875 c 1
 484.922851562 115.915039062 378.48046875 40.98046875 318.166992188 2.919921875 c 1
 290.422851562 38.00390625 231.860351562 101.837890625 182.799804688 112.95703125 c 1
 182.038085938 -168.625 l 1
 182.038085938 -204.6875 l 2
 182.65625 -223.112304688 189.436523438 -237.22265625 191.609375 -250.451171875 c 1
 186.71875 -247.168945312 159.06640625 -218.434570312 152.268554688 -216.62109375 c 0
 135.1015625 -222.459960938 115.943359375 -243.711914062 98.40625 -252.775390625 c 1
 106.521484375 -228.071289062 122.311523438 -198.389648438 124.670898438 -183.267578125 c 0
 124.7109375 -175.998046875 124.69140625 -176.256835938 124.741210938 -166.7890625 c 2
 124.741210938 115.626953125 l 2
 123.96484375 116.6171875 124.043945312 117.463867188 122.9609375 118.138671875 c 0
 113.233398438 124.012695312 105.422851562 115.494140625 96.2392578125 109.873046875 c 1
 100.03515625 122.62890625 111.897460938 146.1796875 119.948242188 149.45703125 c 0
 122.09765625 150.33203125 123.061523438 151.6328125 124.741210938 153.28125 c 0
 124.49609375 333.857421875 124.741210938 753.78125 124.741210938 753.78125 c 1
 71.396484375 738.3984375 59.8759765625 788.204101562 2.9892578125 743.365234375 c 1
 61.986328125 825.399414062 91.2431640625 774.627929688 182.80078125 803.662109375 c 1
325.623046875 736.6328125 m 1
 232.33984375 659.3984375 l 1
 232.33984375 166.32421875 l 1
 278.927734375 147.026367188 312.439453125 116.2421875 352.21484375 75.03125 c 0
 355.501953125 73.1279296875 358.866210938 73.30078125 362.196289062 72.748046875 c 0
 385.266601562 82.984375 446.459960938 136.657226562 454.47265625 154.97265625 c 1
 454.47265625 628.849609375 l 1
 413.557617188 646.359375 349.935546875 698.018554688 325.623046875 736.6328125 c 1
76.044921875 665.716796875 m 1
 43.7080078125 590.26171875 59.470703125 516.952148438 63.4052734375 427.65625 c 1
 62.171875 330.290039062 82.9599609375 199.221679688 -22.9697265625 155.888671875 c 1
 19.5615234375 234.41015625 1.3759765625 315.34765625 -1.90625 404.484375 c 1
 -1.90625 404.484375 -37.71875 412.911132812 -63 396.056640625 c 1
 -60.892578125 429.764648438 -8.2255859375 455.044921875 -8.2255859375 455.044921875 c 1
 -1.1220703125 553.083007812 -11.5556640625 608.96875 76.044921875 665.716796875 c 1
224.33984375 652.7734375 m 1
 182.80078125 618.380859375 l 1
 182.80078125 181.330078125 l 1
 197.885742188 178.204101562 211.600585938 174.233398438 224.33984375 169.46875 c 1
 224.33984375 652.7734375 l 1
EndSplineSet
EndUndoOperation
EndUndoes
Redoes
EndRedoes
EndUndoRedoHistory
Fore
SplineSet
270.80078125 776.669921875 m 5
 270.807617188 631.921875 l 5
 452.674804688 772.521484375 l 5
 490.96484375 727.071289062 560.440429688 674.420898438 611.631835938 644.697265625 c 5
 627.471679688 633.609375 l 5
 599.079101562 617.763671875 l 5
 599.079101562 148.108398438 l 5
 599.079101562 148.108398438 608.409179688 151.594726562 614.651367188 151.615234375 c 5
 572.930664062 88.9228515625 466.487304688 13.9892578125 406.174804688 -24.072265625 c 5
 378.430664062 11.01171875 319.8671875 74.845703125 270.807617188 85.96484375 c 5
 270.045898438 -195.615234375 l 5
 270.045898438 -231.6796875 l 6
 270.6640625 -250.104492188 277.444335938 -264.213867188 279.616210938 -277.443359375 c 5
 274.725585938 -274.161132812 247.073242188 -245.42578125 240.276367188 -243.61328125 c 4
 223.109375 -249.452148438 203.950195312 -270.702148438 186.413085938 -279.764648438 c 5
 194.528320312 -255.0625 210.319335938 -225.381835938 212.678710938 -210.259765625 c 4
 212.7109375 -202.990234375 212.697265625 -203.249023438 212.74609375 -193.78125 c 6
 212.74609375 88.634765625 l 6
 211.971679688 89.625 212.049804688 90.4736328125 210.966796875 91.1484375 c 4
 201.23828125 97.0224609375 193.428710938 88.501953125 184.244140625 82.880859375 c 5
 188.040039062 95.63671875 199.90234375 119.186523438 207.953125 122.46484375 c 4
 210.103515625 123.33984375 211.067382812 124.639648438 212.74609375 126.2890625 c 4
 212.506835938 299.1015625 212.713867188 673.40234375 212.732421875 706.79296875 c 5
 173.950195312 724.546875 120.411132812 671.436523438 83.93359375 640.83203125 c 5
 119.38671875 693.780273438 202.88671875 765.833007812 270.80078125 776.669921875 c 5
413.623046875 709.640625 m 5
 320.33984375 632.40625 l 5
 320.33984375 139.33203125 l 5
 366.926757812 120.034179688 400.438476562 89.25 440.21484375 48.0390625 c 4
 443.501953125 46.1357421875 446.865234375 46.3076171875 450.1953125 45.755859375 c 4
 473.266601562 55.9931640625 534.459960938 109.666992188 542.47265625 127.983398438 c 5
 542.47265625 601.858398438 l 5
 501.557617188 619.368164062 437.935546875 671.02734375 413.623046875 709.640625 c 5
164.044921875 638.7265625 m 5
 131.70703125 563.270507812 147.469726562 489.961914062 151.404296875 400.666015625 c 5
 150.171875 303.299804688 170.959960938 172.23046875 65.029296875 128.8984375 c 5
 107.561523438 207.419921875 89.3779296875 288.35546875 86.095703125 377.4921875 c 5
 86.095703125 377.4921875 50.2802734375 385.918945312 25 369.064453125 c 5
 27.1064453125 402.772460938 79.7734375 428.0546875 79.7734375 428.0546875 c 5
 86.8779296875 526.092773438 76.4443359375 581.977539062 164.044921875 638.7265625 c 5
312.33984375 625.78125 m 5
 270.80078125 591.388671875 l 5
 270.80078125 486.943359375 l 5
 311.701171875 486.943359375 l 5
 311.701171875 478.943359375 l 5
 270.80078125 478.943359375 l 5
 270.80078125 396.5 l 5
 311.701171875 396.5 l 5
 311.701171875 388.5 l 5
 270.80078125 388.5 l 5
 270.80078125 154.337890625 l 5
 285.885742188 151.212890625 299.6015625 147.244140625 312.33984375 142.478515625 c 5
 312.33984375 625.78125 l 5
EndSplineSet
EndChar

StartChar: k
Encoding: 107 107 31
Width: 383
VWidth: 0
Flags: HW
LayerCount: 2
UndoRedoHistory
Layer: 1
Undoes
UndoOperation
Index: 0
Type: 7
WasModified: 1
WasOrder2: 0
Layer: 2
Width: 382
EndUndoOperation
UndoOperation
Index: 1
Type: 3
WasModified: 0
WasOrder2: 0
Layer: 2
EndUndoOperation
UndoOperation
Index: 2
Type: 1
WasModified: 1
WasOrder2: 0
Layer: 2
Width: 1024
VWidth: 0
LBearingChange: 0
UnicodeEnc: 0
InstructionsLength: 0
SplineSet
96.36328125 800 m 1
 87.490234375 773.471679688 72.5556640625 741.040039062 72.931640625 727.916015625 c 0
 71.19921875 636.705078125 74.435546875 526.704101562 72.931640625 423.505859375 c 1
 209.591796875 539.0078125 l 1
 254.850585938 498.186523438 284.41015625 466.243164062 311.056640625 416.403320312 c 1
 276.763671875 389.416992188 240.381835938 361.078125 203.682617188 332.395507812 c 1
 287.590820312 73.748046875 l 1
 301.06640625 60.4267578125 315.00390625 48.447265625 318.803710938 48.447265625 c 1
 310.883789062 48.447265625 259.6640625 -2.7724609375 259.6640625 -10.6923828125 c 1
 259.6640625 -2.7724609375 207.688476562 49.2021484375 199.768554688 49.2021484375 c 1
 202.98828125 49.2021484375 213.37890625 57.703125 224.55859375 68.2822265625 c 1
 152.270507812 292.098632812 l 1
 124.955078125 270.612304688 97.8125 249.115234375 71.548828125 227.962890625 c 1
 70.958984375 175.590820312 70.826171875 122.678710938 72.8876953125 74.6640625 c 1
 86.646484375 60.9775390625 101.14453125 48.447265625 105.032226562 48.447265625 c 1
 97.1123046875 48.447265625 45.8916015625 -2.7724609375 45.8916015625 -10.6923828125 c 1
 45.8916015625 -2.7724609375 -6.080078125 49.2021484375 -14 49.2021484375 c 1
 -10.259765625 49.2021484375 3.1337890625 60.64453125 16.232421875 73.53515625 c 1
 15.89453125 73.53515625 l 1
 15.89453125 752.7734375 l 2
 15.27734375 770.868164062 5.3330078125 784.727539062 3.1611328125 797.719726562 c 1
 8.05078125 794.49609375 35.7001953125 766.2734375 42.498046875 764.493164062 c 0
 55.8525390625 768.299804688 74.0234375 786.520507812 96.36328125 800 c 1
179.365234375 480.5859375 m 1
 72.931640625 392.59375 l 1
 73.330078125 352.337890625 72.5771484375 306.327148438 71.931640625 259.30859375 c 1
 244.288085938 399.081054688 l 1
 238.436523438 429.75390625 199.487304688 461.690429688 179.365234375 480.5859375 c 1
EndSplineSet
EndUndoOperation
EndUndoes
Redoes
EndRedoes
EndUndoRedoHistory
Fore
SplineSet
135.36328125 800 m 1
 126.490234375 773.471679688 111.555664062 741.040039062 111.931640625 727.916015625 c 0
 110.19921875 636.705078125 113.435546875 526.704101562 111.931640625 423.505859375 c 1
 248.591796875 539.0078125 l 1
 293.850585938 498.186523438 323.41015625 466.243164062 350.056640625 416.403320312 c 1
 315.763671875 389.416992188 279.381835938 361.078125 242.682617188 332.395507812 c 1
 326.590820312 73.748046875 l 1
 340.06640625 60.4267578125 354.00390625 48.447265625 357.803710938 48.447265625 c 1
 349.883789062 48.447265625 298.6640625 -2.7724609375 298.6640625 -10.6923828125 c 1
 298.6640625 -2.7724609375 246.688476562 49.2021484375 238.768554688 49.2021484375 c 1
 241.98828125 49.2021484375 252.37890625 57.703125 263.55859375 68.2822265625 c 1
 191.270507812 292.098632812 l 1
 163.955078125 270.612304688 136.8125 249.115234375 110.548828125 227.962890625 c 1
 109.958984375 175.590820312 109.826171875 122.678710938 111.887695312 74.6640625 c 1
 125.646484375 60.9775390625 140.14453125 48.447265625 144.032226562 48.447265625 c 1
 136.112304688 48.447265625 84.8916015625 -2.7724609375 84.8916015625 -10.6923828125 c 1
 84.8916015625 -2.7724609375 32.919921875 49.2021484375 25 49.2021484375 c 1
 28.740234375 49.2021484375 42.1337890625 60.64453125 55.232421875 73.53515625 c 1
 54.89453125 73.53515625 l 1
 54.89453125 752.7734375 l 2
 54.27734375 770.868164062 44.3330078125 784.727539062 42.1611328125 797.719726562 c 1
 47.05078125 794.49609375 74.7001953125 766.2734375 81.498046875 764.493164062 c 0
 94.8525390625 768.299804688 113.0234375 786.520507812 135.36328125 800 c 1
218.365234375 480.5859375 m 1
 111.931640625 392.59375 l 1
 112.330078125 352.337890625 111.577148438 306.327148438 110.931640625 259.30859375 c 1
 283.288085938 399.081054688 l 1
 277.436523438 429.75390625 238.487304688 461.690429688 218.365234375 480.5859375 c 1
EndSplineSet
EndChar

StartChar: hyphen
Encoding: 45 45 32
Width: 500
VWidth: 0
Flags: HW
LayerCount: 2
UndoRedoHistory
Layer: 1
Undoes
UndoOperation
Index: 0
Type: 1
WasModified: 1
WasOrder2: 0
Layer: 2
Width: 500
VWidth: 0
LBearingChange: 0
UnicodeEnc: 0
InstructionsLength: 0
SplineSet
472.220703125 774 m 5
 441.80859375 735.465820312 397.592773438 684.458007812 345.44140625 686.3046875 c 6
 65.708984375 686.3046875 l 6
 35.01953125 683.864257812 24.7666015625 672.319335938 0 649.017578125 c 5
 20.568359375 677.630859375 57.947265625 737.405273438 110.80859375 742.904296875 c 5
 398.693359375 742.904296875 l 6
 428.58984375 742.904296875 446.365234375 752.084960938 472.220703125 774 c 5
EndSplineSet
EndUndoOperation
EndUndoes
Redoes
EndRedoes
EndUndoRedoHistory
Fore
SplineSet
485.412109375 364.095703125 m 5
 455 325.561523438 410.784179688 274.553710938 358.6328125 276.400390625 c 6
 78.900390625 276.400390625 l 6
 48.2109375 273.959960938 37.9580078125 262.415039062 13.19140625 239.11328125 c 5
 33.759765625 267.7265625 71.138671875 327.500976562 124 333 c 5
 411.884765625 333 l 6
 441.78125 333 459.556640625 342.180664062 485.412109375 364.095703125 c 5
EndSplineSet
Validated: 33
EndChar

StartChar: x
Encoding: 120 120 33
Width: 553
VWidth: 0
Flags: HW
LayerCount: 2
UndoRedoHistory
Layer: 1
Undoes
UndoOperation
Index: 0
Type: 7
WasModified: 1
WasOrder2: 0
Layer: 2
Width: 551
EndUndoOperation
UndoOperation
Index: 1
Type: 3
WasModified: 0
WasOrder2: 0
Layer: 2
EndUndoOperation
UndoOperation
Index: 2
Type: 1
WasModified: 1
WasOrder2: 0
Layer: 2
Width: 1024
VWidth: 0
LBearingChange: 0
UnicodeEnc: 0
InstructionsLength: 0
SplineSet
111.099609375 562.334960938 m 1
 225.221679688 559.439453125 l 1
 225.221679688 559.439453125 189.73828125 501.140625 183.948242188 498.245117188 c 0
 179.970703125 498.359375 169.243164062 498.536132812 164.6796875 498.73046875 c 2
 239.904296875 366.438476562 l 1
 331.225585938 495.318359375 l 1
 274.530273438 495.318359375 l 1
 292.534179688 513.322265625 317.454101562 552.896484375 318.272460938 561.8984375 c 1
 445.254882812 561.8984375 l 1
 433.583007812 528.234375 411.96875 494.104492188 396.178710938 495.318359375 c 2
 358.083007812 495.318359375 l 1
 256.233398438 344.231445312 l 1
 421.473632812 65.3857421875 l 1
 484.2734375 64.19140625 l 1
 484.2734375 64.19140625 448.790039062 5.8955078125 443 3 c 0
 400.486328125 4.224609375 297.5625 11.2236328125 266.637695312 -1.6650390625 c 1
 265.379882812 32.5927734375 330.284179688 54.998046875 350.521484375 65.4169921875 c 1
 226.127929688 282.901367188 l 1
 93.564453125 76.89453125 l 1
 90.6376953125 66.6513671875 l 1
 152.459960938 66.6513671875 l 1
 140.787109375 32.986328125 119.172851562 -1.1396484375 103.383789062 0.07421875 c 2
 -18.265625 0.07421875 l 1
 -0.2607421875 18.078125 24.6611328125 57.6494140625 25.4794921875 66.6513671875 c 1
 59.09375 66.6513671875 l 1
 212.920898438 305.318359375 l 1
 93.8203125 501.149414062 l 1
 70.5322265625 500.7890625 43.150390625 498.87890625 30.4423828125 493.583007812 c 1
 29.11328125 529.774414062 94.6318359375 552.760742188 111.099609375 562.334960938 c 1
EndSplineSet
EndUndoOperation
EndUndoes
Redoes
EndRedoes
EndUndoRedoHistory
Fore
SplineSet
154.365234375 562.334960938 m 1
 268.487304688 559.439453125 l 1
 268.487304688 559.439453125 233.00390625 501.140625 227.213867188 498.245117188 c 0
 223.236328125 498.359375 212.508789062 498.536132812 207.9453125 498.73046875 c 2
 283.169921875 366.438476562 l 1
 374.491210938 495.318359375 l 1
 317.795898438 495.318359375 l 1
 335.799804688 513.322265625 360.719726562 552.896484375 361.538085938 561.8984375 c 1
 488.520507812 561.8984375 l 1
 476.848632812 528.234375 455.234375 494.104492188 439.444335938 495.318359375 c 2
 401.348632812 495.318359375 l 1
 299.499023438 344.231445312 l 1
 464.739257812 65.3857421875 l 1
 527.5390625 64.19140625 l 1
 527.5390625 64.19140625 492.055664062 5.8955078125 486.265625 3 c 0
 443.751953125 4.224609375 340.828125 11.2236328125 309.903320312 -1.6650390625 c 1
 308.645507812 32.5927734375 373.549804688 54.998046875 393.787109375 65.4169921875 c 1
 269.393554688 282.901367188 l 1
 136.830078125 76.89453125 l 1
 133.903320312 66.6513671875 l 1
 195.725585938 66.6513671875 l 1
 184.052734375 32.986328125 162.438476562 -1.1396484375 146.649414062 0.07421875 c 2
 25 0.07421875 l 1
 43.0048828125 18.078125 67.9267578125 57.6494140625 68.7451171875 66.6513671875 c 1
 102.359375 66.6513671875 l 1
 256.186523438 305.318359375 l 1
 137.0859375 501.149414062 l 1
 113.797851562 500.7890625 86.416015625 498.87890625 73.7080078125 493.583007812 c 1
 72.37890625 529.774414062 137.897460938 552.760742188 154.365234375 562.334960938 c 1
EndSplineSet
EndChar

StartChar: C
Encoding: 67 67 34
Width: 695
VWidth: 0
Flags: HW
LayerCount: 2
UndoRedoHistory
Layer: 1
Undoes
UndoOperation
Index: 0
Type: 7
WasModified: 1
WasOrder2: 0
Layer: 2
Width: 692
EndUndoOperation
UndoOperation
Index: 1
Type: 3
WasModified: 0
WasOrder2: 0
Layer: 2
EndUndoOperation
UndoOperation
Index: 2
Type: 1
WasModified: 1
WasOrder2: 0
Layer: 2
Width: 667
VWidth: 0
LBearingChange: 0
UnicodeEnc: 0
InstructionsLength: 0
EndUndoOperation
UndoOperation
Index: 3
Type: 3
WasModified: 1
WasOrder2: 0
Layer: 2
EndUndoOperation
UndoOperation
Index: 4
Type: 1
WasModified: 0
WasOrder2: 0
Layer: 2
Width: 667
VWidth: 0
LBearingChange: 0
UnicodeEnc: 0
InstructionsLength: 0
SplineSet
432.361328125 774 m 5
 481.919921875 684.3125 560.34765625 691.13671875 614.521484375 678.958984375 c 5
 552.6953125 648.5703125 499.5859375 645.415039062 452.771484375 663.072265625 c 5
 452.771484375 39.8671875 l 5
 510.881835938 43.2822265625 596.866210938 72.9765625 644.701171875 106.1484375 c 5
 583.73828125 43.16015625 463.1171875 -8.0654296875 375.458984375 -8.193359375 c 4
 168.206054688 -8.193359375 -0 160.012695312 -0 367.266601562 c 4
 -0 367.266601562 -0 367.267578125 0 367.267578125 c 4
 0.1533203125 475.577148438 72.5146484375 613.568359375 161.521484375 675.283203125 c 5
 103.018554688 615.087890625 55.4345703125 498.108398438 55.30859375 414.16796875 c 4
 55.30859375 414.16796875 55.30859375 414.166992188 55.30859375 414.166992188 c 4
 55.30859375 206.9140625 223.513671875 38.7080078125 430.765625 38.70703125 c 4
 434.634765625 38.8251953125 440.909179688 39.1337890625 444.771484375 39.396484375 c 6
 444.771484375 666.32421875 l 5
 419.971679688 677.09765625 396.950195312 693.778320312 375.337890625 715.390625 c 5
 321.482421875 674.20703125 l 5
 318.734375 648.037109375 l 5
 318.734375 214.833984375 l 5
 320.73046875 202.7421875 l 5
 262.134765625 168.912109375 l 5
 262.134765625 214.833984375 l 5
 262.134765625 638.533203125 l 5
 185.2578125 587.087890625 l 5
 183.673828125 601.34375 l 5
 432.361328125 774 l 5
EndSplineSet
EndUndoOperation
UndoOperation
Index: 5
Type: 1
WasModified: 1
WasOrder2: 0
Layer: 2
Width: 1024
VWidth: 0
LBearingChange: 0
UnicodeEnc: 0
InstructionsLength: 0
SplineSet
432.361328125 774 m 1
 481.919921875 684.3125 560.34765625 691.13671875 614.521484375 678.958984375 c 1
 552.6953125 648.5703125 499.5859375 645.415039062 452.771484375 663.072265625 c 1
 452.771484375 39.8671875 l 1
 510.881835938 43.2822265625 596.866210938 72.9765625 644.701171875 106.1484375 c 1
 583.73828125 43.16015625 463.1171875 -8.0654296875 375.458984375 -8.193359375 c 0
 168.206054688 -8.193359375 -0 160.012695312 -0 367.266601562 c 0
 -0 367.266601562 -0 367.267578125 0 367.267578125 c 0
 0.1533203125 475.577148438 72.5146484375 613.568359375 161.521484375 675.283203125 c 1
 103.018554688 615.087890625 55.4345703125 498.108398438 55.30859375 414.16796875 c 0
 55.30859375 414.16796875 55.30859375 414.166992188 55.30859375 414.166992188 c 0
 55.30859375 206.9140625 223.513671875 38.7080078125 430.765625 38.70703125 c 0
 434.634765625 38.8251953125 440.909179688 39.1337890625 444.771484375 39.396484375 c 2
 444.771484375 666.32421875 l 1
 419.971679688 677.09765625 396.950195312 693.778320312 375.337890625 715.390625 c 1
 321.482421875 674.20703125 l 1
 318.734375 648.037109375 l 1
 318.734375 214.833984375 l 1
 320.73046875 202.7421875 l 1
 262.134765625 168.912109375 l 1
 262.134765625 214.833984375 l 1
 262.134765625 638.533203125 l 1
 185.2578125 587.087890625 l 1
 183.673828125 601.34375 l 1
 432.361328125 774 l 1
EndSplineSet
EndUndoOperation
EndUndoes
Redoes
EndRedoes
EndUndoRedoHistory
Fore
SplineSet
457.361328125 774 m 1
 506.919921875 684.311523438 585.34765625 691.135742188 639.521484375 678.958984375 c 1
 577.6953125 648.571289062 524.5859375 645.415039062 477.771484375 663.072265625 c 1
 477.771484375 39.8671875 l 1
 535.881835938 43.2822265625 621.8671875 72.9765625 669.701171875 106.149414062 c 1
 608.73828125 43.16015625 488.1171875 -8.064453125 400.458984375 -8.193359375 c 0
 193.206054688 -8.1923828125 25 160.013671875 25 367.266601562 c 0
 25 367.266601562 25 367.267578125 25 367.267578125 c 0
 25.1533203125 475.578125 97.515625 613.568359375 186.5234375 675.283203125 c 1
 128.01953125 615.088867188 80.435546875 498.109375 80.30859375 414.16796875 c 0
 80.30859375 414.16796875 80.30859375 414.166992188 80.30859375 414.166992188 c 0
 80.30859375 206.9140625 248.513671875 38.7080078125 455.765625 38.70703125 c 0
 459.634765625 38.8251953125 465.909179688 39.134765625 469.771484375 39.3974609375 c 2
 469.771484375 429.580078125 l 1
 343.734375 429.580078125 l 1
 343.734375 214.833984375 l 1
 345.73046875 202.7421875 l 1
 287.134765625 168.912109375 l 1
 287.134765625 214.833984375 l 1
 287.134765625 638.533203125 l 1
 210.2578125 587.087890625 l 1
 208.673828125 601.34375 l 1
 457.361328125 774 l 1
400.337890625 715.390625 m 1
 346.482421875 674.20703125 l 1
 343.734375 648.037109375 l 1
 343.734375 528.024414062 l 1
 469.771484375 528.024414062 l 1
 469.771484375 666.32421875 l 1
 444.971679688 677.09765625 421.950195312 693.778320312 400.337890625 715.390625 c 1
343.734375 520.024414062 m 1
 343.734375 437.580078125 l 1
 469.771484375 437.580078125 l 1
 469.771484375 520.024414062 l 1
 343.734375 520.024414062 l 1
EndSplineSet
EndChar

StartChar: p
Encoding: 112 112 35
Width: 401
VWidth: 0
Flags: HW
LayerCount: 2
UndoRedoHistory
Layer: 1
Undoes
UndoOperation
Index: 0
Type: 7
WasModified: 1
WasOrder2: 0
Layer: 2
Width: 391
EndUndoOperation
UndoOperation
Index: 1
Type: 3
WasModified: 0
WasOrder2: 0
Layer: 2
EndUndoOperation
UndoOperation
Index: 2
Type: 1
WasModified: 1
WasOrder2: 0
Layer: 2
Width: 1024
VWidth: 0
LBearingChange: 0
UnicodeEnc: 0
InstructionsLength: 0
SplineSet
207.7109375 554.755859375 m 1
 252.970703125 513.934570312 288.546875 476.791015625 330.743164062 432.6796875 c 1
 316.81640625 416.478515625 300.950195312 408.946289062 301.034179688 379.296875 c 0
 302.11328125 297.282226562 299.241210938 215.180664062 301.034179688 121.265625 c 1
 306.314453125 120.254882812 307.474609375 121.103515625 313.517578125 119.409179688 c 1
 266.873046875 71.794921875 207.241210938 37.9462890625 146 0 c 1
 129.041015625 24.462890625 101.633789062 37.4453125 71.05078125 45.505859375 c 1
 71.296875 -37.65234375 71.6611328125 -120.811523438 71.6826171875 -203.970703125 c 0
 72.2998046875 -222.39453125 82.2470703125 -236.504882812 84.4189453125 -249.733398438 c 1
 79.529296875 -246.451171875 51.8759765625 -217.716796875 45.0791015625 -215.903320312 c 0
 31.724609375 -219.779296875 13.556640625 -238.33203125 -8.783203125 -252.056640625 c 1
 -0.765625 -227.6484375 12.1640625 -198.380859375 14.3115234375 -183.09765625 c 0
 14.6962890625 -105.58984375 14.32421875 -22.8076171875 14.451171875 56.0654296875 c 1
 2.630859375 57.7392578125 -9.0361328125 59.271484375 -20.1650390625 60.99609375 c 1
 -4.7978515625 77.5234375 16.541015625 90.5029296875 14.0146484375 105.989257812 c 2
 14.0146484375 501.716796875 l 2
 13.3974609375 519.811523438 3.4501953125 533.669921875 1.27734375 546.663085938 c 1
 6.16796875 543.439453125 33.8173828125 515.219726562 40.615234375 513.438476562 c 0
 53.96875 517.24609375 72.140625 535.463867188 94.48046875 548.942382812 c 1
 85.607421875 522.4140625 70.6748046875 489.986328125 71.05078125 476.861328125 c 0
 69.3193359375 385.650390625 72.5556640625 542.452148438 71.05078125 439.25390625 c 1
 207.7109375 554.755859375 l 1
177.482421875 496.333984375 m 1
 71.05078125 408.340820312 l 1
 71.8466796875 327.889648438 71.05078125 118.995117188 71.05078125 118.995117188 c 1
 92.0498046875 93.8671875 161.625976562 81.8076171875 206.918945312 64.89453125 c 1
 224.673828125 71.525390625 237.0546875 81.46484375 246.736328125 91.869140625 c 1
 246.16015625 196.583984375 244.719726562 298.82421875 246.736328125 414.676757812 c 0
 247.135742188 447.681640625 199.372070312 475.779296875 177.482421875 496.333984375 c 1
EndSplineSet
EndUndoOperation
UndoOperation
Index: 3
Type: 1
WasModified: 1
WasOrder2: 0
Layer: 2
Width: 1024
VWidth: 0
LBearingChange: 0
UnicodeEnc: 0
InstructionsLength: 0
SplineSet
227.875976562 774 m 5
 273.135742188 733.178710938 308.711914062 696.03515625 350.908203125 651.923828125 c 5
 336.981445312 635.72265625 321.115234375 628.190429688 321.19921875 598.541015625 c 4
 322.278320312 516.526367188 319.40625 434.424804688 321.19921875 340.509765625 c 5
 326.479492188 339.499023438 327.639648438 340.34765625 333.682617188 338.653320312 c 5
 287.038085938 291.0390625 227.40625 257.190429688 166.165039062 219.244140625 c 5
 149.206054688 243.70703125 121.798828125 256.689453125 91.2158203125 264.75 c 5
 91.4619140625 181.591796875 91.826171875 98.4326171875 91.84765625 15.2734375 c 4
 92.46484375 -3.150390625 102.412109375 -17.2607421875 104.583984375 -30.4892578125 c 5
 99.6943359375 -27.20703125 72.041015625 1.52734375 65.244140625 3.3408203125 c 4
 51.8896484375 -0.53515625 33.7216796875 -19.087890625 11.3818359375 -32.8125 c 5
 19.3994140625 -8.404296875 32.3291015625 20.86328125 34.4765625 36.146484375 c 4
 34.861328125 113.654296875 34.4892578125 196.436523438 34.6162109375 275.309570312 c 5
 22.7958984375 276.983398438 11.12890625 278.515625 0 280.240234375 c 5
 15.3671875 296.767578125 36.7060546875 309.747070312 34.1796875 325.233398438 c 6
 34.1796875 720.9609375 l 6
 33.5625 739.055664062 23.615234375 752.9140625 21.4423828125 765.907226562 c 5
 26.3330078125 762.68359375 53.982421875 734.463867188 60.7802734375 732.682617188 c 4
 74.1337890625 736.490234375 92.3056640625 754.708007812 114.645507812 768.186523438 c 5
 105.772460938 741.658203125 90.83984375 709.23046875 91.2158203125 696.10546875 c 4
 89.484375 604.89453125 92.720703125 761.696289062 91.2158203125 658.498046875 c 5
 227.875976562 774 l 5
197.647460938 715.578125 m 5
 91.2158203125 627.584960938 l 5
 92.01171875 547.133789062 91.2158203125 338.239257812 91.2158203125 338.239257812 c 5
 112.21484375 313.111328125 181.791015625 301.051757812 227.083984375 284.138671875 c 5
 244.838867188 290.76953125 257.219726562 300.708984375 266.901367188 311.11328125 c 5
 266.325195312 415.828125 264.884765625 518.068359375 266.901367188 633.920898438 c 4
 267.30078125 666.92578125 219.537109375 695.0234375 197.647460938 715.578125 c 5
EndSplineSet
EndUndoOperation
UndoOperation
Index: 4
Type: 1
WasModified: 0
WasOrder2: 0
Layer: 2
Width: 1024
VWidth: 0
LBearingChange: 0
UnicodeEnc: 0
InstructionsLength: 0
EndUndoOperation
UndoOperation
Index: 5
Type: 3
WasModified: 0
WasOrder2: 0
Layer: 2
EndUndoOperation
EndUndoes
Redoes
EndRedoes
EndUndoRedoHistory
Fore
SplineSet
252.875976562 554.755859375 m 1
 298.135742188 513.934570312 333.711914062 476.791015625 375.908203125 432.6796875 c 1
 361.981445312 416.478515625 346.115234375 408.946289062 346.19921875 379.296875 c 0
 347.278320312 297.282226562 344.40625 215.180664062 346.19921875 121.265625 c 1
 351.479492188 120.254882812 352.639648438 121.103515625 358.682617188 119.409179688 c 1
 312.038085938 71.794921875 252.40625 37.9462890625 191.165039062 0 c 1
 174.206054688 24.462890625 146.798828125 37.4453125 116.215820312 45.505859375 c 1
 116.461914062 -37.65234375 116.826171875 -120.811523438 116.84765625 -203.970703125 c 0
 117.46484375 -222.39453125 127.412109375 -236.504882812 129.583984375 -249.733398438 c 1
 124.694335938 -246.451171875 97.041015625 -217.716796875 90.244140625 -215.903320312 c 0
 76.8896484375 -219.779296875 58.7216796875 -238.33203125 36.3818359375 -252.056640625 c 1
 44.3994140625 -227.6484375 57.3291015625 -198.380859375 59.4765625 -183.09765625 c 0
 59.861328125 -105.58984375 59.4892578125 -22.8076171875 59.6162109375 56.0654296875 c 1
 47.7958984375 57.7392578125 36.12890625 59.271484375 25 60.99609375 c 1
 40.3671875 77.5234375 61.7060546875 90.5029296875 59.1796875 105.989257812 c 2
 59.1796875 501.716796875 l 2
 58.5625 519.811523438 48.615234375 533.669921875 46.4423828125 546.663085938 c 1
 51.3330078125 543.439453125 78.982421875 515.219726562 85.7802734375 513.438476562 c 0
 99.1337890625 517.24609375 117.305664062 535.463867188 139.645507812 548.942382812 c 1
 130.772460938 522.4140625 115.83984375 489.986328125 116.215820312 476.861328125 c 0
 114.484375 385.650390625 117.720703125 542.452148438 116.215820312 439.25390625 c 1
 252.875976562 554.755859375 l 1
222.647460938 496.333984375 m 1
 116.215820312 408.340820312 l 1
 117.01171875 327.889648438 116.215820312 118.995117188 116.215820312 118.995117188 c 1
 137.21484375 93.8671875 206.791015625 81.8076171875 252.083984375 64.89453125 c 1
 269.838867188 71.525390625 282.219726562 81.46484375 291.901367188 91.869140625 c 1
 291.325195312 196.583984375 289.884765625 298.82421875 291.901367188 414.676757812 c 0
 292.30078125 447.681640625 244.537109375 475.779296875 222.647460938 496.333984375 c 1
EndSplineSet
EndChar

